{"glyphs":{"0":{"ha":957,"x_min":63,"x_max":893,"o":"m 879 583 q 884 537 881 571 q 893 465 888 503 q 867 256 893 343 q 774 86 840 168 q 645 -3 724 25 q 481 -32 567 -32 q 329 -3 410 -32 q 308 7 317 1 q 282 15 299 13 q 115 208 168 103 q 63 458 63 314 l 64 538 q 108 683 69 588 q 126 733 118 710 q 135 768 135 756 q 128 778 135 772 q 122 790 122 785 l 124 797 q 156 809 140 797 q 188 837 172 821 q 211 861 203 853 q 290 925 260 904 q 372 968 321 946 l 381 967 q 410 974 394 967 q 428 982 425 981 q 472 999 453 997 l 569 1001 q 608 966 569 994 q 657 938 647 938 l 657 932 q 694 911 669 932 q 740 865 718 890 q 763 826 761 839 l 833 725 l 832 721 q 854 689 832 711 q 875 661 874 669 q 881 621 881 639 l 879 583 m 544 964 q 531 931 540 953 q 521 892 521 908 q 567 951 556 924 l 544 964 m 500 958 q 488 948 494 958 q 481 932 481 938 l 501 944 l 500 958 m 454 951 q 434 945 447 951 q 419 933 421 939 q 435 924 426 928 q 451 914 443 919 q 456 923 453 914 q 460 939 460 932 q 458 947 460 943 q 454 951 456 950 m 599 940 q 594 934 597 940 q 590 922 590 928 q 592 917 590 919 q 596 915 594 915 l 608 933 q 603 938 608 935 q 599 940 599 940 m 381 932 l 389 922 q 392 917 389 919 q 396 915 394 915 q 403 917 399 915 q 408 922 407 919 l 381 932 m 353 917 q 306 897 325 917 l 311 899 q 347 881 317 899 q 376 866 356 876 q 401 856 396 856 l 408 856 q 387 882 404 861 q 365 903 369 903 l 353 903 l 353 917 m 636 911 q 606 899 622 911 q 585 874 589 886 q 651 899 625 899 q 636 911 651 911 m 514 856 q 476 863 489 856 q 453 882 464 869 q 436 898 444 893 q 413 903 428 903 q 436 886 419 894 l 436 838 l 378 838 q 390 826 390 832 q 388 819 390 824 q 386 810 386 814 l 372 810 l 288 838 l 282 832 q 319 804 293 824 q 372 767 346 785 q 413 801 390 779 q 457 835 436 825 q 521 850 478 846 q 535 856 529 850 q 547 875 540 863 q 560 892 554 888 l 549 892 l 514 856 m 668 886 q 617 872 654 886 q 572 844 579 858 q 590 832 578 835 q 668 886 643 856 m 271 867 q 306 856 275 856 l 306 861 l 300 861 q 289 867 296 864 q 276 874 282 869 l 271 867 m 688 868 q 681 867 682 868 q 614 815 640 844 l 697 844 q 701 847 699 844 q 703 850 703 849 q 699 864 703 860 q 688 868 696 868 m 200 790 q 253 785 215 789 q 318 779 292 781 l 242 844 l 200 797 l 200 790 m 721 826 q 621 797 672 826 q 631 786 621 794 q 646 778 642 778 q 669 787 656 778 q 696 807 683 796 q 721 826 713 822 m 657 714 q 616 761 647 739 q 551 797 585 783 q 501 810 517 810 q 428 766 486 810 q 353 701 371 722 l 336 643 q 334 628 336 639 q 329 614 332 618 q 301 551 307 582 q 294 453 294 521 q 311 388 294 426 l 324 353 q 329 324 326 347 q 336 293 335 296 q 405 217 358 243 q 508 192 451 192 q 563 205 531 192 q 619 240 594 218 q 647 286 644 263 q 661 322 649 300 q 682 376 676 353 q 697 494 697 440 q 663 686 697 567 q 654 699 654 686 q 656 709 654 706 q 657 714 657 713 m 758 774 q 749 793 758 782 q 739 810 740 804 q 708 792 731 803 q 668 761 679 778 l 674 756 l 750 774 l 758 774 m 157 719 l 158 714 l 175 738 l 174 732 q 178 723 174 726 q 188 719 182 719 l 261 719 q 251 734 261 725 q 236 743 240 743 q 229 741 233 743 q 224 738 225 739 l 193 756 l 182 750 l 182 774 q 168 747 176 764 q 158 725 160 731 l 157 719 m 211 761 q 251 751 224 758 q 292 736 278 744 q 306 714 306 728 q 278 701 306 704 q 201 697 250 699 q 169 696 175 697 q 211 681 183 692 q 282 661 258 661 q 313 703 289 672 q 349 743 336 733 q 268 761 325 761 l 247 761 l 247 767 l 206 767 l 211 761 m 772 750 q 734 735 767 750 q 692 713 701 719 l 692 701 q 796 714 747 714 q 786 735 796 719 q 772 750 776 750 m 681 731 q 715 743 693 731 l 708 743 l 703 743 q 690 741 696 743 q 681 738 683 739 l 681 731 m 703 654 q 769 696 753 676 l 763 696 q 723 690 749 694 q 697 679 697 685 q 703 654 697 671 m 821 679 q 818 688 821 683 q 814 692 815 692 q 763 668 801 692 q 715 631 725 644 q 758 633 731 631 q 803 638 779 638 q 833 625 828 638 q 757 578 810 594 l 750 565 q 790 570 760 567 q 839 578 821 574 l 840 604 q 836 639 840 621 q 833 653 835 644 q 832 672 832 661 q 833 686 832 682 l 821 679 m 151 674 q 143 657 151 669 q 133 631 135 644 l 146 631 q 260 650 254 649 q 226 658 243 650 q 207 668 210 667 q 156 686 176 686 q 149 682 149 686 l 151 674 m 244 594 q 254 599 249 596 q 265 607 260 603 l 260 594 q 274 606 269 594 q 278 626 278 617 q 222 621 257 626 q 175 614 188 615 q 210 603 186 611 q 244 594 235 594 m 715 599 q 717 587 715 596 q 721 572 718 578 q 762 598 735 581 q 789 619 789 615 q 743 615 771 619 q 715 599 715 610 m 125 601 q 116 588 118 601 q 111 572 114 575 l 117 572 q 125 568 125 572 q 117 553 125 563 q 106 543 110 544 l 229 565 l 236 565 q 260 576 260 569 q 196 589 233 576 q 172 596 193 590 q 125 601 150 601 m 757 406 q 744 417 744 406 q 755 442 744 432 q 788 463 765 451 q 803 472 790 464 q 821 489 817 479 q 792 478 804 481 q 763 476 781 476 l 750 476 q 726 482 726 476 q 764 525 726 501 q 833 560 801 549 q 769 551 811 560 q 721 543 747 546 l 721 401 l 715 389 q 735 397 722 393 q 757 406 747 401 m 186 522 q 260 513 229 513 l 260 550 l 139 531 l 186 522 m 844 543 l 769 507 q 759 499 764 506 q 754 488 754 493 q 777 493 764 488 q 794 500 790 499 q 828 511 819 511 l 828 504 q 843 506 835 504 q 851 513 851 508 l 844 543 m 100 489 q 151 494 131 489 l 151 489 q 193 501 167 499 q 115 513 156 513 q 107 510 110 513 q 104 501 104 508 l 100 518 l 100 489 m 254 483 q 204 477 240 481 q 135 471 168 474 q 185 461 151 469 q 253 450 229 450 l 254 483 m 789 435 q 823 438 789 435 q 857 453 857 442 q 849 478 857 469 q 813 463 838 478 q 781 435 788 447 l 789 435 m 158 210 q 190 233 165 226 q 217 240 214 239 l 282 258 l 276 265 q 235 264 269 264 q 128 306 128 264 l 129 310 l 151 317 l 151 310 q 197 327 163 318 q 231 338 231 336 q 169 350 231 350 l 169 358 q 138 366 154 360 q 122 385 122 372 q 138 403 122 397 q 185 415 154 410 q 236 429 222 421 l 229 435 l 164 447 l 151 453 l 104 453 l 104 440 l 111 440 q 103 417 103 432 l 117 417 q 113 401 117 411 q 104 389 110 390 q 111 353 106 379 q 115 333 113 347 q 118 307 118 318 l 117 293 l 158 210 m 164 293 q 199 285 185 288 q 217 281 214 282 q 254 285 228 281 q 300 289 281 289 l 265 406 q 264 422 265 410 q 260 440 263 433 q 240 413 257 421 q 192 400 224 406 q 146 382 153 394 q 206 367 164 374 q 276 340 276 353 l 276 335 l 169 299 l 164 293 m 849 299 q 858 321 851 306 q 864 346 864 336 l 857 346 l 857 425 q 799 403 840 419 q 757 382 758 386 l 828 382 l 839 371 q 811 349 829 356 q 764 336 793 342 q 738 331 760 335 q 703 317 717 328 q 758 322 722 317 q 818 329 790 329 q 824 326 821 329 q 828 319 828 324 q 801 288 828 304 q 742 259 775 271 q 694 247 708 247 q 666 240 681 247 q 644 222 651 232 q 672 231 658 222 q 692 240 685 239 q 744 252 714 247 q 786 258 774 257 q 793 246 786 250 q 776 230 786 235 q 746 217 767 225 q 715 204 726 213 q 752 211 733 204 q 803 232 771 218 l 833 246 q 832 260 832 250 q 849 329 832 290 l 849 299 m 763 358 q 733 356 756 357 q 708 346 710 354 l 729 344 q 763 358 754 344 m 744 299 q 702 292 718 297 q 681 269 686 288 q 719 279 693 269 q 734 283 726 281 q 750 288 742 286 l 763 299 l 744 299 m 300 210 q 320 217 304 213 q 336 228 336 222 q 315 247 336 247 l 306 246 l 211 217 l 211 210 l 300 210 m 654 133 q 769 149 721 133 q 818 213 818 164 q 796 200 804 203 q 776 197 788 197 l 736 186 l 621 133 l 654 133 m 353 197 q 318 168 336 178 q 351 171 329 168 q 389 181 374 174 q 368 199 371 199 q 361 197 367 197 l 353 197 m 692 197 q 656 188 681 196 q 632 176 632 181 q 636 170 632 172 q 644 168 640 168 l 703 193 l 703 199 q 692 197 692 199 m 204 143 q 238 157 207 143 q 329 197 296 186 l 300 197 q 222 195 274 197 q 169 189 169 193 q 185 165 169 182 q 204 143 201 147 m 217 128 q 236 117 225 117 l 264 122 q 392 140 344 140 q 420 148 400 140 q 449 168 440 156 q 433 172 442 171 q 419 174 425 174 q 413 172 417 174 q 408 168 408 169 l 288 140 q 217 128 242 140 m 340 63 q 349 61 346 63 l 485 122 q 460 120 472 122 q 432 118 447 118 l 431 126 q 436 133 431 129 l 432 133 q 372 127 415 133 q 293 110 328 121 q 258 86 258 99 q 282 60 258 60 l 300 61 l 300 49 q 321 56 308 49 q 340 63 333 63 m 650 110 q 681 104 661 104 q 702 113 686 107 q 721 122 718 119 l 713 122 q 683 120 701 122 q 657 117 665 118 l 650 110 m 478 -4 q 633 25 553 -4 q 744 110 713 54 q 729 102 738 106 q 715 97 721 99 q 478 4 607 38 l 478 -4 m 517 106 q 495 100 506 106 q 482 93 485 94 q 467 86 479 92 q 443 81 454 81 q 487 87 463 81 q 525 104 511 93 l 517 106 m 393 14 q 446 29 407 17 q 521 57 485 42 q 557 83 557 72 q 449 61 518 83 q 401 46 426 54 q 365 32 376 38 l 360 26 q 367 17 361 19 q 385 14 374 14 l 393 14 m 608 74 l 544 44 l 549 43 q 581 52 563 43 q 614 74 600 61 l 608 74 z "},"1":{"ha":508,"x_min":60,"x_max":397,"o":"m 121 6 q 136 135 121 33 q 157 246 151 236 l 157 599 q 159 626 157 610 q 163 653 161 642 l 161 675 q 121 661 146 675 q 102 651 111 656 q 85 647 93 647 q 60 753 60 647 l 61 832 q 116 857 78 832 q 192 919 154 882 q 247 988 231 956 q 333 978 279 988 q 390 964 388 969 q 396 904 396 936 q 389 838 396 875 q 383 774 383 793 q 386 717 383 749 q 390 672 389 685 q 397 571 397 617 q 394 492 397 544 q 390 410 390 450 q 393 353 390 392 q 397 293 397 324 q 365 -17 397 -17 l 349 -11 q 242 -18 301 -11 q 144 -24 175 -24 q 125 -19 129 -24 q 121 -6 121 -15 l 121 6 m 275 958 q 263 940 269 958 q 253 911 256 922 q 325 951 307 929 q 275 958 301 958 m 351 956 q 335 940 344 956 q 318 922 325 925 l 279 903 q 222 875 249 886 l 228 874 q 290 885 249 874 q 354 897 328 897 l 360 892 l 360 922 q 353 926 357 922 q 349 935 349 931 q 350 945 349 940 q 351 956 351 950 m 103 749 q 129 759 108 751 q 163 774 150 767 q 187 794 167 775 q 224 826 207 814 q 253 839 240 839 q 300 856 269 839 q 331 881 331 874 q 254 856 313 881 q 103 774 196 831 l 103 749 m 179 869 q 146 853 172 864 q 106 831 119 842 q 93 797 93 819 l 108 797 l 215 863 q 186 857 203 863 l 179 869 m 363 865 q 294 838 351 865 q 228 799 238 811 l 264 807 q 335 828 310 817 q 363 865 360 840 m 351 810 q 256 794 318 810 q 145 751 193 778 q 97 694 97 725 q 140 708 108 694 q 200 735 171 721 q 263 761 256 761 q 320 784 289 767 q 351 810 351 801 m 342 685 q 301 648 342 671 q 228 611 261 625 q 304 628 251 611 q 325 634 313 631 q 354 640 338 638 q 351 703 354 661 q 347 765 347 735 l 349 785 q 324 773 343 782 q 294 754 306 764 l 336 749 l 336 731 q 289 708 314 724 q 251 689 275 700 q 290 692 265 689 q 329 694 315 694 q 342 685 342 694 m 294 738 q 242 726 279 738 q 204 701 204 714 l 204 617 l 238 633 q 313 679 313 669 q 251 675 285 679 q 213 671 217 671 q 226 699 213 689 q 263 715 239 708 q 285 725 275 719 q 294 738 294 731 m 192 568 q 194 530 192 558 q 199 486 196 501 l 204 486 l 313 533 q 324 544 315 539 q 336 551 333 550 q 301 546 321 551 q 276 539 282 540 q 219 526 242 526 q 211 533 211 526 q 342 617 242 586 l 349 624 q 258 602 324 621 q 192 568 192 583 m 349 604 q 297 580 326 596 q 258 551 267 564 q 305 561 261 550 q 349 575 349 572 l 349 604 m 215 474 q 218 469 215 472 q 222 467 221 467 q 277 485 239 474 q 336 503 315 497 l 349 503 q 349 505 349 503 q 350 510 350 507 q 335 524 350 524 q 289 508 322 524 q 250 490 256 493 q 215 474 236 482 m 204 454 q 197 440 197 453 l 199 431 q 329 486 243 433 q 285 478 311 486 q 254 468 258 469 q 204 454 218 457 m 204 400 q 319 418 239 400 l 349 425 l 354 486 q 258 433 349 475 q 232 421 246 428 q 204 407 218 414 l 204 400 m 199 347 q 267 373 210 347 q 329 407 325 399 q 276 399 318 407 q 244 392 271 397 q 199 386 218 386 l 199 347 m 228 335 q 285 344 238 335 q 349 360 332 354 l 349 396 q 215 336 332 392 l 228 335 m 344 342 q 260 328 310 338 q 199 313 210 318 l 199 269 l 324 324 q 335 333 326 328 q 344 342 343 338 m 329 272 q 310 256 329 264 q 270 240 292 247 q 242 229 249 232 q 215 219 232 225 q 192 210 197 214 l 204 210 q 288 221 222 210 q 354 235 354 232 l 354 319 q 297 299 342 319 q 247 269 253 279 q 318 286 293 286 q 329 272 329 286 m 199 246 q 192 235 192 246 q 226 244 203 238 q 264 258 250 250 l 199 246 m 192 186 q 179 138 179 168 q 228 147 200 138 q 264 168 256 156 l 342 204 l 336 210 l 264 199 l 264 204 q 238 196 261 201 q 192 186 214 190 m 196 104 q 290 118 232 104 q 349 147 349 132 l 349 171 l 179 106 l 196 104 m 235 49 l 235 29 l 264 42 q 260 31 264 35 q 244 24 256 28 q 228 13 232 19 l 243 13 q 303 17 265 13 q 342 25 342 21 l 342 68 q 321 52 336 58 q 300 42 306 46 l 294 49 q 317 67 303 56 q 340 88 332 78 q 349 115 347 99 q 168 78 269 78 l 157 18 l 168 6 l 235 49 z "},"2":{"ha":706,"x_min":32,"x_max":643,"o":"m 44 -37 q 37 -35 42 -37 q 32 -28 32 -32 q 36 -21 32 -25 q 181 190 140 110 q 268 349 200 231 q 316 433 276 363 q 379 557 356 504 q 392 590 392 568 q 381 667 392 617 q 351 757 371 717 q 300 797 331 797 q 233 776 267 797 q 158 724 199 756 q 124 689 135 714 q 110 669 117 675 q 92 664 104 664 q 75 731 83 686 q 66 778 71 760 q 50 814 61 797 q 55 830 50 824 q 71 844 60 836 q 92 861 82 851 q 199 949 128 922 q 353 976 271 976 q 481 928 414 976 q 589 821 547 881 q 593 792 590 814 q 613 729 596 769 q 614 704 614 729 q 603 618 614 676 l 594 579 l 529 383 q 451 253 496 324 q 386 156 407 183 q 489 160 439 156 q 590 163 553 163 q 638 150 626 163 q 636 126 636 142 q 639 72 636 108 q 643 17 643 46 q 639 -15 643 -4 q 618 -25 635 -25 q 590 -23 606 -25 q 565 -21 574 -21 q 514 -17 540 -17 q 487 -18 500 -17 q 463 -25 474 -19 q 336 -28 417 -25 q 181 -31 244 -31 l 68 -29 q 85 -14 76 -18 q 105 -7 93 -10 q 128 0 117 -4 q 185 -1 146 -1 q 307 2 243 -1 q 397 8 371 6 l 397 17 q 414 37 399 19 q 433 65 429 54 q 373 34 411 51 q 318 17 335 17 q 308 19 311 17 q 301 29 306 21 l 379 108 q 385 110 382 108 q 392 114 389 113 l 389 119 q 324 106 356 119 q 253 65 293 92 q 176 24 206 38 q 113 11 146 11 q 90 3 100 11 q 50 -36 81 -4 l 44 -37 m 340 947 q 226 928 283 947 q 140 867 168 908 q 173 874 158 867 q 213 896 188 881 q 245 915 232 908 q 272 921 258 921 l 272 915 q 313 932 285 926 q 350 946 339 938 l 340 947 m 135 808 q 156 813 147 808 q 174 826 165 818 q 200 843 190 840 q 350 874 269 863 q 392 885 368 875 q 449 896 431 896 l 450 885 q 444 879 450 881 l 374 850 l 367 843 q 413 853 376 843 q 493 868 474 868 q 504 867 501 868 q 468 885 496 885 q 455 908 468 893 q 433 922 442 922 q 426 919 431 922 q 419 915 421 915 q 403 923 415 915 q 379 939 390 931 q 367 933 372 939 q 281 897 324 918 q 190 860 228 874 q 110 838 151 846 l 135 808 m 110 724 q 174 780 136 761 q 271 817 213 799 q 343 843 321 833 q 325 850 336 850 q 224 822 306 850 q 115 778 143 793 q 108 757 108 774 q 110 724 108 733 m 529 810 q 510 781 529 793 q 456 754 490 768 q 415 735 429 743 q 401 718 401 728 q 403 713 401 714 q 427 716 413 714 q 451 718 442 718 q 513 729 474 718 q 572 739 558 739 q 555 808 572 767 q 517 850 538 850 l 415 808 q 467 815 436 808 q 517 821 500 821 q 529 810 529 821 m 350 821 q 353 810 350 813 q 364 808 356 808 q 433 832 393 808 q 385 830 404 832 q 350 821 367 828 m 386 778 q 389 759 386 771 q 392 740 392 747 q 428 758 394 740 q 488 796 461 776 l 467 797 q 417 791 447 797 q 386 778 386 785 m 576 718 q 461 671 532 697 l 428 658 q 480 664 443 658 q 547 681 517 669 q 578 706 578 692 l 576 718 m 410 692 q 411 681 410 689 q 415 671 413 674 q 517 711 454 690 l 494 713 q 410 692 413 713 m 422 592 q 519 639 443 592 q 571 668 561 664 q 518 658 554 664 q 474 649 507 656 q 415 635 440 643 l 422 592 m 589 658 q 522 622 581 644 q 422 568 446 590 l 397 503 q 540 579 490 544 q 461 571 526 576 q 545 607 515 589 q 589 658 575 625 m 482 526 q 379 472 379 479 q 466 486 421 475 q 547 514 511 497 l 547 557 l 482 526 m 325 371 q 356 365 347 365 q 504 396 415 365 q 508 431 504 419 q 519 457 511 442 q 540 497 532 472 q 481 442 506 453 l 325 371 m 356 454 q 331 396 331 404 l 338 396 q 417 430 350 396 q 493 472 485 464 q 481 475 488 475 q 406 460 457 475 q 375 453 381 453 l 356 454 m 319 360 q 289 353 310 360 q 250 272 285 351 q 206 179 208 185 l 278 210 q 310 231 286 222 q 325 237 313 232 q 343 251 338 242 q 283 246 315 246 l 268 254 q 267 256 268 254 q 265 261 265 258 q 297 294 265 276 q 389 340 329 313 q 439 365 432 358 q 407 358 428 363 q 374 353 386 354 q 347 356 364 354 q 319 360 329 358 m 343 183 q 316 150 343 167 q 231 103 289 133 l 193 83 q 140 36 174 72 q 198 54 171 42 q 265 90 225 67 q 331 125 315 118 q 338 150 331 142 l 481 353 l 481 361 q 390 319 474 361 q 296 269 306 278 l 296 263 q 328 269 304 263 q 382 281 369 281 q 399 269 399 281 q 361 232 399 256 q 279 188 324 208 q 219 168 235 168 q 188 150 201 168 q 263 172 197 160 q 343 183 328 183 m 151 83 q 222 113 168 83 q 289 161 276 143 l 281 163 q 217 146 261 163 q 169 132 183 135 l 176 119 l 164 119 l 146 83 l 151 83 m 557 132 q 522 117 540 132 q 471 67 504 101 l 433 29 l 444 29 q 560 83 493 57 q 592 99 583 93 q 601 114 601 104 q 585 127 601 122 q 557 132 568 132 m 443 121 q 429 120 438 121 q 415 117 421 119 q 403 108 410 115 q 367 74 390 97 q 338 42 344 50 l 338 36 q 374 53 351 42 q 410 72 396 64 q 436 93 417 76 q 469 110 456 110 q 463 119 469 117 q 443 121 456 121 m 517 17 q 584 12 567 17 q 608 6 601 7 q 606 22 608 13 q 604 36 604 32 q 600 64 600 49 q 601 78 600 72 q 566 51 597 74 q 517 17 535 28 z "},"3":{"ha":733,"x_min":42,"x_max":671,"o":"m 563 508 q 634 422 597 476 q 671 331 671 368 q 624 145 671 232 q 496 11 578 58 q 390 -19 464 -7 q 272 -31 317 -31 q 203 -24 242 -31 q 128 -10 164 -18 q 53 6 78 1 l 46 6 l 42 47 q 46 67 42 56 q 53 83 50 78 l 89 190 q 197 178 135 190 q 240 171 206 176 q 308 165 275 165 q 419 179 368 165 q 471 238 471 193 q 459 325 471 286 q 418 400 447 364 q 364 430 400 422 q 271 440 328 438 q 195 448 218 443 q 172 471 172 453 l 172 478 q 182 515 178 489 q 199 572 192 553 q 215 592 206 592 q 235 585 221 592 q 264 578 249 578 q 382 605 328 578 q 436 681 436 632 q 404 743 436 710 q 353 789 372 776 q 275 796 335 796 q 225 794 243 796 q 179 783 207 792 q 153 772 168 779 q 135 764 139 764 q 115 771 115 764 l 115 836 q 105 838 111 836 q 94 843 99 840 q 119 903 96 883 q 189 943 142 924 q 221 957 211 951 l 265 954 q 407 938 347 949 q 522 892 467 928 q 604 789 576 857 q 615 762 607 782 q 622 722 622 742 q 601 621 622 694 q 563 514 579 547 l 563 508 m 138 883 q 144 881 139 881 q 187 901 158 881 q 218 935 215 922 q 174 913 210 935 q 138 883 138 892 m 182 818 q 267 843 235 828 q 329 903 299 858 l 175 831 q 169 835 171 831 q 167 843 167 839 q 207 880 167 850 q 263 921 247 910 q 194 893 244 921 q 143 853 143 865 q 148 832 143 846 q 154 813 153 818 l 182 818 m 322 914 q 289 921 304 921 q 256 897 279 921 l 232 878 l 239 878 q 322 914 239 879 m 394 890 q 390 906 393 903 q 382 910 388 910 q 348 889 376 910 q 317 861 319 868 l 322 861 l 394 890 m 492 878 q 468 886 492 886 q 425 863 447 879 q 389 832 403 847 l 394 832 l 490 871 q 492 878 492 874 m 343 825 q 378 839 361 825 q 409 867 396 853 q 426 885 422 881 q 381 868 418 881 q 304 832 325 851 q 322 827 311 829 q 343 825 333 825 m 539 832 q 533 842 538 833 q 524 850 529 850 q 481 831 508 850 q 442 796 454 811 q 494 813 461 800 q 539 832 526 826 m 415 800 q 490 849 415 804 l 478 849 q 428 831 471 849 q 386 808 386 813 q 401 804 393 808 q 415 800 410 800 m 435 771 q 438 763 436 768 q 442 758 440 758 q 477 774 457 758 q 513 807 497 789 l 435 771 m 597 714 q 588 742 596 722 q 571 781 581 763 q 553 800 561 800 q 505 778 535 800 q 460 735 475 756 q 510 752 481 744 q 557 760 540 760 q 574 753 574 760 q 560 731 574 740 q 518 707 546 721 q 481 686 492 693 q 471 669 471 679 q 490 674 482 671 q 504 678 499 676 q 543 688 529 688 q 569 675 569 688 q 510 633 569 667 q 447 597 451 599 q 497 611 464 597 q 519 618 504 613 q 546 624 535 624 q 568 615 560 624 q 578 635 571 619 q 591 673 585 651 q 597 714 597 694 m 471 708 q 478 699 471 706 q 511 718 490 711 q 524 726 517 722 q 539 735 531 729 l 532 736 q 494 728 518 736 q 471 708 471 719 m 468 635 q 471 626 468 629 q 543 669 499 650 l 539 669 q 496 659 524 669 q 468 635 468 649 m 286 478 q 348 517 318 501 q 429 554 378 532 q 543 610 497 582 q 375 552 440 579 q 239 478 310 525 l 286 478 m 425 436 q 434 428 428 433 q 447 418 440 422 q 504 458 468 426 q 517 469 508 463 q 532 478 526 476 q 519 485 529 485 q 499 480 513 485 q 475 475 485 475 q 533 533 506 494 q 568 603 560 571 q 451 552 554 603 q 340 489 347 501 q 378 497 356 489 q 421 517 400 506 q 503 544 476 544 q 514 542 507 544 q 521 535 521 540 q 508 517 521 525 q 468 496 494 508 q 436 478 451 488 q 417 463 421 469 q 428 468 418 464 q 460 478 438 472 l 460 465 l 425 442 l 425 436 m 331 557 q 249 544 282 557 q 207 488 215 531 q 276 512 236 489 q 331 557 317 535 m 490 525 l 346 472 l 346 465 q 360 462 349 464 q 378 460 372 460 q 387 462 383 460 q 394 472 390 464 l 490 525 m 389 17 q 519 65 464 17 q 607 184 575 113 q 646 328 639 256 q 606 415 635 375 q 550 472 576 456 q 503 440 542 474 q 464 397 464 406 q 513 410 485 397 q 563 422 547 422 l 568 410 l 478 382 l 514 374 q 506 362 511 371 q 500 349 500 353 q 503 346 500 346 l 592 376 q 610 364 610 376 q 598 347 610 358 q 571 325 586 336 q 514 274 525 292 q 533 281 525 278 q 546 288 540 285 q 589 303 572 299 q 631 308 606 308 q 624 287 631 294 q 601 269 617 279 q 585 258 593 264 q 574 242 576 251 l 608 242 l 610 235 q 503 169 610 210 q 483 162 496 167 q 471 156 471 157 l 478 156 l 574 185 q 586 172 586 185 q 557 133 586 151 q 479 90 528 114 q 460 81 469 85 q 442 71 450 76 q 411 49 428 63 q 394 35 394 36 l 389 17 m 503 304 q 557 328 531 313 q 597 364 583 344 q 531 344 565 357 q 496 328 496 332 q 494 324 494 326 q 497 312 494 318 q 503 304 500 306 m 507 226 q 528 244 514 236 q 557 260 542 253 q 594 278 581 269 q 615 299 607 286 q 576 289 594 299 q 554 278 558 279 q 507 257 528 261 l 507 226 m 564 221 q 523 210 550 221 q 496 185 496 199 q 537 195 515 185 q 564 221 558 206 m 118 167 q 100 142 111 160 q 89 119 89 124 l 94 113 l 185 143 l 190 149 q 118 167 160 163 m 346 11 q 368 45 346 31 q 440 83 390 60 q 519 124 489 106 q 568 167 550 143 l 453 117 l 397 86 q 302 38 340 54 q 215 17 264 22 l 221 11 l 346 11 m 149 17 q 213 31 175 17 q 263 64 250 44 q 197 49 232 60 q 167 41 192 47 q 114 35 143 35 q 100 43 100 35 q 117 56 100 47 q 135 71 135 64 q 151 84 135 78 q 181 94 168 90 q 201 99 194 97 q 232 107 224 103 q 253 117 239 108 q 276 125 268 125 q 286 119 281 125 q 272 99 286 104 q 229 89 258 93 q 187 80 201 86 q 172 58 172 74 q 201 72 185 68 q 242 78 217 75 q 264 81 247 79 q 293 89 281 83 q 312 100 300 92 q 335 114 324 108 q 358 119 346 119 l 340 100 q 399 113 367 100 q 450 142 432 126 q 415 138 446 139 q 369 136 385 136 l 226 136 q 71 53 71 85 q 73 41 71 49 q 78 29 75 33 l 149 17 z "},"4":{"ha":799,"x_min":6,"x_max":750,"o":"m 372 13 q 375 133 372 67 q 378 246 378 200 q 329 247 361 247 q 222 240 281 247 q 118 235 153 235 q 6 261 6 235 l 7 269 q 299 693 164 483 q 335 763 313 715 q 367 828 354 807 q 394 862 385 846 q 417 903 404 878 q 435 935 426 925 q 463 944 444 944 q 492 940 476 944 q 506 938 496 940 q 524 936 515 936 q 556 939 542 936 q 581 942 571 942 q 599 847 599 942 q 593 804 599 822 q 607 582 601 729 q 615 407 610 465 q 633 399 618 401 q 656 396 647 396 q 694 401 669 396 q 733 407 719 407 q 750 361 750 407 l 750 343 q 740 304 749 339 q 722 269 731 269 l 608 269 q 601 178 608 251 q 593 85 593 117 l 594 42 q 576 7 594 7 q 551 8 568 8 q 492 1 526 8 q 432 -6 460 -6 q 372 13 396 -6 m 431 744 q 443 738 432 738 q 486 749 453 738 q 549 763 528 763 q 562 784 557 763 q 567 850 567 806 q 553 903 567 899 q 503 908 542 903 q 454 914 464 913 l 442 889 q 454 882 442 882 l 524 879 q 534 886 532 879 q 540 896 536 893 l 558 879 q 507 843 556 863 q 492 835 503 840 q 482 828 482 831 l 482 818 q 517 824 494 818 q 531 826 521 824 q 547 828 540 828 q 497 786 531 786 q 463 769 486 786 q 431 744 439 751 m 372 765 q 359 734 372 753 q 343 710 346 715 q 415 751 347 710 q 506 808 482 792 q 460 802 490 808 q 425 796 431 796 l 431 804 l 418 808 q 511 872 510 847 q 465 860 499 863 q 425 849 436 857 q 391 804 410 838 q 372 765 372 771 m 482 706 q 511 701 493 706 q 535 697 529 697 l 531 706 l 565 706 q 558 750 565 726 q 536 728 546 735 q 511 721 526 721 l 511 739 q 491 716 499 724 q 482 706 483 708 m 493 732 q 478 733 489 733 q 390 714 442 733 q 319 669 338 694 q 413 682 342 682 l 418 693 l 493 732 m 526 597 q 551 599 539 597 q 564 604 564 601 l 569 686 q 555 689 568 688 q 508 690 542 690 q 424 665 424 690 q 431 635 424 649 q 459 652 442 644 q 482 663 476 660 q 524 682 513 674 l 524 669 l 454 635 q 459 627 456 632 q 465 622 463 622 q 477 628 469 624 q 489 635 485 633 l 557 640 q 544 610 557 622 q 511 599 532 599 l 526 597 m 349 664 q 313 653 328 664 q 299 622 299 643 q 328 639 304 626 q 360 664 353 651 l 349 664 m 308 615 q 323 613 310 615 q 336 604 336 611 q 364 617 346 614 q 383 626 376 619 q 389 658 389 633 q 351 634 379 653 q 308 615 322 615 m 431 588 q 484 603 440 590 q 535 628 528 615 q 488 617 514 621 q 442 613 461 613 l 442 622 l 431 617 l 431 588 m 290 465 q 271 447 286 454 q 251 431 256 439 q 263 429 251 429 q 305 458 283 429 q 326 506 326 486 q 348 545 333 504 q 363 597 363 586 q 326 583 331 597 l 251 547 q 299 540 283 547 q 314 525 314 532 q 301 513 314 519 q 274 501 289 507 q 222 477 240 489 q 203 447 203 465 q 279 467 229 467 l 290 465 m 288 589 q 257 571 258 589 l 303 588 l 288 589 m 454 560 q 442 550 450 551 q 430 546 435 549 q 425 529 425 543 l 425 383 q 461 394 443 386 q 496 411 479 401 q 553 438 536 432 l 515 438 q 454 443 454 438 l 454 449 q 469 460 454 453 q 489 468 485 467 q 554 510 554 493 q 518 501 540 510 q 486 493 499 493 l 474 499 q 492 510 479 507 q 517 515 504 514 q 535 517 531 517 q 569 525 569 519 q 568 542 569 531 q 564 564 567 554 q 498 530 538 564 q 454 493 458 496 l 442 492 q 431 501 433 492 q 467 529 442 514 q 497 547 492 544 q 517 559 501 550 q 540 574 533 568 q 547 583 547 579 q 544 586 547 585 q 540 588 542 588 q 478 574 528 588 l 436 564 l 431 560 l 454 560 m 299 392 q 333 385 319 385 l 361 385 q 385 383 381 385 q 397 549 397 433 l 389 564 q 351 484 389 554 q 299 392 313 414 m 275 529 q 260 531 269 531 q 235 524 244 531 q 226 504 226 517 q 251 513 233 504 q 275 529 269 522 m 482 442 q 524 451 500 442 q 541 457 528 453 q 567 461 554 461 q 578 464 575 461 q 581 475 581 467 q 577 482 581 476 q 569 489 574 488 q 536 481 553 489 q 505 463 519 474 q 482 449 490 453 l 482 442 m 69 308 q 61 288 61 296 q 74 268 61 275 q 106 261 88 261 q 126 265 119 261 q 144 276 133 268 q 175 297 156 285 q 226 321 194 308 q 251 315 240 321 q 214 297 240 308 q 181 285 188 285 l 181 279 q 217 283 196 279 q 244 293 238 286 q 241 281 244 289 q 238 269 238 274 l 275 303 q 279 300 278 300 q 296 308 285 300 q 311 315 307 315 q 319 313 314 315 q 326 308 324 311 q 331 307 331 308 q 299 294 331 304 q 263 281 268 283 q 294 272 272 272 l 304 272 q 363 276 339 272 q 408 293 388 279 q 406 284 408 288 q 401 278 404 281 q 397 274 399 275 q 405 271 400 272 q 413 269 410 269 q 444 284 421 269 q 493 315 468 299 q 565 358 553 358 q 588 354 572 358 q 610 368 604 363 q 586 378 592 368 q 578 408 581 388 q 569 438 575 429 q 547 422 565 436 q 526 407 528 407 q 554 399 554 407 q 541 381 554 392 q 519 368 528 369 q 511 383 519 383 q 474 377 490 383 q 436 357 457 371 q 395 335 414 343 q 349 326 376 328 l 397 354 l 372 356 q 333 350 353 356 q 310 343 313 344 q 251 331 275 331 q 275 344 251 333 q 299 356 299 354 q 244 345 274 356 q 210 332 215 335 q 160 313 182 319 q 118 307 139 307 q 114 313 117 308 q 111 321 111 317 q 121 327 114 322 q 139 338 128 332 q 167 356 153 347 q 186 368 181 364 l 188 357 q 176 339 188 343 q 210 347 190 343 q 244 354 231 351 l 251 356 l 251 379 q 224 368 246 379 q 197 354 203 357 q 208 374 197 365 q 234 392 219 383 q 257 407 249 401 q 150 388 194 407 q 69 308 106 368 m 192 438 q 160 428 176 435 q 143 407 143 421 q 204 431 172 407 q 192 438 197 438 m 711 386 q 692 370 707 381 q 670 352 678 360 q 663 333 663 344 q 701 342 683 333 q 718 368 718 351 l 718 374 q 711 386 718 385 m 407 92 q 413 64 407 72 q 431 72 419 67 q 449 82 442 78 q 479 112 456 97 q 507 129 503 126 q 547 157 540 149 q 564 151 564 157 q 528 117 561 140 q 482 88 496 93 l 519 89 q 567 121 553 89 q 581 189 581 153 q 532 183 576 189 q 440 174 451 174 q 493 199 450 182 q 578 226 536 217 q 610 311 594 282 q 658 374 625 340 q 586 326 621 343 q 497 288 551 310 l 447 267 q 449 260 447 264 q 454 257 451 257 q 503 274 456 264 q 569 283 550 283 q 558 247 569 251 l 442 204 q 418 193 438 197 l 408 151 q 424 144 413 144 q 447 147 431 144 q 469 150 463 150 q 485 147 476 150 l 496 139 q 464 133 489 136 q 421 124 435 129 q 407 103 407 118 l 407 92 m 494 354 q 463 324 494 343 q 421 306 432 306 q 401 313 401 306 q 441 338 401 321 q 486 354 481 354 l 494 354 m 700 311 q 656 307 679 311 q 629 292 633 303 l 711 292 l 715 310 q 700 311 713 311 m 389 233 q 403 226 392 232 q 414 210 414 221 l 413 204 l 453 224 q 518 260 494 242 l 511 261 l 389 233 m 413 36 q 440 25 421 25 q 511 33 467 25 l 547 40 q 560 78 560 50 q 526 72 543 78 q 504 65 508 67 q 453 53 474 53 q 413 36 429 53 z "},"5":{"ha":736,"x_min":53,"x_max":676,"o":"m 668 292 q 676 260 676 281 q 644 149 676 206 q 560 49 613 92 q 454 -4 508 7 q 335 -11 424 -11 q 253 1 297 -11 q 172 13 203 13 q 149 17 158 13 q 125 31 139 21 q 90 44 106 44 l 83 43 q 59 63 65 58 q 53 68 53 68 q 63 122 54 81 q 87 201 72 163 q 118 239 101 239 l 151 222 q 208 198 156 214 q 292 182 261 182 q 400 200 346 182 q 454 264 454 218 q 424 360 454 318 q 356 403 393 403 l 350 414 q 301 421 336 415 q 183 432 221 432 q 158 428 175 432 q 131 425 140 425 q 116 427 121 425 q 111 436 111 429 q 113 449 113 442 q 110 467 113 457 q 107 489 107 478 q 122 554 107 536 q 132 579 129 564 q 138 631 135 594 q 151 757 140 697 q 153 776 153 765 q 154 799 153 788 q 188 932 154 932 q 242 924 206 924 l 281 925 q 319 926 294 926 q 367 921 349 926 q 542 926 422 926 l 629 921 l 617 913 l 629 908 q 616 890 626 896 q 593 883 606 883 q 535 900 592 900 q 492 896 513 900 q 510 888 499 893 q 531 883 522 883 q 543 885 538 883 q 525 865 543 878 q 507 844 507 851 q 517 854 510 850 q 529 858 524 858 q 535 857 532 858 q 542 856 539 856 q 551 863 546 858 q 560 868 556 867 q 566 865 563 867 q 571 860 569 863 q 542 838 564 850 q 496 817 519 826 q 442 790 453 799 q 451 807 442 797 q 461 826 460 817 q 422 801 450 813 q 367 783 393 790 q 332 775 340 776 q 390 817 367 804 q 430 835 413 829 q 451 844 447 842 q 353 824 407 839 q 283 800 300 810 q 290 783 285 790 q 314 768 294 776 q 267 753 300 768 q 207 718 235 739 q 175 681 179 697 q 243 713 203 688 q 268 726 265 725 q 367 751 293 739 q 438 769 404 760 q 483 786 472 778 q 509 799 492 793 q 536 804 526 804 q 545 797 542 804 q 557 789 549 789 q 576 814 576 789 l 583 810 l 588 814 l 588 872 q 608 879 588 879 q 619 874 617 879 q 621 858 621 869 l 621 838 q 603 761 621 761 q 597 765 600 761 q 593 769 594 768 q 518 757 581 764 q 502 756 511 756 q 485 754 493 756 q 347 736 401 749 q 292 688 292 724 q 294 642 293 676 q 304 588 296 607 q 347 589 318 589 q 523 557 443 589 q 644 456 603 525 q 656 438 650 447 q 665 417 663 428 q 668 385 668 407 l 668 292 m 197 896 q 192 881 197 893 q 188 856 188 868 q 221 862 206 856 q 239 869 236 868 q 281 887 263 881 q 332 896 300 893 l 197 896 m 224 808 q 465 892 331 829 l 386 893 l 224 808 m 188 768 q 193 767 189 767 q 230 777 206 767 q 254 792 254 788 q 220 798 244 793 q 196 806 196 803 q 205 819 196 813 q 226 831 214 825 q 244 842 231 833 q 268 860 258 850 l 188 826 l 188 768 m 182 715 l 275 765 l 268 775 q 224 756 254 765 q 182 746 193 746 l 182 715 m 257 694 q 224 685 243 694 q 188 664 204 676 l 193 658 q 213 667 196 663 q 244 676 229 671 q 263 692 258 682 l 257 694 m 221 646 q 181 639 201 646 q 161 615 161 632 q 164 604 161 608 q 193 621 179 610 q 210 633 207 632 q 217 622 211 626 q 231 617 222 617 q 246 619 236 617 q 263 622 256 622 l 263 646 q 241 638 253 646 q 221 629 229 629 l 221 646 m 217 600 q 173 589 194 600 q 151 558 151 578 q 217 600 194 578 m 269 579 q 263 600 269 599 q 224 579 260 597 q 158 542 163 551 q 186 548 171 542 q 217 561 201 554 q 269 579 250 579 m 350 558 q 295 519 350 553 q 236 483 240 486 q 291 505 240 483 q 372 542 342 526 l 379 531 q 389 545 379 539 q 408 554 399 551 q 367 560 392 560 l 350 558 m 140 525 q 138 513 138 517 q 146 483 138 506 q 161 508 147 499 q 201 529 175 518 q 233 544 222 538 q 244 558 243 550 l 140 525 m 278 542 q 276 548 278 544 q 274 554 275 551 l 193 513 l 197 501 q 242 520 207 506 q 278 542 278 535 m 396 426 q 447 449 410 432 q 507 478 483 465 q 514 476 510 476 q 531 485 521 476 q 546 494 540 494 q 560 488 557 488 l 560 507 l 518 525 q 484 535 511 528 q 438 554 457 542 q 424 532 433 540 q 397 515 414 524 q 361 489 369 501 q 365 485 363 486 q 371 483 368 483 q 411 499 386 483 q 468 518 444 518 q 482 511 482 518 q 469 489 482 489 q 465 494 467 489 q 455 478 465 486 q 425 458 444 469 q 393 432 393 440 l 396 426 m 274 451 q 304 460 290 451 q 322 485 308 474 q 358 508 336 496 q 379 525 379 521 l 339 508 q 298 491 326 503 q 244 471 269 479 l 239 472 q 227 469 235 472 q 215 465 219 465 q 207 467 210 465 q 204 478 204 469 q 216 487 204 481 q 228 501 228 493 l 151 471 l 146 471 l 135 447 q 160 451 144 447 q 188 456 175 456 l 182 447 q 203 452 190 447 q 226 457 215 457 q 251 454 235 457 q 274 451 267 451 m 315 456 q 374 442 342 442 q 406 457 386 442 q 425 485 425 472 q 367 475 406 485 q 315 456 329 465 m 588 460 q 583 473 588 468 q 571 483 578 478 q 528 451 563 479 q 501 432 503 433 q 514 426 503 426 q 559 440 531 426 q 588 460 588 453 m 418 417 q 424 410 418 413 q 435 408 431 408 q 484 433 446 408 q 522 467 522 457 q 465 444 504 467 q 418 417 426 421 m 611 447 q 564 406 594 431 q 524 373 538 386 q 511 349 511 360 q 531 356 517 349 q 572 374 536 361 q 629 403 628 394 q 624 427 629 413 q 611 447 618 442 m 449 385 q 456 363 450 378 q 465 349 463 349 q 490 363 483 356 q 499 382 496 371 q 505 397 501 392 q 518 408 508 403 l 486 400 q 454 390 460 390 l 449 385 m 465 310 q 483 304 474 304 l 549 332 q 556 341 554 332 q 565 350 558 350 l 583 349 q 591 358 586 353 q 600 367 596 364 q 579 363 596 365 q 553 358 563 361 q 542 344 543 354 l 489 326 l 483 338 q 474 324 481 332 q 465 310 467 315 m 640 311 q 636 333 639 322 q 633 349 633 344 l 621 349 l 535 310 l 531 304 l 550 303 q 575 304 561 303 q 596 307 589 306 q 640 311 619 311 m 482 244 q 496 247 488 244 q 511 250 504 250 l 511 244 q 542 263 515 251 q 576 274 569 274 l 576 283 q 518 272 554 283 q 482 244 482 261 m 593 211 q 635 236 626 225 q 643 282 643 247 q 624 273 635 282 q 606 264 613 264 q 599 265 603 264 q 593 268 594 267 l 501 222 q 481 208 493 217 q 461 193 468 199 q 414 176 458 192 q 367 135 369 161 q 436 173 404 160 q 504 186 468 186 q 546 197 513 186 q 593 211 581 210 m 471 72 q 515 92 474 74 q 593 144 556 110 q 631 213 631 179 q 537 185 608 213 q 449 142 465 158 q 438 131 439 131 q 433 135 436 131 q 425 146 429 140 q 349 92 400 135 q 300 52 319 65 q 264 39 281 39 l 263 43 q 265 48 264 44 q 268 53 267 51 l 326 93 l 326 106 q 304 93 314 93 q 343 118 317 118 l 356 142 l 346 142 q 281 101 336 142 q 204 43 225 60 q 281 18 239 26 q 361 10 322 10 q 479 38 414 10 q 571 106 544 67 q 559 101 567 103 q 547 98 551 100 q 542 89 542 96 q 474 54 511 72 q 425 32 436 36 q 418 43 418 32 q 431 60 418 53 q 453 74 444 67 q 461 97 461 81 l 432 83 q 326 36 368 53 l 315 36 q 386 81 315 39 q 507 146 457 124 q 542 168 524 153 q 560 183 551 178 q 586 190 569 189 q 538 135 588 185 q 471 72 489 86 m 122 199 q 104 149 114 189 q 94 100 94 110 l 106 113 q 131 140 106 122 q 156 161 147 153 q 164 182 164 169 q 144 192 164 186 q 122 199 125 197 m 181 178 q 166 164 178 178 q 151 146 154 150 q 122 111 126 113 q 181 138 142 119 q 221 158 221 157 q 203 164 217 158 q 181 178 189 169 m 283 153 q 256 149 269 153 q 233 142 243 144 l 250 122 q 269 140 254 132 q 283 153 283 147 m 194 43 q 188 60 194 46 q 214 83 199 72 q 239 106 235 101 l 169 71 q 156 69 165 69 q 140 79 140 69 q 163 100 140 85 q 178 112 165 103 q 197 131 190 121 q 133 108 172 131 q 88 82 93 85 l 88 76 l 164 43 l 194 43 m 343 71 q 419 122 378 108 q 385 90 410 107 q 343 71 361 72 m 53 68 z "},"6":{"ha":764,"x_min":63,"x_max":736,"o":"m 261 -6 q 144 45 188 1 q 63 167 100 89 q 88 483 63 340 q 201 718 114 625 q 234 749 213 729 q 274 785 256 769 q 322 831 290 799 q 406 904 368 879 q 428 916 415 910 q 451 928 442 922 q 464 946 460 935 q 532 902 479 940 q 585 856 585 864 q 573 838 585 844 q 546 828 561 832 q 524 821 531 824 q 372 684 431 753 q 299 526 314 615 l 321 515 q 378 522 346 515 q 432 528 414 528 q 525 515 475 528 q 601 479 575 503 q 654 444 604 478 q 736 238 704 411 q 657 70 715 121 q 554 4 599 19 q 500 -17 510 -11 q 386 -29 479 -29 q 345 -24 367 -29 q 318 -17 324 -18 q 261 -6 279 -6 m 471 910 q 449 902 461 910 q 429 886 436 894 q 454 890 439 886 q 478 893 469 893 q 476 903 478 897 q 471 910 475 910 m 471 875 q 501 853 501 875 q 500 843 501 846 q 531 857 521 857 l 531 863 q 514 876 531 865 q 492 886 497 886 q 475 882 486 886 q 458 874 464 878 l 471 875 m 232 700 q 185 633 204 672 q 165 563 165 594 q 210 576 176 565 q 270 599 243 586 q 314 628 297 611 l 225 628 q 222 631 224 628 q 219 639 219 635 q 233 658 219 651 q 275 671 247 664 q 321 685 303 678 q 346 706 339 693 l 318 707 q 285 704 307 707 q 254 701 265 701 l 254 710 q 258 722 254 718 q 274 725 261 725 q 285 718 282 725 q 307 735 292 729 q 350 746 322 740 q 392 757 378 751 q 411 772 407 763 l 406 778 l 346 767 q 335 770 336 767 q 332 775 333 774 q 354 790 332 776 q 392 813 376 803 q 453 850 450 844 l 426 851 q 392 847 404 851 q 363 826 381 842 q 297 763 336 801 q 232 700 257 725 m 447 826 q 417 806 438 819 q 393 790 396 793 l 406 789 q 449 801 431 789 q 488 838 467 814 l 483 839 q 467 832 476 839 q 451 825 457 825 q 447 826 449 825 m 326 725 q 332 720 328 722 q 339 718 336 718 q 359 723 349 718 q 369 736 369 728 l 326 725 m 318 671 q 285 660 310 671 q 256 647 261 649 l 256 640 l 314 647 q 318 671 318 661 m 293 593 q 260 582 288 593 q 232 568 232 571 l 232 563 q 255 567 239 565 q 282 576 271 569 q 293 593 293 582 m 90 194 q 109 144 90 181 q 136 108 128 108 q 204 142 153 111 l 236 158 q 208 168 236 168 q 169 161 190 168 q 133 156 144 156 q 123 158 126 156 q 115 167 119 160 l 126 179 l 211 222 l 211 242 q 182 235 199 242 q 169 231 179 233 q 151 228 160 228 l 151 235 q 176 246 158 240 q 211 251 194 251 l 211 269 q 194 261 210 269 q 133 239 179 253 q 138 235 136 239 q 140 231 140 232 q 125 222 140 222 l 108 224 q 128 252 108 242 q 170 269 147 263 q 204 281 193 276 l 163 279 q 121 276 135 276 q 117 284 121 279 q 114 292 114 289 q 151 315 117 293 q 204 336 186 336 l 231 346 q 266 358 243 350 q 301 372 289 367 q 246 368 275 372 q 210 363 217 364 q 124 353 158 353 q 118 358 121 353 q 115 365 115 363 q 125 374 117 365 q 139 383 133 383 q 278 433 278 431 q 272 440 278 436 q 260 443 265 443 q 192 433 231 443 q 126 425 147 425 l 122 431 q 147 451 128 440 q 178 469 165 463 q 197 478 192 475 q 215 487 206 482 q 235 497 225 492 l 247 510 q 206 504 233 510 q 163 497 182 497 l 157 497 q 144 506 144 497 q 158 521 144 515 q 181 526 171 526 l 253 551 l 260 557 q 139 546 214 546 q 122 494 133 521 q 103 430 110 456 q 97 378 97 404 q 90 194 97 275 m 238 479 q 183 455 211 468 q 154 438 156 442 q 217 444 183 438 q 279 461 251 450 l 279 454 q 339 468 286 460 q 429 497 429 481 q 363 486 407 494 q 269 472 301 472 q 255 476 263 472 q 238 479 247 479 m 474 479 q 444 464 463 479 q 418 438 426 449 q 454 440 446 440 q 526 450 513 447 q 560 467 539 453 q 500 486 531 486 q 489 482 493 486 q 481 478 485 478 q 474 479 476 478 m 154 372 q 176 371 154 371 q 215 376 193 371 q 243 383 229 382 l 290 386 q 346 389 328 386 q 378 399 350 390 q 411 407 406 407 l 443 411 q 482 417 467 414 q 513 431 497 421 q 501 435 508 432 q 488 438 493 438 q 432 425 467 438 q 408 418 428 424 q 371 413 389 413 q 357 419 358 413 q 374 435 364 429 q 388 443 385 442 q 418 467 410 457 q 358 444 397 461 q 327 432 350 442 q 285 419 304 422 q 221 397 268 417 q 154 376 174 376 q 147 378 150 376 l 154 372 m 593 438 q 557 429 582 438 q 524 413 532 421 l 543 413 q 608 425 588 413 q 601 433 607 429 q 593 438 596 436 m 621 401 q 637 378 626 392 q 657 364 647 364 l 663 365 l 644 401 l 638 401 l 638 407 l 621 401 m 488 389 q 524 372 510 385 q 579 403 579 381 q 488 389 549 403 m 614 389 q 582 377 607 389 q 556 360 557 365 l 592 358 q 633 368 633 358 q 625 381 632 372 q 614 389 618 389 m 399 138 q 508 173 478 138 q 538 276 538 208 q 506 348 538 324 q 428 372 474 372 q 365 354 401 372 q 301 310 329 336 q 267 258 272 283 q 265 240 265 251 q 261 222 264 229 q 267 203 263 215 q 274 192 272 192 l 303 163 q 319 154 310 160 q 346 149 329 149 l 399 138 m 279 347 q 221 324 256 333 q 194 315 217 322 q 154 293 171 307 q 196 300 172 293 q 238 306 224 306 l 279 347 m 560 342 q 565 326 560 336 q 576 317 569 317 q 632 342 590 317 q 597 344 615 342 q 572 347 578 346 q 560 342 560 347 m 664 332 q 624 320 646 332 q 596 306 601 308 l 663 306 q 665 317 663 311 q 668 328 668 322 q 664 332 668 332 m 699 239 l 699 300 l 682 300 l 682 264 q 668 281 674 267 l 590 239 l 699 239 m 571 288 q 574 265 571 278 q 581 251 576 251 q 615 266 589 251 q 644 288 640 281 l 571 288 m 579 235 q 565 190 565 228 q 624 200 590 190 q 668 228 658 210 l 579 228 l 579 235 m 310 13 q 348 3 332 6 q 383 0 364 0 q 447 6 435 0 q 462 22 454 10 q 476 43 469 35 q 494 51 483 51 l 494 60 l 478 60 q 502 83 478 76 q 544 90 526 90 q 556 87 550 90 q 561 81 561 83 q 549 65 561 78 q 542 67 546 65 q 536 72 538 69 q 511 48 535 63 q 488 29 488 33 l 488 24 q 588 59 536 24 q 663 138 640 94 l 663 143 q 606 128 647 143 q 557 110 565 113 q 483 85 497 85 q 507 103 488 94 q 567 126 526 113 l 614 143 l 626 143 l 626 150 l 549 150 l 556 156 q 603 158 567 157 q 663 170 639 158 q 688 210 688 182 l 681 210 l 579 174 l 579 179 q 572 177 576 179 q 567 174 568 175 q 486 121 524 142 q 440 90 464 108 q 382 65 440 88 l 314 36 q 352 43 333 36 q 375 51 371 50 q 432 67 408 67 l 440 65 l 429 54 q 361 32 408 44 q 310 13 314 22 m 219 203 q 184 190 214 203 q 135 167 154 178 l 142 167 q 178 174 150 168 q 225 186 206 179 l 225 192 q 219 203 225 203 m 160 96 q 212 104 185 96 q 279 132 239 113 q 272 142 276 140 q 257 144 267 144 l 249 143 l 171 108 l 160 96 m 165 78 q 268 24 235 24 q 338 56 274 24 q 411 96 403 89 l 396 97 q 317 78 369 97 q 277 65 297 71 q 240 60 257 60 l 235 60 q 225 65 226 60 q 247 85 232 78 q 285 101 263 93 q 310 114 308 110 q 165 78 238 114 m 261 76 q 357 101 294 76 q 338 106 349 104 q 324 108 328 108 l 256 78 l 261 76 m 447 60 q 464 72 453 67 l 464 60 l 447 60 z "},"7":{"ha":669,"x_min":38,"x_max":669,"o":"m 660 953 q 669 939 669 953 q 662 888 669 915 q 639 819 654 860 q 615 742 622 774 l 483 431 q 440 336 460 396 q 411 264 422 285 l 393 228 l 364 167 l 340 106 l 321 54 l 304 18 q 300 1 301 13 q 296 -18 299 -11 q 285 -29 293 -25 l 190 -31 q 94 -17 140 -31 q 88 -12 92 -15 q 82 -6 83 -8 q 101 44 83 7 q 140 122 119 81 q 200 243 181 200 q 219 306 219 286 l 268 413 l 328 640 q 356 697 332 658 q 400 761 379 735 q 307 768 369 768 l 239 767 l 232 754 q 190 767 225 761 q 133 774 156 774 q 119 769 128 774 q 106 765 111 765 l 106 771 q 81 766 99 771 q 56 761 64 761 q 38 826 38 761 l 38 935 q 43 942 38 939 q 53 946 49 946 l 263 946 q 292 935 281 938 q 325 932 304 932 l 442 933 q 621 949 535 933 q 660 953 646 953 m 76 897 q 92 899 83 897 q 107 900 100 900 q 118 899 114 900 q 147 906 131 904 q 169 910 164 908 q 187 911 175 910 q 208 915 199 913 l 161 914 q 76 928 81 914 l 76 897 m 318 911 q 258 895 301 911 q 177 860 214 879 q 140 832 140 842 l 142 826 q 203 846 167 839 q 244 854 239 853 l 285 863 q 310 886 297 885 q 303 894 303 890 q 310 901 303 899 q 318 911 318 904 m 328 879 l 353 892 l 357 890 l 357 879 q 383 888 368 883 q 406 892 397 892 l 406 899 l 344 911 l 340 910 l 328 879 m 588 899 q 456 882 526 899 q 364 843 386 865 q 471 850 438 843 q 540 874 496 858 q 603 899 583 890 l 588 899 m 597 832 q 619 858 611 832 q 628 899 628 885 q 603 877 619 885 q 558 861 588 869 q 514 843 525 850 q 522 841 517 843 q 531 838 526 839 q 542 840 535 838 q 557 842 549 842 l 561 840 q 582 837 569 840 q 597 832 594 833 m 86 825 q 124 850 96 825 q 147 868 143 867 l 183 886 l 183 893 q 122 883 167 893 q 76 867 76 874 q 79 841 76 857 q 86 825 82 825 m 328 796 q 363 802 346 796 q 382 810 379 808 q 411 821 397 818 l 308 821 q 306 825 308 822 q 304 831 304 828 q 310 840 304 833 q 321 850 317 847 q 317 853 321 851 q 311 856 314 856 q 288 832 303 856 q 268 801 272 808 q 328 796 289 796 m 206 796 q 234 801 225 796 q 254 818 243 806 q 274 838 265 831 q 188 821 249 838 q 131 808 163 814 q 159 799 133 801 q 206 796 185 796 m 543 797 l 567 808 q 526 816 558 813 q 478 821 493 819 l 442 801 l 543 797 m 572 731 q 583 761 576 736 q 592 797 590 786 l 564 789 q 514 772 533 782 q 533 769 515 772 q 550 754 550 767 q 532 742 550 747 q 472 729 514 738 q 448 724 465 728 q 424 718 431 721 q 467 714 443 718 q 490 697 490 710 q 422 676 490 683 l 393 671 q 446 656 408 671 q 483 628 483 642 q 469 610 483 615 q 424 601 454 606 q 364 581 369 596 q 426 566 399 576 q 454 540 454 556 q 419 521 454 535 q 353 503 385 507 q 359 492 354 494 q 374 490 364 490 q 406 485 386 489 q 435 479 426 482 l 435 454 q 378 443 413 446 q 346 438 368 440 q 379 422 353 428 q 403 415 396 419 q 411 397 411 410 q 393 379 411 385 q 343 371 375 374 q 300 364 315 368 q 285 350 285 360 q 308 342 288 347 q 344 332 329 338 q 364 317 358 326 q 313 297 353 297 q 281 300 294 297 l 274 293 q 321 282 296 293 q 346 258 346 271 q 307 231 346 246 q 239 215 268 215 q 278 200 249 208 q 317 186 301 194 q 297 165 317 171 q 242 154 276 158 l 214 150 q 292 138 268 138 q 321 163 314 138 l 454 461 l 465 503 l 572 731 m 447 764 l 447 775 q 434 760 438 775 q 429 742 431 744 q 474 744 457 742 q 519 754 490 746 q 478 767 511 758 l 447 764 m 388 660 q 370 639 376 660 q 364 604 364 618 q 390 613 368 608 q 458 628 438 621 l 435 647 q 410 654 425 649 q 388 660 396 660 m 360 563 q 340 549 344 563 q 335 514 335 535 q 378 526 347 521 q 435 546 414 532 q 360 563 422 563 m 321 454 q 369 456 350 454 q 406 467 388 458 q 372 481 394 475 q 332 486 350 486 l 328 485 l 321 454 m 318 419 q 304 402 311 419 q 297 375 297 385 q 342 384 311 375 q 389 401 374 393 l 382 407 q 356 413 381 407 q 318 419 331 419 m 283 336 q 276 330 279 336 q 274 317 274 324 l 317 317 l 317 326 l 288 335 q 283 336 286 336 m 263 275 q 250 239 253 264 q 291 244 265 239 q 317 260 317 249 q 281 276 317 276 l 263 275 m 208 167 q 281 179 231 167 q 256 194 276 189 q 222 199 235 199 l 208 167 m 213 132 q 190 126 196 132 q 183 101 183 121 l 281 126 q 213 132 242 132 m 292 78 q 299 110 299 96 q 256 103 282 108 q 219 96 231 99 l 214 90 l 233 92 q 292 78 272 92 m 199 78 q 160 54 169 78 l 244 72 q 222 76 238 75 q 199 78 207 76 m 196 0 q 257 13 240 0 q 285 65 274 26 q 239 60 282 65 q 196 42 196 56 q 206 34 199 39 q 219 29 214 29 q 234 35 222 29 q 250 42 246 42 q 253 40 251 42 q 256 36 256 39 q 217 22 250 22 q 163 26 178 22 q 142 29 149 29 q 138 26 139 29 q 136 21 136 24 q 196 0 136 0 z "},"8":{"ha":813,"x_min":64,"x_max":751,"o":"m 739 146 q 741 141 739 144 q 744 138 743 138 q 720 103 732 129 q 704 69 708 76 q 644 10 679 31 q 551 -29 610 -10 q 535 -35 551 -29 q 350 -40 519 -40 q 330 -35 339 -36 q 306 -29 321 -33 q 279 -15 296 -26 q 254 0 263 -3 q 119 88 175 26 q 64 231 64 150 q 75 308 64 279 q 102 360 85 331 q 122 393 119 389 q 164 442 131 408 q 203 490 199 474 q 167 524 197 496 q 115 584 136 553 q 94 642 94 615 q 100 746 94 685 q 187 856 156 822 q 267 908 218 889 q 400 926 317 926 q 546 887 479 926 q 651 791 613 847 q 690 689 690 735 q 578 507 690 631 q 670 461 631 507 q 731 349 710 415 q 751 225 751 283 q 745 180 751 208 q 739 146 739 151 m 403 894 q 381 883 389 890 q 372 874 372 876 q 388 861 385 861 q 435 874 413 864 q 463 889 458 885 q 433 892 453 890 q 403 894 413 894 m 335 883 q 279 874 303 883 q 234 851 256 864 q 203 832 213 838 l 210 831 q 224 836 222 831 l 232 832 q 292 845 239 833 q 344 869 344 857 l 343 874 q 350 883 343 882 l 335 883 m 492 883 q 473 862 490 868 q 426 853 456 856 q 389 847 400 850 q 374 836 378 844 q 419 844 389 836 q 454 850 444 850 q 483 849 469 850 q 503 847 497 847 l 503 835 q 513 842 511 835 q 519 853 515 849 q 539 860 522 858 q 513 870 528 860 q 492 883 499 881 m 551 856 q 538 833 551 842 q 510 821 525 824 l 556 821 q 558 817 556 819 q 563 814 560 814 q 578 819 568 815 q 592 825 589 822 q 571 841 583 829 q 551 856 558 853 m 133 729 l 185 757 q 173 754 182 757 q 157 751 164 751 q 153 753 156 751 q 150 757 150 756 q 174 766 157 761 q 201 776 192 771 q 214 793 210 782 q 240 803 222 799 q 264 810 257 808 q 239 799 261 808 q 217 775 217 790 q 218 769 217 771 q 282 793 236 782 l 339 814 q 331 819 335 817 q 325 821 326 821 q 310 813 321 821 q 293 804 299 804 q 287 806 290 804 q 282 810 283 808 l 275 799 q 273 800 275 799 q 271 804 271 801 q 278 816 271 811 q 293 821 285 821 l 356 850 l 343 850 q 293 836 307 850 q 235 826 269 832 q 181 814 201 819 q 160 792 174 808 q 133 769 147 775 l 133 729 m 169 729 q 215 740 179 729 q 264 751 251 751 l 238 735 q 294 768 249 735 q 356 804 343 799 q 407 811 375 811 q 441 815 424 813 q 471 825 458 818 q 456 832 468 832 q 381 826 414 832 q 335 799 349 821 q 260 769 307 789 q 214 751 211 749 l 207 763 q 190 742 206 753 q 169 729 174 732 m 515 800 q 465 793 493 800 q 472 783 468 785 q 483 781 476 781 q 533 799 526 781 l 515 800 m 606 800 q 581 792 599 800 q 556 782 563 783 q 520 778 543 781 q 482 769 497 775 l 554 769 q 601 772 582 769 l 631 776 l 606 800 m 288 667 q 300 628 288 644 q 326 601 313 613 q 343 585 339 589 q 366 571 350 578 q 392 564 382 564 q 433 590 407 564 q 467 636 458 617 q 479 706 479 665 q 467 735 479 715 q 437 769 454 754 q 403 785 419 785 q 358 773 392 785 q 324 757 325 761 l 293 707 q 290 685 293 699 q 288 667 288 672 m 646 725 q 635 757 638 738 q 594 739 619 749 q 556 729 568 729 l 567 735 l 572 751 q 570 755 572 753 q 567 757 568 757 q 492 746 513 757 l 503 725 q 526 732 511 725 q 551 739 542 739 q 542 727 551 736 q 528 714 533 718 l 544 713 l 575 714 q 604 715 585 715 l 624 714 l 646 725 m 133 689 l 214 725 q 176 721 196 725 q 156 718 169 719 q 133 717 143 717 l 133 689 m 128 658 q 177 675 139 658 q 215 703 215 692 l 214 707 q 190 690 207 696 q 153 680 174 685 q 128 672 132 675 l 128 658 m 508 676 q 559 688 532 676 q 597 703 586 699 q 595 706 597 704 q 592 707 593 707 q 554 702 579 707 q 515 693 529 697 q 508 676 508 686 m 260 693 q 217 678 249 688 q 164 657 167 664 l 185 657 l 185 650 q 201 655 189 651 q 224 661 213 658 q 229 660 226 661 q 232 657 232 658 q 261 683 261 658 l 260 693 m 665 661 q 655 674 656 664 q 653 688 654 683 q 643 693 651 693 q 586 679 638 688 q 503 657 517 671 l 524 656 q 547 658 532 656 q 574 661 563 661 q 581 660 578 661 q 583 653 583 658 l 631 653 l 631 644 q 568 632 606 644 q 541 625 561 631 q 503 619 521 619 l 567 646 l 547 646 q 506 635 519 646 q 482 603 493 625 q 449 560 464 572 q 518 572 469 560 q 567 596 567 583 q 563 601 567 597 q 556 604 558 604 q 550 601 553 603 q 544 597 547 599 l 499 600 l 499 610 q 556 613 522 610 q 615 615 592 615 q 630 619 625 615 q 642 635 635 624 q 665 661 651 653 m 260 646 q 217 635 249 646 q 181 615 185 624 q 232 619 203 615 q 271 633 261 624 q 266 640 269 636 q 260 646 263 644 m 133 632 q 139 608 133 622 l 144 619 l 179 636 l 176 636 l 150 638 q 133 632 135 638 m 144 597 q 154 582 147 589 q 169 575 161 575 q 203 587 179 575 q 243 608 226 599 q 188 606 226 608 q 144 597 149 603 m 278 604 q 236 592 271 604 q 196 571 201 579 l 214 571 q 268 576 235 571 q 301 590 301 582 q 278 604 301 596 m 539 497 q 566 540 546 513 q 594 576 586 567 q 565 563 590 576 q 528 536 539 550 l 533 529 q 510 511 526 517 q 461 499 494 506 q 397 481 422 490 q 356 450 372 471 q 357 447 356 449 q 361 444 358 444 q 457 466 379 444 q 539 497 535 488 m 260 481 q 253 472 260 475 q 242 467 247 468 q 233 464 236 465 q 221 459 231 463 q 206 451 211 456 q 201 442 201 447 q 230 453 217 447 q 254 463 243 458 q 288 476 261 465 q 333 492 314 486 q 364 497 351 497 l 381 496 q 406 500 392 496 q 419 514 419 504 l 413 514 q 381 510 410 513 l 350 507 l 344 507 q 377 519 350 511 q 407 536 404 526 l 396 533 q 381 541 390 533 q 357 549 371 549 q 353 542 356 549 q 349 536 350 536 q 338 544 338 536 q 344 560 338 549 q 340 566 343 563 q 335 571 338 569 q 308 558 328 571 q 288 538 288 544 q 296 531 288 531 l 306 531 q 317 525 313 531 q 277 512 317 519 q 236 504 238 504 q 252 496 244 504 q 260 481 260 488 m 190 549 q 202 528 190 539 q 225 518 214 518 q 255 536 232 518 q 278 563 278 554 q 228 560 249 563 q 190 549 207 558 m 488 529 l 488 518 l 503 518 q 492 540 494 524 l 454 529 l 488 529 m 583 486 q 533 453 569 472 q 503 433 506 438 q 554 445 525 433 q 583 463 583 457 q 578 469 578 467 q 582 476 578 472 q 586 481 586 479 l 583 486 m 128 138 q 144 113 140 114 q 179 126 147 115 q 221 142 199 133 q 254 160 243 150 l 246 160 q 224 154 232 160 q 236 163 228 160 q 249 168 244 165 q 254 178 254 171 q 243 201 254 201 q 219 194 233 201 q 196 188 204 188 l 196 201 q 198 195 196 199 q 203 192 200 192 q 225 207 214 192 q 236 235 236 222 q 181 222 213 235 q 128 211 147 211 l 122 211 q 111 217 113 211 q 117 224 113 221 q 124 228 122 226 q 129 226 126 228 q 133 222 132 224 q 182 233 153 231 q 232 249 215 238 q 249 297 249 261 l 218 286 q 217 289 218 288 q 214 290 215 290 q 208 289 211 290 q 203 286 204 288 q 215 297 207 293 q 226 301 224 300 q 254 318 249 310 l 235 319 q 192 314 219 319 q 151 308 167 308 q 156 319 151 315 q 169 325 161 322 q 181 329 176 328 q 186 318 186 325 q 211 324 192 318 q 249 331 231 331 l 271 329 l 275 324 q 315 374 300 374 q 320 385 315 381 q 335 396 325 390 q 354 413 347 404 q 361 433 361 421 l 339 429 l 350 422 q 337 415 347 421 q 315 410 326 410 q 317 415 315 414 q 318 418 318 417 q 313 422 318 421 q 326 432 315 426 q 339 444 338 438 q 347 463 343 457 q 356 476 351 469 q 286 467 325 476 q 232 443 247 457 q 241 447 235 443 q 254 450 247 450 l 264 444 q 275 448 268 444 q 289 451 282 451 q 307 449 301 451 q 313 439 313 447 q 282 422 313 436 q 238 404 251 407 q 223 399 232 403 q 207 393 214 394 q 216 408 210 403 q 235 420 222 414 q 254 433 249 426 q 215 424 236 426 q 180 413 193 419 q 157 388 167 407 q 203 404 193 404 q 175 389 200 400 q 147 371 147 378 l 154 371 q 200 382 167 371 q 232 392 215 388 q 264 397 249 397 q 306 388 303 397 q 264 361 296 374 q 214 349 232 349 q 208 351 211 349 q 203 354 204 353 q 238 367 218 367 l 238 378 q 190 371 226 378 q 144 358 153 364 q 110 308 124 349 q 96 242 96 268 q 106 185 96 222 q 132 149 117 149 q 149 165 136 151 q 168 178 163 178 q 166 167 168 169 q 156 160 164 164 q 144 154 149 157 q 185 157 168 154 q 224 165 203 160 q 202 148 219 153 q 158 142 185 143 q 143 140 153 142 q 128 138 133 139 m 435 444 q 456 432 440 442 q 476 422 472 422 q 502 447 486 431 q 528 472 518 463 q 482 460 507 463 q 435 444 451 454 m 676 393 q 660 429 676 414 q 621 444 643 444 q 582 421 611 444 q 528 388 547 394 l 528 381 q 547 384 535 381 q 565 388 558 388 q 539 368 554 368 q 541 350 539 360 q 544 335 543 340 q 651 404 632 376 q 599 384 621 390 q 574 376 578 378 q 602 407 582 396 q 644 418 622 418 q 655 415 650 418 q 660 404 660 411 q 646 385 660 394 q 603 360 632 376 q 561 335 574 344 q 549 318 549 326 l 583 318 l 551 301 q 563 276 561 292 q 567 250 564 260 q 574 253 569 250 q 581 256 578 256 q 592 249 585 249 q 620 258 603 249 q 643 271 638 268 q 710 301 688 299 q 693 365 701 340 l 690 358 l 690 329 l 688 324 q 682 343 682 325 q 643 306 671 324 q 613 279 624 292 l 611 288 q 618 300 611 294 q 636 312 625 306 q 651 324 647 318 q 649 327 651 325 q 646 329 647 329 q 624 326 636 329 q 604 324 611 324 q 666 372 656 363 q 676 393 676 382 m 503 404 q 506 399 504 403 q 510 393 507 394 q 541 401 526 393 q 556 424 556 410 q 551 435 556 431 q 535 428 540 428 q 524 425 529 428 q 503 404 519 422 m 393 118 q 499 141 464 118 q 539 228 533 164 q 522 314 532 282 q 487 372 511 346 q 417 418 463 397 q 371 400 390 418 q 324 346 351 382 q 288 301 301 314 q 268 251 268 301 q 277 199 268 215 q 306 168 286 183 q 328 149 324 154 q 356 133 332 147 q 393 118 381 118 m 186 276 q 152 260 186 271 q 111 247 118 250 q 114 266 111 261 q 129 275 117 271 l 122 264 q 152 270 132 264 q 185 282 172 276 l 186 276 m 601 142 q 614 153 608 142 q 624 172 619 164 q 638 179 629 179 q 631 165 635 178 q 624 149 626 151 l 631 147 q 653 157 642 147 q 671 169 665 167 q 699 181 683 178 q 717 192 713 185 q 721 228 721 199 l 719 244 q 704 239 715 239 l 699 239 q 719 256 713 243 q 685 244 707 256 q 646 232 663 232 q 640 236 640 232 q 645 249 640 244 q 660 257 650 253 q 676 265 671 261 q 682 279 682 269 q 647 263 672 272 q 622 251 635 258 q 601 233 610 244 q 631 242 626 242 q 621 228 626 239 q 610 211 615 218 l 597 211 l 597 217 q 575 196 592 210 q 556 177 563 186 q 550 149 550 168 l 572 139 q 567 131 572 138 q 561 121 561 125 q 601 113 561 113 l 601 107 q 556 92 578 103 q 529 79 533 82 q 482 57 503 64 q 483 51 483 56 q 469 35 483 44 q 454 22 456 25 l 488 33 q 477 13 488 19 q 454 1 467 6 q 435 -6 442 -3 q 458 -12 442 -12 q 574 -1 524 -12 q 646 49 624 11 q 662 67 650 56 q 676 90 674 78 l 671 90 l 597 57 q 548 35 590 54 q 492 17 506 17 q 530 53 496 38 q 624 89 564 69 q 682 110 665 103 q 699 125 699 118 l 699 132 q 675 121 686 124 q 646 118 664 118 q 658 130 650 126 q 681 136 667 133 q 708 145 700 140 q 717 165 717 150 l 704 169 l 688 154 q 608 132 628 139 q 603 128 606 131 q 597 125 600 126 q 590 138 590 125 q 601 149 590 149 l 601 142 m 203 74 l 288 125 l 275 125 q 249 118 261 125 q 254 131 249 126 q 268 138 260 135 q 282 143 276 140 l 275 149 q 215 125 261 149 q 169 93 169 101 q 181 85 169 85 q 192 86 185 85 q 203 89 200 88 q 192 81 203 81 l 203 74 m 396 -11 q 408 -6 403 -11 q 413 6 413 0 l 471 49 q 476 61 471 57 q 496 74 482 65 q 524 96 517 85 q 488 86 506 96 q 438 54 469 76 q 385 22 406 32 q 346 11 365 11 q 341 13 343 11 q 339 17 339 14 q 385 49 358 40 q 387 40 385 44 q 392 33 389 36 q 431 66 401 50 q 478 82 461 82 q 475 89 478 86 q 432 80 469 88 q 394 60 394 72 q 403 72 394 64 q 413 85 411 81 q 409 88 413 86 q 404 90 406 90 q 396 86 400 90 q 392 82 392 82 q 385 90 392 88 l 374 81 q 369 83 374 82 q 364 85 365 85 q 345 76 361 85 q 324 63 329 68 l 322 67 q 328 75 324 69 q 339 85 333 81 l 335 90 q 313 92 333 92 q 282 88 297 92 q 260 85 267 85 q 310 100 264 100 q 319 99 315 100 q 324 97 322 97 q 332 102 329 97 q 335 113 335 107 l 328 113 l 328 119 q 254 96 293 119 q 249 87 249 93 q 247 77 249 81 q 238 74 246 74 q 231 76 235 74 q 224 81 226 78 q 219 69 224 75 q 207 63 214 64 q 226 43 213 58 q 250 28 239 28 q 272 40 256 33 q 300 46 289 46 l 300 60 q 283 52 296 60 q 264 44 269 44 l 306 74 l 317 74 q 311 47 311 67 q 334 58 319 47 q 361 69 349 69 q 331 51 350 65 q 301 33 314 39 q 274 26 289 26 q 319 -1 274 10 q 396 -11 365 -11 m 394 60 m 394 60 z "},"9":{"ha":792,"x_min":36,"x_max":725,"o":"m 682 771 q 725 504 725 703 q 719 401 725 442 q 692 316 713 361 q 628 201 672 271 q 540 81 581 125 q 447 6 500 36 q 311 -43 393 -24 l 303 -44 q 274 -26 294 -44 q 246 -1 254 -7 q 208 19 243 0 q 174 51 174 38 q 181 65 174 61 q 204 74 188 69 q 221 86 221 79 q 231 102 221 94 q 255 118 242 110 q 275 131 268 126 q 369 231 329 169 q 431 358 410 293 q 403 357 422 357 q 211 398 294 357 q 82 513 128 439 q 36 686 36 588 q 42 715 36 693 q 47 747 47 738 q 140 874 85 832 q 266 931 196 917 q 438 944 336 944 q 481 929 456 944 q 521 914 506 915 l 599 860 q 635 818 608 849 q 682 771 663 788 m 435 908 q 397 899 433 907 l 360 890 l 436 890 l 449 896 q 435 908 443 904 m 544 856 q 522 876 535 867 q 497 885 508 885 q 456 868 494 885 q 407 849 424 854 q 376 836 396 846 q 424 842 390 836 q 472 849 451 849 q 488 846 478 849 q 503 843 497 843 q 528 846 513 843 q 544 856 543 849 m 233 860 q 290 854 250 854 q 324 856 318 854 q 300 833 314 840 q 258 817 286 826 q 215 800 228 808 l 288 800 l 293 794 q 256 779 281 790 q 222 764 238 768 q 242 767 229 764 q 263 771 254 771 q 272 767 267 769 q 281 764 278 764 l 293 776 q 324 793 304 788 q 379 804 344 799 q 442 819 424 813 l 324 819 l 317 824 q 340 840 328 835 q 365 849 353 846 q 381 854 376 853 q 431 872 414 863 l 401 874 q 367 870 383 874 q 340 867 350 867 l 281 872 q 257 869 272 872 q 233 865 242 865 l 233 860 m 206 856 q 192 853 201 856 q 183 847 183 851 q 186 843 183 846 q 205 847 194 843 q 222 856 215 850 l 206 856 m 174 849 l 154 843 l 174 843 l 174 849 m 568 828 q 565 838 568 832 q 560 843 563 843 q 542 832 554 843 q 521 819 531 821 l 538 818 q 568 828 568 818 m 108 788 q 124 791 114 788 q 138 794 133 794 l 251 831 l 251 838 q 197 831 228 838 q 143 824 156 824 l 108 788 m 510 783 q 546 792 519 785 q 575 807 572 799 q 522 803 556 807 q 485 800 489 800 l 485 794 q 497 788 488 793 q 510 783 506 783 m 600 789 q 533 771 572 789 l 561 771 q 622 776 600 771 q 615 787 619 785 q 600 789 610 789 m 96 771 q 89 752 93 763 q 83 735 85 742 q 128 751 96 743 q 190 776 165 760 q 149 772 168 776 q 110 769 121 769 l 96 771 m 281 549 q 364 524 297 524 q 383 525 383 524 l 454 561 q 490 624 478 574 q 503 708 503 674 q 488 749 503 726 q 454 771 472 771 l 446 769 q 426 773 438 769 q 407 776 414 776 q 304 746 346 776 q 263 653 263 715 q 256 627 263 643 q 250 607 250 611 q 258 585 250 590 q 282 578 267 579 q 304 574 297 576 l 281 549 m 544 729 q 594 742 563 729 q 635 758 626 756 l 544 758 q 534 753 540 757 q 526 747 528 750 q 533 734 526 739 q 544 729 539 729 m 676 682 q 663 714 671 685 q 656 735 660 725 q 647 747 651 746 l 539 706 q 599 703 563 706 q 656 700 635 700 q 657 692 656 697 q 658 681 658 688 q 651 669 658 671 l 533 628 q 676 621 615 628 l 676 682 m 71 694 q 73 659 71 672 q 83 633 75 646 q 124 647 92 639 q 159 658 146 653 q 179 675 172 664 q 142 668 163 675 q 108 663 117 663 q 92 665 97 663 q 88 675 88 667 q 104 691 88 683 q 153 710 121 699 l 179 718 q 201 729 185 721 q 226 740 217 738 q 171 735 203 740 q 128 729 139 731 q 78 722 93 722 l 72 718 l 71 694 m 138 686 l 143 686 q 187 694 153 686 q 233 706 221 703 l 246 729 l 138 686 m 533 675 q 539 646 533 646 l 544 646 l 647 682 q 617 690 647 686 q 565 693 586 693 q 546 687 558 693 q 533 675 533 681 m 224 671 q 172 655 210 671 q 132 633 135 639 q 224 671 224 633 m 125 496 q 149 510 135 504 q 169 519 164 517 q 205 535 192 528 q 226 556 218 543 q 182 553 213 556 q 136 549 158 549 q 108 561 115 549 q 157 590 115 571 q 197 611 183 603 q 210 626 210 619 q 83 597 83 614 q 89 585 83 588 l 119 501 l 125 496 m 658 610 q 640 608 651 608 q 596 613 619 608 q 554 615 568 615 l 526 614 q 513 574 513 610 l 533 574 l 651 603 l 658 610 m 215 579 q 213 590 215 583 q 207 597 210 597 q 176 587 194 596 q 143 568 157 578 l 210 568 q 213 573 211 569 q 215 579 215 576 m 664 358 q 679 414 669 358 q 689 499 689 469 q 688 513 689 510 l 688 525 l 676 592 q 611 574 672 592 q 563 565 589 568 q 515 557 531 561 q 485 543 499 553 q 551 546 507 543 q 625 550 585 550 q 655 547 644 550 q 665 533 665 543 q 633 514 665 524 q 543 490 601 504 q 490 476 503 481 l 640 476 q 648 474 643 476 q 653 468 653 471 q 581 449 636 457 q 514 431 528 440 l 563 431 l 563 421 l 526 424 q 467 411 488 417 q 479 400 479 411 q 472 384 479 393 q 465 369 465 375 l 472 369 l 563 394 l 568 394 l 647 418 q 610 420 643 418 q 575 431 576 422 l 647 431 l 658 418 q 619 392 644 400 q 554 378 593 383 q 503 364 514 374 l 497 358 q 544 364 519 364 l 658 364 l 664 358 m 461 496 q 368 456 436 483 q 323 435 347 446 q 269 411 299 425 q 388 435 340 424 q 478 463 436 446 l 461 463 l 460 468 q 493 497 460 489 q 557 504 526 504 l 647 538 q 588 539 606 538 l 521 540 q 442 513 458 540 q 463 501 463 513 l 461 496 m 233 532 q 188 508 199 514 q 176 501 176 501 q 210 510 186 504 q 251 519 235 515 q 239 532 251 532 l 233 532 m 174 453 q 203 464 174 454 q 288 501 278 488 q 143 476 207 501 q 163 463 154 471 q 174 453 172 454 m 314 490 q 297 488 303 490 q 288 476 290 486 q 313 481 300 476 q 329 489 325 485 l 314 490 m 206 435 q 236 422 206 422 q 289 433 263 422 q 351 463 315 443 q 376 476 360 468 l 371 478 q 333 472 351 478 q 286 456 314 467 q 256 444 282 454 q 206 435 231 435 m 413 382 q 436 403 418 382 q 467 431 457 426 l 514 442 l 514 451 l 311 399 l 303 399 q 315 388 303 390 q 369 383 328 386 q 413 382 396 383 m 461 339 q 449 304 449 322 q 524 321 474 304 q 568 333 546 329 l 640 351 q 625 349 638 351 q 586 346 613 346 l 550 351 q 461 339 536 351 m 579 208 q 608 244 593 229 q 647 295 633 274 q 660 340 660 317 l 649 339 q 602 325 649 338 q 521 304 556 313 q 526 300 522 303 q 533 297 531 297 q 551 300 539 297 q 575 304 564 303 q 590 300 581 304 q 599 289 599 296 q 521 257 574 269 q 436 244 468 244 q 494 263 456 254 q 563 286 542 271 q 529 285 557 285 q 472 297 472 285 q 458 285 467 290 q 446 279 449 281 q 420 262 429 271 q 410 232 411 253 l 436 232 l 436 219 l 425 219 q 403 216 413 219 q 389 201 394 213 l 417 201 q 478 209 431 201 q 526 221 525 217 q 521 224 525 222 q 514 225 517 225 l 508 224 l 508 238 l 563 238 q 568 225 568 238 q 553 213 568 217 q 510 204 539 208 q 456 193 472 197 q 436 178 440 189 l 376 178 q 363 172 368 178 q 349 153 357 165 q 335 136 340 140 l 344 135 q 431 149 363 135 q 526 172 500 164 q 476 177 503 176 q 449 178 449 178 l 449 185 q 504 189 476 189 q 514 185 510 189 q 524 188 518 185 q 533 190 531 190 q 550 185 543 190 q 557 171 557 181 q 508 150 557 161 q 491 145 500 147 q 472 139 482 143 l 496 139 q 497 135 497 138 q 494 126 497 131 q 490 118 492 121 l 425 100 q 440 98 426 100 q 454 86 454 96 q 426 73 454 82 q 376 64 399 64 l 299 67 l 292 71 q 287 58 292 64 q 275 51 282 51 l 467 51 q 502 76 478 51 q 549 138 526 101 q 579 208 571 175 m 288 82 l 293 94 q 335 103 315 97 q 401 113 386 113 l 407 100 q 417 115 411 111 q 433 120 424 118 q 449 124 442 122 l 428 122 q 412 125 417 122 q 407 136 407 128 q 375 123 393 128 q 340 118 357 118 q 331 122 338 118 q 324 131 325 126 l 288 100 l 288 82 m 250 38 q 271 29 250 29 q 371 35 325 29 l 261 39 q 252 38 254 39 q 250 38 250 38 m 318 -7 q 374 2 332 -7 q 418 17 417 11 q 354 13 404 17 q 311 8 333 8 q 293 10 300 8 q 299 -3 293 0 q 318 -7 306 -7 z "},"\u0000":{"ha":0,"x_min":0,"x_max":0,"o":""},"\r":{"ha":313,"x_min":0,"x_max":0,"o":""}," ":{"ha":313,"x_min":0,"x_max":0,"o":""},"A":{"ha":782,"x_min":10,"x_max":789,"o":"m 28 -3 q 15 2 21 -3 q 10 14 10 7 q 42 89 10 36 q 60 128 60 119 q 124 328 74 188 q 135 360 129 343 q 147 397 140 378 q 157 439 151 411 q 169 486 161 460 q 181 514 175 503 q 285 814 207 576 q 296 842 288 819 q 306 886 304 865 q 338 882 313 883 q 374 881 364 881 q 456 876 426 879 q 489 864 485 874 q 507 783 489 836 q 525 728 525 731 q 566 567 543 626 q 631 431 589 507 q 735 163 672 299 q 757 103 739 142 q 789 22 781 53 q 750 8 782 11 q 650 6 718 6 q 608 9 625 6 q 586 25 592 13 q 549 92 574 50 q 504 178 515 153 q 403 185 460 179 q 344 189 363 189 q 284 182 304 189 q 256 163 264 175 q 239 124 247 150 q 224 79 235 107 q 188 13 207 43 q 158 -18 168 -18 q 28 -3 107 -3 m 325 861 q 315 831 325 847 q 310 817 314 826 q 306 797 306 807 q 363 847 324 808 l 367 843 q 374 847 369 843 q 351 856 363 850 q 325 861 340 861 m 374 263 q 438 305 417 290 q 458 324 458 319 q 453 328 458 325 l 453 343 q 428 332 442 343 q 413 319 415 321 q 398 308 410 318 q 378 299 386 299 l 421 343 q 392 326 417 343 q 371 313 386 322 q 347 304 356 304 q 320 280 340 297 q 290 260 300 263 q 285 263 288 261 q 279 267 282 265 q 306 296 279 271 q 339 321 332 321 q 342 319 340 321 q 344 315 344 317 q 357 333 346 317 q 383 360 368 349 q 360 361 379 361 q 313 339 339 361 q 278 303 286 317 q 272 308 274 308 q 264 299 268 308 q 250 285 260 289 q 245 299 247 290 q 243 310 243 307 q 253 326 243 315 q 267 339 264 336 q 292 367 288 357 l 290 371 l 324 386 l 454 386 l 421 469 q 408 508 422 474 q 389 546 394 543 q 379 527 388 543 q 363 511 371 511 q 351 457 363 486 q 324 407 339 428 q 299 386 308 386 q 290 391 296 388 q 285 397 285 394 q 304 446 285 407 q 324 490 324 479 l 296 479 l 294 483 q 304 495 294 490 q 324 501 314 500 q 341 524 332 510 q 356 546 350 538 q 372 576 360 550 q 392 607 386 604 q 398 602 393 606 q 406 594 403 599 q 413 575 407 593 q 421 557 418 557 l 431 557 q 429 550 431 554 q 428 540 428 546 q 435 533 428 533 l 439 535 q 482 572 449 551 q 503 588 496 582 q 510 601 510 594 l 504 613 q 476 583 503 599 q 435 568 450 568 q 425 575 425 568 q 439 603 425 582 q 454 628 453 624 q 504 671 474 640 q 503 675 503 672 q 504 682 503 678 q 506 690 506 686 q 482 681 496 690 q 460 671 468 671 q 477 687 465 678 q 494 703 489 696 q 500 721 500 710 q 485 776 500 728 q 460 847 469 824 q 456 846 458 846 q 434 850 451 846 q 411 854 417 854 q 389 853 389 854 l 363 825 q 331 794 353 811 q 290 754 301 768 q 351 793 297 754 l 383 814 q 410 831 396 822 q 432 843 425 840 l 443 843 q 422 826 439 835 q 400 810 406 817 l 443 832 q 444 825 444 831 q 439 816 444 818 q 428 810 433 814 q 372 758 429 811 q 313 703 332 719 q 274 683 293 688 l 279 694 l 269 689 q 265 690 267 689 q 263 693 263 692 q 258 678 258 685 q 247 656 250 669 q 243 621 244 643 q 236 574 243 592 q 250 585 239 576 q 272 593 261 593 q 288 606 278 593 q 310 631 299 619 q 335 644 321 642 l 335 632 q 324 625 328 632 q 313 617 319 618 q 315 614 313 615 q 317 613 317 613 q 336 619 328 613 q 350 628 344 625 l 351 622 q 329 607 350 619 q 301 590 308 594 q 285 580 294 585 q 271 572 275 575 q 240 557 247 563 q 218 525 229 549 q 199 479 207 501 q 190 450 192 457 q 210 460 201 450 q 226 481 219 469 q 235 496 232 492 l 229 496 q 219 501 221 496 q 231 513 222 501 q 247 525 240 525 q 251 524 250 525 l 269 546 q 275 544 271 546 q 279 536 279 542 q 271 527 278 533 q 263 518 264 521 q 244 489 256 511 q 231 467 242 485 q 213 440 221 450 q 197 431 204 431 l 186 431 l 169 397 q 210 422 185 397 q 237 444 225 436 q 263 451 249 451 l 240 431 l 281 451 l 281 446 l 292 457 q 299 449 299 450 q 276 424 299 443 q 226 386 253 406 q 183 352 203 368 q 163 332 163 336 l 168 332 q 153 313 168 324 q 136 299 139 303 q 118 255 126 286 q 110 201 110 224 l 147 228 q 175 224 158 224 l 175 211 q 114 197 142 211 q 86 151 86 182 q 117 176 96 156 q 140 197 128 188 q 161 206 151 206 q 176 194 176 206 l 175 189 l 169 194 q 153 188 164 193 q 143 179 143 183 q 144 178 143 179 q 149 178 146 178 q 164 185 157 178 l 164 178 q 107 148 138 168 q 76 110 76 128 q 81 103 78 107 q 86 97 85 99 q 94 108 94 100 l 86 108 q 97 117 90 111 q 106 124 103 124 q 115 108 113 124 l 115 101 q 92 85 111 97 q 61 59 74 74 q 49 31 49 44 q 72 17 49 21 q 124 13 96 13 l 158 14 q 221 140 192 90 l 201 129 l 197 131 q 191 124 194 129 q 185 113 188 118 q 196 142 185 126 q 221 158 207 158 l 229 156 q 257 189 244 181 q 246 194 251 190 q 240 203 240 199 q 272 225 240 207 q 294 238 278 228 q 313 254 311 249 q 336 249 317 249 q 283 218 283 221 q 290 206 283 206 l 340 206 q 335 217 340 213 l 344 218 q 363 215 351 218 q 382 213 375 213 q 394 226 388 213 q 406 250 400 240 q 421 260 411 260 q 411 244 417 247 l 417 243 q 433 249 425 243 q 443 257 440 256 q 454 265 444 258 q 476 272 464 272 l 481 271 q 441 240 474 268 q 406 206 408 211 l 428 204 q 456 214 444 204 q 482 242 468 224 q 517 276 500 268 q 509 252 517 268 q 496 229 501 236 q 540 268 507 235 q 568 293 565 293 q 574 292 569 293 q 593 292 579 292 q 619 293 610 292 q 598 277 619 292 q 571 258 576 263 q 558 271 567 258 l 560 265 q 520 230 560 251 q 476 206 481 208 q 488 204 482 206 q 500 203 493 203 q 521 217 515 203 q 532 211 522 211 q 551 219 539 211 q 569 228 564 228 q 552 208 568 224 q 536 188 536 192 q 542 176 536 179 q 549 174 549 174 q 557 175 553 174 q 564 178 561 176 q 554 146 564 151 q 558 137 556 142 q 564 129 561 132 q 574 134 568 131 q 581 140 581 138 l 586 135 l 581 129 q 589 100 586 128 q 658 140 613 118 q 662 138 660 140 q 664 135 664 136 q 631 107 664 124 q 592 88 599 90 q 597 75 594 78 q 610 77 603 75 q 624 79 617 79 l 603 63 q 599 61 601 63 q 597 58 597 60 l 604 49 q 636 65 618 57 q 660 74 654 74 q 682 69 667 74 q 707 64 697 64 q 607 44 704 58 q 618 36 613 36 q 658 42 646 42 q 683 37 665 42 q 756 31 701 32 l 763 36 q 744 76 747 44 q 737 106 742 96 q 719 115 732 115 q 710 106 711 115 q 708 92 710 97 q 697 86 706 86 q 644 88 646 86 q 673 103 657 94 q 695 115 689 111 q 701 122 701 119 q 710 133 701 128 q 719 158 719 139 q 686 142 696 143 q 696 160 690 149 q 701 186 701 171 q 669 257 701 201 q 647 299 650 290 l 633 336 q 603 431 603 413 l 597 431 l 567 397 q 547 382 551 392 l 558 382 l 558 374 q 428 281 511 335 l 374 263 m 389 804 q 358 788 369 797 q 339 775 346 779 q 294 746 317 764 q 272 710 272 728 l 274 706 q 294 719 276 707 q 321 732 311 732 q 333 744 326 732 q 346 757 339 757 q 356 754 347 757 l 394 793 l 389 804 m 267 642 q 308 677 283 660 q 374 719 333 694 q 428 760 428 751 l 428 765 l 415 765 q 428 782 415 774 l 432 775 q 450 783 440 779 q 465 788 460 786 l 465 782 q 443 758 464 775 q 399 724 422 740 q 363 699 392 719 l 339 678 q 261 619 281 619 q 264 631 261 624 q 267 642 267 638 m 465 721 q 443 728 464 728 q 453 740 443 739 q 470 743 464 742 q 476 754 476 744 q 480 749 478 753 q 482 743 482 746 q 476 731 482 739 q 465 721 469 724 m 467 714 q 472 713 469 714 q 475 710 474 711 q 416 678 457 700 q 353 647 375 657 l 392 690 l 419 708 q 429 699 419 699 q 450 706 436 699 q 467 714 464 714 m 515 667 q 492 644 508 660 q 465 615 476 629 q 454 590 454 601 q 476 604 458 592 q 524 628 494 617 q 518 642 521 629 q 515 667 515 654 m 426 646 q 394 619 415 638 q 363 590 372 600 q 337 572 357 586 q 300 553 317 557 q 324 581 300 558 q 376 624 347 604 q 426 646 406 643 m 436 521 q 442 494 436 507 q 460 475 449 482 q 499 510 463 479 q 526 535 510 521 q 543 551 543 550 q 539 554 543 554 q 526 552 535 554 q 510 546 518 550 q 515 561 510 558 q 538 564 521 564 q 532 601 538 585 q 499 574 521 588 q 465 546 476 560 q 483 549 472 546 q 499 551 493 551 l 499 540 q 482 535 494 536 q 461 533 469 535 q 453 525 453 532 q 456 519 453 524 q 460 513 460 515 q 457 503 460 503 q 447 510 454 503 q 436 521 440 517 m 468 446 q 476 429 468 436 q 485 415 485 422 l 482 404 q 544 429 500 407 q 588 464 588 451 q 579 475 588 475 q 561 465 571 475 q 550 454 551 456 q 504 419 525 426 l 501 424 q 535 458 501 429 q 576 488 568 488 q 565 497 576 496 q 554 499 554 497 q 558 504 554 500 q 567 517 563 508 q 560 533 567 524 q 550 542 554 542 q 508 509 540 542 q 471 464 475 476 q 496 473 479 467 q 521 479 513 479 l 521 474 q 495 460 514 471 q 468 446 476 449 m 311 517 q 315 515 313 517 q 317 513 317 513 q 244 468 258 468 q 274 496 244 475 q 311 517 304 517 m 581 436 q 542 420 574 433 q 490 389 510 407 q 471 349 471 371 q 536 393 510 358 l 543 393 q 564 413 547 393 q 581 436 581 432 m 247 419 q 189 388 219 408 q 158 360 158 368 l 158 354 q 194 374 167 357 q 231 397 221 392 l 247 419 m 136 269 q 155 290 138 271 q 224 360 172 308 l 229 357 q 238 365 233 357 q 247 374 242 374 q 242 358 247 364 q 224 342 236 351 q 212 332 221 339 q 201 315 203 325 q 169 289 183 297 q 203 305 183 293 q 231 328 224 317 q 217 306 231 315 q 178 282 203 296 q 161 272 175 281 q 147 258 147 264 q 140 263 143 258 q 136 269 136 267 m 583 364 q 562 347 581 358 q 538 335 543 335 l 533 336 q 578 364 551 364 l 583 364 m 525 304 q 549 322 532 308 q 569 338 551 325 q 603 354 586 351 q 572 324 601 350 q 536 299 542 299 l 525 299 l 525 304 m 586 315 q 625 328 603 328 q 597 304 610 304 q 586 315 586 304 m 592 244 q 610 272 592 254 q 633 289 628 289 q 641 285 638 288 q 647 282 644 283 q 615 256 643 279 q 581 233 586 233 q 577 235 579 233 q 575 239 575 236 l 586 250 l 592 244 m 197 256 q 215 259 203 257 q 236 271 228 261 l 239 265 q 218 244 239 256 q 188 232 197 233 q 181 235 185 233 q 175 239 178 238 q 167 236 172 239 q 158 233 163 233 q 201 267 176 257 l 197 256 m 636 250 q 608 225 628 239 q 575 211 588 211 l 569 213 q 572 215 569 213 q 575 217 574 217 q 605 234 586 224 q 636 250 624 244 m 651 244 q 641 225 651 235 q 619 207 631 215 q 603 194 607 199 l 592 199 q 590 186 592 189 q 578 183 588 183 q 606 218 578 197 q 651 244 633 239 m 224 228 q 236 222 228 222 q 214 199 236 217 q 181 174 192 181 q 201 197 185 183 q 224 228 221 214 m 647 201 q 569 163 610 171 q 610 187 569 165 q 669 217 650 208 q 674 201 674 213 q 644 174 664 189 q 619 156 625 160 l 618 160 q 626 170 619 163 q 636 185 632 178 q 641 183 638 185 q 647 179 644 181 l 647 201 m 683 174 q 672 158 683 165 q 651 150 661 151 l 651 156 q 664 165 651 157 q 683 174 676 172 m 169 167 q 158 155 167 161 q 144 144 149 149 l 135 146 q 150 159 139 153 q 169 167 161 165 m 188 150 q 178 135 188 150 q 153 99 172 108 q 132 88 133 89 q 128 90 131 88 q 124 94 125 93 q 147 126 124 107 q 188 150 171 146 m 82 33 q 97 59 82 44 q 125 79 113 74 q 112 47 124 68 q 90 25 100 25 q 82 33 82 25 z "},"":{"ha":782,"x_min":10,"x_max":789,"o":"m 28 -3 q 15 2 21 -3 q 10 14 10 7 q 42 89 10 36 q 60 128 60 119 q 124 328 74 188 q 135 360 129 343 q 147 397 140 378 q 157 439 151 411 q 169 486 161 460 q 181 514 175 503 q 285 814 207 576 q 296 842 288 819 q 306 886 304 865 q 338 882 313 883 q 374 881 364 881 q 456 876 426 879 q 489 864 485 874 q 507 783 489 836 q 525 728 525 731 q 566 567 543 626 q 631 431 589 507 q 735 163 672 299 q 757 103 739 142 q 789 22 781 53 q 750 8 782 11 q 650 6 718 6 q 608 9 625 6 q 586 25 592 13 q 549 92 574 50 q 504 178 515 153 q 403 185 460 179 q 344 189 363 189 q 284 182 304 189 q 256 163 264 175 q 239 124 247 150 q 224 79 235 107 q 188 13 207 43 q 158 -18 168 -18 q 28 -3 107 -3 m 325 861 q 315 831 325 847 q 310 817 314 826 q 306 797 306 807 q 363 847 324 808 l 367 843 q 374 847 369 843 q 351 856 363 850 q 325 861 340 861 m 374 263 q 438 305 417 290 q 458 324 458 319 q 453 328 458 325 l 453 343 q 428 332 442 343 q 413 319 415 321 q 398 308 410 318 q 378 299 386 299 l 421 343 q 392 326 417 343 q 371 313 386 322 q 347 304 356 304 q 320 280 340 297 q 290 260 300 263 q 285 263 288 261 q 279 267 282 265 q 306 296 279 271 q 339 321 332 321 q 342 319 340 321 q 344 315 344 317 q 357 333 346 317 q 383 360 368 349 q 360 361 379 361 q 313 339 339 361 q 278 303 286 317 q 272 308 274 308 q 264 299 268 308 q 250 285 260 289 q 245 299 247 290 q 243 310 243 307 q 253 326 243 315 q 267 339 264 336 q 292 367 288 357 l 290 371 l 324 386 l 454 386 l 421 469 q 408 508 422 474 q 389 546 394 543 q 379 527 388 543 q 363 511 371 511 q 351 457 363 486 q 324 407 339 428 q 299 386 308 386 q 290 391 296 388 q 285 397 285 394 q 304 446 285 407 q 324 490 324 479 l 296 479 l 294 483 q 304 495 294 490 q 324 501 314 500 q 341 524 332 510 q 356 546 350 538 q 372 576 360 550 q 392 607 386 604 q 398 602 393 606 q 406 594 403 599 q 413 575 407 593 q 421 557 418 557 l 431 557 q 429 550 431 554 q 428 540 428 546 q 435 533 428 533 l 439 535 q 482 572 449 551 q 503 588 496 582 q 510 601 510 594 l 504 613 q 476 583 503 599 q 435 568 450 568 q 425 575 425 568 q 439 603 425 582 q 454 628 453 624 q 504 671 474 640 q 503 675 503 672 q 504 682 503 678 q 506 690 506 686 q 482 681 496 690 q 460 671 468 671 q 477 687 465 678 q 494 703 489 696 q 500 721 500 710 q 485 776 500 728 q 460 847 469 824 q 456 846 458 846 q 434 850 451 846 q 411 854 417 854 q 389 853 389 854 l 363 825 q 331 794 353 811 q 290 754 301 768 q 351 793 297 754 l 383 814 q 410 831 396 822 q 432 843 425 840 l 443 843 q 422 826 439 835 q 400 810 406 817 l 443 832 q 444 825 444 831 q 439 816 444 818 q 428 810 433 814 q 372 758 429 811 q 313 703 332 719 q 274 683 293 688 l 279 694 l 269 689 q 265 690 267 689 q 263 693 263 692 q 258 678 258 685 q 247 656 250 669 q 243 621 244 643 q 236 574 243 592 q 250 585 239 576 q 272 593 261 593 q 288 606 278 593 q 310 631 299 619 q 335 644 321 642 l 335 632 q 324 625 328 632 q 313 617 319 618 q 315 614 313 615 q 317 613 317 613 q 336 619 328 613 q 350 628 344 625 l 351 622 q 329 607 350 619 q 301 590 308 594 q 285 580 294 585 q 271 572 275 575 q 240 557 247 563 q 218 525 229 549 q 199 479 207 501 q 190 450 192 457 q 210 460 201 450 q 226 481 219 469 q 235 496 232 492 l 229 496 q 219 501 221 496 q 231 513 222 501 q 247 525 240 525 q 251 524 250 525 l 269 546 q 275 544 271 546 q 279 536 279 542 q 271 527 278 533 q 263 518 264 521 q 244 489 256 511 q 231 467 242 485 q 213 440 221 450 q 197 431 204 431 l 186 431 l 169 397 q 210 422 185 397 q 237 444 225 436 q 263 451 249 451 l 240 431 l 281 451 l 281 446 l 292 457 q 299 449 299 450 q 276 424 299 443 q 226 386 253 406 q 183 352 203 368 q 163 332 163 336 l 168 332 q 153 313 168 324 q 136 299 139 303 q 118 255 126 286 q 110 201 110 224 l 147 228 q 175 224 158 224 l 175 211 q 114 197 142 211 q 86 151 86 182 q 117 176 96 156 q 140 197 128 188 q 161 206 151 206 q 176 194 176 206 l 175 189 l 169 194 q 153 188 164 193 q 143 179 143 183 q 144 178 143 179 q 149 178 146 178 q 164 185 157 178 l 164 178 q 107 148 138 168 q 76 110 76 128 q 81 103 78 107 q 86 97 85 99 q 94 108 94 100 l 86 108 q 97 117 90 111 q 106 124 103 124 q 115 108 113 124 l 115 101 q 92 85 111 97 q 61 59 74 74 q 49 31 49 44 q 72 17 49 21 q 124 13 96 13 l 158 14 q 221 140 192 90 l 201 129 l 197 131 q 191 124 194 129 q 185 113 188 118 q 196 142 185 126 q 221 158 207 158 l 229 156 q 257 189 244 181 q 246 194 251 190 q 240 203 240 199 q 272 225 240 207 q 294 238 278 228 q 313 254 311 249 q 336 249 317 249 q 283 218 283 221 q 290 206 283 206 l 340 206 q 335 217 340 213 l 344 218 q 363 215 351 218 q 382 213 375 213 q 394 226 388 213 q 406 250 400 240 q 421 260 411 260 q 411 244 417 247 l 417 243 q 433 249 425 243 q 443 257 440 256 q 454 265 444 258 q 476 272 464 272 l 481 271 q 441 240 474 268 q 406 206 408 211 l 428 204 q 456 214 444 204 q 482 242 468 224 q 517 276 500 268 q 509 252 517 268 q 496 229 501 236 q 540 268 507 235 q 568 293 565 293 q 574 292 569 293 q 593 292 579 292 q 619 293 610 292 q 598 277 619 292 q 571 258 576 263 q 558 271 567 258 l 560 265 q 520 230 560 251 q 476 206 481 208 q 488 204 482 206 q 500 203 493 203 q 521 217 515 203 q 532 211 522 211 q 551 219 539 211 q 569 228 564 228 q 552 208 568 224 q 536 188 536 192 q 542 176 536 179 q 549 174 549 174 q 557 175 553 174 q 564 178 561 176 q 554 146 564 151 q 558 137 556 142 q 564 129 561 132 q 574 134 568 131 q 581 140 581 138 l 586 135 l 581 129 q 589 100 586 128 q 658 140 613 118 q 662 138 660 140 q 664 135 664 136 q 631 107 664 124 q 592 88 599 90 q 597 75 594 78 q 610 77 603 75 q 624 79 617 79 l 603 63 q 599 61 601 63 q 597 58 597 60 l 604 49 q 636 65 618 57 q 660 74 654 74 q 682 69 667 74 q 707 64 697 64 q 607 44 704 58 q 618 36 613 36 q 658 42 646 42 q 683 37 665 42 q 756 31 701 32 l 763 36 q 744 76 747 44 q 737 106 742 96 q 719 115 732 115 q 710 106 711 115 q 708 92 710 97 q 697 86 706 86 q 644 88 646 86 q 673 103 657 94 q 695 115 689 111 q 701 122 701 119 q 710 133 701 128 q 719 158 719 139 q 686 142 696 143 q 696 160 690 149 q 701 186 701 171 q 669 257 701 201 q 647 299 650 290 l 633 336 q 603 431 603 413 l 597 431 l 567 397 q 547 382 551 392 l 558 382 l 558 374 q 428 281 511 335 l 374 263 m 389 804 q 358 788 369 797 q 339 775 346 779 q 294 746 317 764 q 272 710 272 728 l 274 706 q 294 719 276 707 q 321 732 311 732 q 333 744 326 732 q 346 757 339 757 q 356 754 347 757 l 394 793 l 389 804 m 267 642 q 308 677 283 660 q 374 719 333 694 q 428 760 428 751 l 428 765 l 415 765 q 428 782 415 774 l 432 775 q 450 783 440 779 q 465 788 460 786 l 465 782 q 443 758 464 775 q 399 724 422 740 q 363 699 392 719 l 339 678 q 261 619 281 619 q 264 631 261 624 q 267 642 267 638 m 465 721 q 443 728 464 728 q 453 740 443 739 q 470 743 464 742 q 476 754 476 744 q 480 749 478 753 q 482 743 482 746 q 476 731 482 739 q 465 721 469 724 m 467 714 q 472 713 469 714 q 475 710 474 711 q 416 678 457 700 q 353 647 375 657 l 392 690 l 419 708 q 429 699 419 699 q 450 706 436 699 q 467 714 464 714 m 515 667 q 492 644 508 660 q 465 615 476 629 q 454 590 454 601 q 476 604 458 592 q 524 628 494 617 q 518 642 521 629 q 515 667 515 654 m 426 646 q 394 619 415 638 q 363 590 372 600 q 337 572 357 586 q 300 553 317 557 q 324 581 300 558 q 376 624 347 604 q 426 646 406 643 m 436 521 q 442 494 436 507 q 460 475 449 482 q 499 510 463 479 q 526 535 510 521 q 543 551 543 550 q 539 554 543 554 q 526 552 535 554 q 510 546 518 550 q 515 561 510 558 q 538 564 521 564 q 532 601 538 585 q 499 574 521 588 q 465 546 476 560 q 483 549 472 546 q 499 551 493 551 l 499 540 q 482 535 494 536 q 461 533 469 535 q 453 525 453 532 q 456 519 453 524 q 460 513 460 515 q 457 503 460 503 q 447 510 454 503 q 436 521 440 517 m 468 446 q 476 429 468 436 q 485 415 485 422 l 482 404 q 544 429 500 407 q 588 464 588 451 q 579 475 588 475 q 561 465 571 475 q 550 454 551 456 q 504 419 525 426 l 501 424 q 535 458 501 429 q 576 488 568 488 q 565 497 576 496 q 554 499 554 497 q 558 504 554 500 q 567 517 563 508 q 560 533 567 524 q 550 542 554 542 q 508 509 540 542 q 471 464 475 476 q 496 473 479 467 q 521 479 513 479 l 521 474 q 495 460 514 471 q 468 446 476 449 m 311 517 q 315 515 313 517 q 317 513 317 513 q 244 468 258 468 q 274 496 244 475 q 311 517 304 517 m 581 436 q 542 420 574 433 q 490 389 510 407 q 471 349 471 371 q 536 393 510 358 l 543 393 q 564 413 547 393 q 581 436 581 432 m 247 419 q 189 388 219 408 q 158 360 158 368 l 158 354 q 194 374 167 357 q 231 397 221 392 l 247 419 m 136 269 q 155 290 138 271 q 224 360 172 308 l 229 357 q 238 365 233 357 q 247 374 242 374 q 242 358 247 364 q 224 342 236 351 q 212 332 221 339 q 201 315 203 325 q 169 289 183 297 q 203 305 183 293 q 231 328 224 317 q 217 306 231 315 q 178 282 203 296 q 161 272 175 281 q 147 258 147 264 q 140 263 143 258 q 136 269 136 267 m 583 364 q 562 347 581 358 q 538 335 543 335 l 533 336 q 578 364 551 364 l 583 364 m 525 304 q 549 322 532 308 q 569 338 551 325 q 603 354 586 351 q 572 324 601 350 q 536 299 542 299 l 525 299 l 525 304 m 586 315 q 625 328 603 328 q 597 304 610 304 q 586 315 586 304 m 592 244 q 610 272 592 254 q 633 289 628 289 q 641 285 638 288 q 647 282 644 283 q 615 256 643 279 q 581 233 586 233 q 577 235 579 233 q 575 239 575 236 l 586 250 l 592 244 m 197 256 q 215 259 203 257 q 236 271 228 261 l 239 265 q 218 244 239 256 q 188 232 197 233 q 181 235 185 233 q 175 239 178 238 q 167 236 172 239 q 158 233 163 233 q 201 267 176 257 l 197 256 m 636 250 q 608 225 628 239 q 575 211 588 211 l 569 213 q 572 215 569 213 q 575 217 574 217 q 605 234 586 224 q 636 250 624 244 m 651 244 q 641 225 651 235 q 619 207 631 215 q 603 194 607 199 l 592 199 q 590 186 592 189 q 578 183 588 183 q 606 218 578 197 q 651 244 633 239 m 224 228 q 236 222 228 222 q 214 199 236 217 q 181 174 192 181 q 201 197 185 183 q 224 228 221 214 m 647 201 q 569 163 610 171 q 610 187 569 165 q 669 217 650 208 q 674 201 674 213 q 644 174 664 189 q 619 156 625 160 l 618 160 q 626 170 619 163 q 636 185 632 178 q 641 183 638 185 q 647 179 644 181 l 647 201 m 683 174 q 672 158 683 165 q 651 150 661 151 l 651 156 q 664 165 651 157 q 683 174 676 172 m 169 167 q 158 155 167 161 q 144 144 149 149 l 135 146 q 150 159 139 153 q 169 167 161 165 m 188 150 q 178 135 188 150 q 153 99 172 108 q 132 88 133 89 q 128 90 131 88 q 124 94 125 93 q 147 126 124 107 q 188 150 171 146 m 82 33 q 97 59 82 44 q 125 79 113 74 q 112 47 124 68 q 90 25 100 25 q 82 33 82 25 m 524 1192 q 547 1176 538 1192 q 557 1150 557 1161 l 557 1065 q 516 1021 557 1035 q 399 996 475 1007 q 326 983 350 989 q 296 968 303 978 q 266 1006 288 968 q 244 1047 244 1043 q 258 1076 244 1068 q 299 1086 272 1083 q 335 1094 325 1089 q 392 1132 350 1101 q 462 1176 433 1161 q 524 1192 490 1192 m 490 1156 q 476 1147 486 1153 q 467 1138 467 1140 q 496 1110 475 1129 q 524 1081 517 1090 l 490 1156 m 450 1126 q 431 1119 439 1126 q 454 1107 440 1113 q 475 1100 468 1101 q 467 1118 475 1110 q 450 1126 458 1126 m 413 1113 q 402 1106 410 1111 q 389 1094 394 1100 q 408 1078 396 1088 q 431 1065 421 1068 q 420 1099 426 1086 q 413 1113 414 1113 m 461 1083 q 454 1081 454 1083 q 470 1053 454 1063 q 503 1043 486 1043 q 490 1071 503 1058 q 461 1083 476 1083 m 419 1044 q 408 1061 419 1049 q 386 1074 397 1074 q 393 1050 388 1065 q 403 1035 399 1035 q 414 1038 408 1035 q 419 1044 419 1040 m 351 1067 q 339 1065 344 1067 q 328 1058 333 1064 q 345 1038 328 1049 q 378 1026 363 1026 q 369 1052 378 1038 q 351 1067 361 1067 m 333 1018 q 321 1033 331 1021 q 301 1044 311 1044 q 310 1013 301 1013 q 321 1014 314 1013 q 333 1018 328 1015 z "},"":{"ha":782,"x_min":10,"x_max":789,"o":"m 28 -3 q 15 2 21 -3 q 10 14 10 7 q 42 89 10 36 q 60 128 60 119 q 124 328 74 188 q 135 360 129 343 q 147 397 140 378 q 157 439 151 411 q 169 486 161 460 q 181 514 175 503 q 285 814 207 576 q 296 842 288 819 q 306 886 304 865 q 338 882 313 883 q 374 881 364 881 q 456 876 426 879 q 489 864 485 874 q 507 783 489 836 q 525 728 525 731 q 566 567 543 626 q 631 431 589 507 q 735 163 672 299 q 757 103 739 142 q 789 22 781 53 q 750 8 782 11 q 650 6 718 6 q 608 9 625 6 q 586 25 592 13 q 549 92 574 50 q 504 178 515 153 q 403 185 460 179 q 344 189 363 189 q 284 182 304 189 q 256 163 264 175 q 239 124 247 150 q 224 79 235 107 q 188 13 207 43 q 158 -18 168 -18 q 28 -3 107 -3 m 325 861 q 315 831 325 847 q 310 817 314 826 q 306 797 306 807 q 363 847 324 808 l 367 843 q 374 847 369 843 q 351 856 363 850 q 325 861 340 861 m 374 263 q 438 305 417 290 q 458 324 458 319 q 453 328 458 325 l 453 343 q 428 332 442 343 q 413 319 415 321 q 398 308 410 318 q 378 299 386 299 l 421 343 q 392 326 417 343 q 371 313 386 322 q 347 304 356 304 q 320 280 340 297 q 290 260 300 263 q 285 263 288 261 q 279 267 282 265 q 306 296 279 271 q 339 321 332 321 q 342 319 340 321 q 344 315 344 317 q 357 333 346 317 q 383 360 368 349 q 360 361 379 361 q 313 339 339 361 q 278 303 286 317 q 272 308 274 308 q 264 299 268 308 q 250 285 260 289 q 245 299 247 290 q 243 310 243 307 q 253 326 243 315 q 267 339 264 336 q 292 367 288 357 l 290 371 l 324 386 l 454 386 l 421 469 q 408 508 422 474 q 389 546 394 543 q 379 527 388 543 q 363 511 371 511 q 351 457 363 486 q 324 407 339 428 q 299 386 308 386 q 290 391 296 388 q 285 397 285 394 q 304 446 285 407 q 324 490 324 479 l 296 479 l 294 483 q 304 495 294 490 q 324 501 314 500 q 341 524 332 510 q 356 546 350 538 q 372 576 360 550 q 392 607 386 604 q 398 602 393 606 q 406 594 403 599 q 413 575 407 593 q 421 557 418 557 l 431 557 q 429 550 431 554 q 428 540 428 546 q 435 533 428 533 l 439 535 q 482 572 449 551 q 503 588 496 582 q 510 601 510 594 l 504 613 q 476 583 503 599 q 435 568 450 568 q 425 575 425 568 q 439 603 425 582 q 454 628 453 624 q 504 671 474 640 q 503 675 503 672 q 504 682 503 678 q 506 690 506 686 q 482 681 496 690 q 460 671 468 671 q 477 687 465 678 q 494 703 489 696 q 500 721 500 710 q 485 776 500 728 q 460 847 469 824 q 456 846 458 846 q 434 850 451 846 q 411 854 417 854 q 389 853 389 854 l 363 825 q 331 794 353 811 q 290 754 301 768 q 351 793 297 754 l 383 814 q 410 831 396 822 q 432 843 425 840 l 443 843 q 422 826 439 835 q 400 810 406 817 l 443 832 q 444 825 444 831 q 439 816 444 818 q 428 810 433 814 q 372 758 429 811 q 313 703 332 719 q 274 683 293 688 l 279 694 l 269 689 q 265 690 267 689 q 263 693 263 692 q 258 678 258 685 q 247 656 250 669 q 243 621 244 643 q 236 574 243 592 q 250 585 239 576 q 272 593 261 593 q 288 606 278 593 q 310 631 299 619 q 335 644 321 642 l 335 632 q 324 625 328 632 q 313 617 319 618 q 315 614 313 615 q 317 613 317 613 q 336 619 328 613 q 350 628 344 625 l 351 622 q 329 607 350 619 q 301 590 308 594 q 285 580 294 585 q 271 572 275 575 q 240 557 247 563 q 218 525 229 549 q 199 479 207 501 q 190 450 192 457 q 210 460 201 450 q 226 481 219 469 q 235 496 232 492 l 229 496 q 219 501 221 496 q 231 513 222 501 q 247 525 240 525 q 251 524 250 525 l 269 546 q 275 544 271 546 q 279 536 279 542 q 271 527 278 533 q 263 518 264 521 q 244 489 256 511 q 231 467 242 485 q 213 440 221 450 q 197 431 204 431 l 186 431 l 169 397 q 210 422 185 397 q 237 444 225 436 q 263 451 249 451 l 240 431 l 281 451 l 281 446 l 292 457 q 299 449 299 450 q 276 424 299 443 q 226 386 253 406 q 183 352 203 368 q 163 332 163 336 l 168 332 q 153 313 168 324 q 136 299 139 303 q 118 255 126 286 q 110 201 110 224 l 147 228 q 175 224 158 224 l 175 211 q 114 197 142 211 q 86 151 86 182 q 117 176 96 156 q 140 197 128 188 q 161 206 151 206 q 176 194 176 206 l 175 189 l 169 194 q 153 188 164 193 q 143 179 143 183 q 144 178 143 179 q 149 178 146 178 q 164 185 157 178 l 164 178 q 107 148 138 168 q 76 110 76 128 q 81 103 78 107 q 86 97 85 99 q 94 108 94 100 l 86 108 q 97 117 90 111 q 106 124 103 124 q 115 108 113 124 l 115 101 q 92 85 111 97 q 61 59 74 74 q 49 31 49 44 q 72 17 49 21 q 124 13 96 13 l 158 14 q 221 140 192 90 l 201 129 l 197 131 q 191 124 194 129 q 185 113 188 118 q 196 142 185 126 q 221 158 207 158 l 229 156 q 257 189 244 181 q 246 194 251 190 q 240 203 240 199 q 272 225 240 207 q 294 238 278 228 q 313 254 311 249 q 336 249 317 249 q 283 218 283 221 q 290 206 283 206 l 340 206 q 335 217 340 213 l 344 218 q 363 215 351 218 q 382 213 375 213 q 394 226 388 213 q 406 250 400 240 q 421 260 411 260 q 411 244 417 247 l 417 243 q 433 249 425 243 q 443 257 440 256 q 454 265 444 258 q 476 272 464 272 l 481 271 q 441 240 474 268 q 406 206 408 211 l 428 204 q 456 214 444 204 q 482 242 468 224 q 517 276 500 268 q 509 252 517 268 q 496 229 501 236 q 540 268 507 235 q 568 293 565 293 q 574 292 569 293 q 593 292 579 292 q 619 293 610 292 q 598 277 619 292 q 571 258 576 263 q 558 271 567 258 l 560 265 q 520 230 560 251 q 476 206 481 208 q 488 204 482 206 q 500 203 493 203 q 521 217 515 203 q 532 211 522 211 q 551 219 539 211 q 569 228 564 228 q 552 208 568 224 q 536 188 536 192 q 542 176 536 179 q 549 174 549 174 q 557 175 553 174 q 564 178 561 176 q 554 146 564 151 q 558 137 556 142 q 564 129 561 132 q 574 134 568 131 q 581 140 581 138 l 586 135 l 581 129 q 589 100 586 128 q 658 140 613 118 q 662 138 660 140 q 664 135 664 136 q 631 107 664 124 q 592 88 599 90 q 597 75 594 78 q 610 77 603 75 q 624 79 617 79 l 603 63 q 599 61 601 63 q 597 58 597 60 l 604 49 q 636 65 618 57 q 660 74 654 74 q 682 69 667 74 q 707 64 697 64 q 607 44 704 58 q 618 36 613 36 q 658 42 646 42 q 683 37 665 42 q 756 31 701 32 l 763 36 q 744 76 747 44 q 737 106 742 96 q 719 115 732 115 q 710 106 711 115 q 708 92 710 97 q 697 86 706 86 q 644 88 646 86 q 673 103 657 94 q 695 115 689 111 q 701 122 701 119 q 710 133 701 128 q 719 158 719 139 q 686 142 696 143 q 696 160 690 149 q 701 186 701 171 q 669 257 701 201 q 647 299 650 290 l 633 336 q 603 431 603 413 l 597 431 l 567 397 q 547 382 551 392 l 558 382 l 558 374 q 428 281 511 335 l 374 263 m 389 804 q 358 788 369 797 q 339 775 346 779 q 294 746 317 764 q 272 710 272 728 l 274 706 q 294 719 276 707 q 321 732 311 732 q 333 744 326 732 q 346 757 339 757 q 356 754 347 757 l 394 793 l 389 804 m 267 642 q 308 677 283 660 q 374 719 333 694 q 428 760 428 751 l 428 765 l 415 765 q 428 782 415 774 l 432 775 q 450 783 440 779 q 465 788 460 786 l 465 782 q 443 758 464 775 q 399 724 422 740 q 363 699 392 719 l 339 678 q 261 619 281 619 q 264 631 261 624 q 267 642 267 638 m 465 721 q 443 728 464 728 q 453 740 443 739 q 470 743 464 742 q 476 754 476 744 q 480 749 478 753 q 482 743 482 746 q 476 731 482 739 q 465 721 469 724 m 467 714 q 472 713 469 714 q 475 710 474 711 q 416 678 457 700 q 353 647 375 657 l 392 690 l 419 708 q 429 699 419 699 q 450 706 436 699 q 467 714 464 714 m 515 667 q 492 644 508 660 q 465 615 476 629 q 454 590 454 601 q 476 604 458 592 q 524 628 494 617 q 518 642 521 629 q 515 667 515 654 m 426 646 q 394 619 415 638 q 363 590 372 600 q 337 572 357 586 q 300 553 317 557 q 324 581 300 558 q 376 624 347 604 q 426 646 406 643 m 436 521 q 442 494 436 507 q 460 475 449 482 q 499 510 463 479 q 526 535 510 521 q 543 551 543 550 q 539 554 543 554 q 526 552 535 554 q 510 546 518 550 q 515 561 510 558 q 538 564 521 564 q 532 601 538 585 q 499 574 521 588 q 465 546 476 560 q 483 549 472 546 q 499 551 493 551 l 499 540 q 482 535 494 536 q 461 533 469 535 q 453 525 453 532 q 456 519 453 524 q 460 513 460 515 q 457 503 460 503 q 447 510 454 503 q 436 521 440 517 m 468 446 q 476 429 468 436 q 485 415 485 422 l 482 404 q 544 429 500 407 q 588 464 588 451 q 579 475 588 475 q 561 465 571 475 q 550 454 551 456 q 504 419 525 426 l 501 424 q 535 458 501 429 q 576 488 568 488 q 565 497 576 496 q 554 499 554 497 q 558 504 554 500 q 567 517 563 508 q 560 533 567 524 q 550 542 554 542 q 508 509 540 542 q 471 464 475 476 q 496 473 479 467 q 521 479 513 479 l 521 474 q 495 460 514 471 q 468 446 476 449 m 311 517 q 315 515 313 517 q 317 513 317 513 q 244 468 258 468 q 274 496 244 475 q 311 517 304 517 m 581 436 q 542 420 574 433 q 490 389 510 407 q 471 349 471 371 q 536 393 510 358 l 543 393 q 564 413 547 393 q 581 436 581 432 m 247 419 q 189 388 219 408 q 158 360 158 368 l 158 354 q 194 374 167 357 q 231 397 221 392 l 247 419 m 136 269 q 155 290 138 271 q 224 360 172 308 l 229 357 q 238 365 233 357 q 247 374 242 374 q 242 358 247 364 q 224 342 236 351 q 212 332 221 339 q 201 315 203 325 q 169 289 183 297 q 203 305 183 293 q 231 328 224 317 q 217 306 231 315 q 178 282 203 296 q 161 272 175 281 q 147 258 147 264 q 140 263 143 258 q 136 269 136 267 m 583 364 q 562 347 581 358 q 538 335 543 335 l 533 336 q 578 364 551 364 l 583 364 m 525 304 q 549 322 532 308 q 569 338 551 325 q 603 354 586 351 q 572 324 601 350 q 536 299 542 299 l 525 299 l 525 304 m 586 315 q 625 328 603 328 q 597 304 610 304 q 586 315 586 304 m 592 244 q 610 272 592 254 q 633 289 628 289 q 641 285 638 288 q 647 282 644 283 q 615 256 643 279 q 581 233 586 233 q 577 235 579 233 q 575 239 575 236 l 586 250 l 592 244 m 197 256 q 215 259 203 257 q 236 271 228 261 l 239 265 q 218 244 239 256 q 188 232 197 233 q 181 235 185 233 q 175 239 178 238 q 167 236 172 239 q 158 233 163 233 q 201 267 176 257 l 197 256 m 636 250 q 608 225 628 239 q 575 211 588 211 l 569 213 q 572 215 569 213 q 575 217 574 217 q 605 234 586 224 q 636 250 624 244 m 651 244 q 641 225 651 235 q 619 207 631 215 q 603 194 607 199 l 592 199 q 590 186 592 189 q 578 183 588 183 q 606 218 578 197 q 651 244 633 239 m 224 228 q 236 222 228 222 q 214 199 236 217 q 181 174 192 181 q 201 197 185 183 q 224 228 221 214 m 647 201 q 569 163 610 171 q 610 187 569 165 q 669 217 650 208 q 674 201 674 213 q 644 174 664 189 q 619 156 625 160 l 618 160 q 626 170 619 163 q 636 185 632 178 q 641 183 638 185 q 647 179 644 181 l 647 201 m 683 174 q 672 158 683 165 q 651 150 661 151 l 651 156 q 664 165 651 157 q 683 174 676 172 m 169 167 q 158 155 167 161 q 144 144 149 149 l 135 146 q 150 159 139 153 q 169 167 161 165 m 188 150 q 178 135 188 150 q 153 99 172 108 q 132 88 133 89 q 128 90 131 88 q 124 94 125 93 q 147 126 124 107 q 188 150 171 146 m 82 33 q 97 59 82 44 q 125 79 113 74 q 112 47 124 68 q 90 25 100 25 q 82 33 82 25 m 383 1018 q 310 989 353 1011 q 274 974 303 986 q 250 967 267 971 q 224 957 233 964 q 199 988 206 965 q 192 1035 192 1011 q 207 1067 192 1053 q 253 1099 222 1081 q 300 1133 289 1119 q 372 1154 322 1142 l 379 1156 q 506 1093 406 1156 l 531 1078 q 581 1053 567 1067 q 607 1035 594 1039 q 599 996 604 1032 q 588 946 593 946 q 547 956 575 950 q 465 985 489 969 q 431 996 458 990 q 383 1018 390 1004 m 361 1122 q 274 1072 304 1096 q 330 1091 299 1072 q 361 1122 361 1110 m 388 1111 q 354 1050 354 1071 q 390 1072 367 1054 q 422 1100 413 1089 q 405 1115 418 1107 q 383 1122 392 1122 l 388 1111 m 449 1089 q 442 1078 442 1086 l 456 1078 q 449 1089 456 1086 m 344 1078 q 276 1053 301 1071 q 250 996 250 1035 q 278 1006 260 1001 q 300 1013 296 1011 q 330 1041 315 1018 q 344 1078 344 1064 m 449 1035 q 456 1026 451 1032 q 464 1017 461 1021 q 503 1061 489 1038 q 485 1065 492 1061 q 469 1068 478 1068 l 449 1035 m 400 1063 q 394 1051 400 1060 q 389 1040 389 1043 l 406 1056 l 400 1063 m 426 1029 q 432 1042 425 1031 q 440 1057 439 1054 q 425 1050 436 1056 q 411 1039 414 1044 l 426 1029 m 218 1026 q 228 1011 218 1011 q 231 1028 228 1019 q 235 1051 235 1038 q 226 1038 233 1043 q 218 1026 218 1033 m 526 1047 q 511 1042 514 1047 q 508 1018 508 1036 q 518 1032 510 1024 q 526 1047 526 1040 m 531 1001 q 564 994 544 994 q 556 1029 564 1029 q 542 1017 550 1029 q 531 1001 535 1006 m 503 1001 q 525 1008 513 1001 q 538 1025 538 1015 q 515 1017 528 1025 q 497 1007 503 1010 l 503 1001 z "},"":{"ha":782,"x_min":10,"x_max":789,"o":"m 28 -3 q 15 2 21 -3 q 10 14 10 7 q 42 89 10 36 q 60 128 60 119 q 124 328 74 188 q 135 360 129 343 q 147 397 140 378 q 157 439 151 411 q 169 486 161 460 q 181 514 175 503 q 285 814 207 576 q 296 842 288 819 q 306 886 304 865 q 338 882 313 883 q 374 881 364 881 q 456 876 426 879 q 489 864 485 874 q 507 783 489 836 q 525 728 525 731 q 566 567 543 626 q 631 431 589 507 q 735 163 672 299 q 757 103 739 142 q 789 22 781 53 q 750 8 782 11 q 650 6 718 6 q 608 9 625 6 q 586 25 592 13 q 549 92 574 50 q 504 178 515 153 q 403 185 460 179 q 344 189 363 189 q 284 182 304 189 q 256 163 264 175 q 239 124 247 150 q 224 79 235 107 q 188 13 207 43 q 158 -18 168 -18 q 28 -3 107 -3 m 325 861 q 315 831 325 847 q 310 817 314 826 q 306 797 306 807 q 363 847 324 808 l 367 843 q 374 847 369 843 q 351 856 363 850 q 325 861 340 861 m 374 263 q 438 305 417 290 q 458 324 458 319 q 453 328 458 325 l 453 343 q 428 332 442 343 q 413 319 415 321 q 398 308 410 318 q 378 299 386 299 l 421 343 q 392 326 417 343 q 371 313 386 322 q 347 304 356 304 q 320 280 340 297 q 290 260 300 263 q 285 263 288 261 q 279 267 282 265 q 306 296 279 271 q 339 321 332 321 q 342 319 340 321 q 344 315 344 317 q 357 333 346 317 q 383 360 368 349 q 360 361 379 361 q 313 339 339 361 q 278 303 286 317 q 272 308 274 308 q 264 299 268 308 q 250 285 260 289 q 245 299 247 290 q 243 310 243 307 q 253 326 243 315 q 267 339 264 336 q 292 367 288 357 l 290 371 l 324 386 l 454 386 l 421 469 q 408 508 422 474 q 389 546 394 543 q 379 527 388 543 q 363 511 371 511 q 351 457 363 486 q 324 407 339 428 q 299 386 308 386 q 290 391 296 388 q 285 397 285 394 q 304 446 285 407 q 324 490 324 479 l 296 479 l 294 483 q 304 495 294 490 q 324 501 314 500 q 341 524 332 510 q 356 546 350 538 q 372 576 360 550 q 392 607 386 604 q 398 602 393 606 q 406 594 403 599 q 413 575 407 593 q 421 557 418 557 l 431 557 q 429 550 431 554 q 428 540 428 546 q 435 533 428 533 l 439 535 q 482 572 449 551 q 503 588 496 582 q 510 601 510 594 l 504 613 q 476 583 503 599 q 435 568 450 568 q 425 575 425 568 q 439 603 425 582 q 454 628 453 624 q 504 671 474 640 q 503 675 503 672 q 504 682 503 678 q 506 690 506 686 q 482 681 496 690 q 460 671 468 671 q 477 687 465 678 q 494 703 489 696 q 500 721 500 710 q 485 776 500 728 q 460 847 469 824 q 456 846 458 846 q 434 850 451 846 q 411 854 417 854 q 389 853 389 854 l 363 825 q 331 794 353 811 q 290 754 301 768 q 351 793 297 754 l 383 814 q 410 831 396 822 q 432 843 425 840 l 443 843 q 422 826 439 835 q 400 810 406 817 l 443 832 q 444 825 444 831 q 439 816 444 818 q 428 810 433 814 q 372 758 429 811 q 313 703 332 719 q 274 683 293 688 l 279 694 l 269 689 q 265 690 267 689 q 263 693 263 692 q 258 678 258 685 q 247 656 250 669 q 243 621 244 643 q 236 574 243 592 q 250 585 239 576 q 272 593 261 593 q 288 606 278 593 q 310 631 299 619 q 335 644 321 642 l 335 632 q 324 625 328 632 q 313 617 319 618 q 315 614 313 615 q 317 613 317 613 q 336 619 328 613 q 350 628 344 625 l 351 622 q 329 607 350 619 q 301 590 308 594 q 285 580 294 585 q 271 572 275 575 q 240 557 247 563 q 218 525 229 549 q 199 479 207 501 q 190 450 192 457 q 210 460 201 450 q 226 481 219 469 q 235 496 232 492 l 229 496 q 219 501 221 496 q 231 513 222 501 q 247 525 240 525 q 251 524 250 525 l 269 546 q 275 544 271 546 q 279 536 279 542 q 271 527 278 533 q 263 518 264 521 q 244 489 256 511 q 231 467 242 485 q 213 440 221 450 q 197 431 204 431 l 186 431 l 169 397 q 210 422 185 397 q 237 444 225 436 q 263 451 249 451 l 240 431 l 281 451 l 281 446 l 292 457 q 299 449 299 450 q 276 424 299 443 q 226 386 253 406 q 183 352 203 368 q 163 332 163 336 l 168 332 q 153 313 168 324 q 136 299 139 303 q 118 255 126 286 q 110 201 110 224 l 147 228 q 175 224 158 224 l 175 211 q 114 197 142 211 q 86 151 86 182 q 117 176 96 156 q 140 197 128 188 q 161 206 151 206 q 176 194 176 206 l 175 189 l 169 194 q 153 188 164 193 q 143 179 143 183 q 144 178 143 179 q 149 178 146 178 q 164 185 157 178 l 164 178 q 107 148 138 168 q 76 110 76 128 q 81 103 78 107 q 86 97 85 99 q 94 108 94 100 l 86 108 q 97 117 90 111 q 106 124 103 124 q 115 108 113 124 l 115 101 q 92 85 111 97 q 61 59 74 74 q 49 31 49 44 q 72 17 49 21 q 124 13 96 13 l 158 14 q 221 140 192 90 l 201 129 l 197 131 q 191 124 194 129 q 185 113 188 118 q 196 142 185 126 q 221 158 207 158 l 229 156 q 257 189 244 181 q 246 194 251 190 q 240 203 240 199 q 272 225 240 207 q 294 238 278 228 q 313 254 311 249 q 336 249 317 249 q 283 218 283 221 q 290 206 283 206 l 340 206 q 335 217 340 213 l 344 218 q 363 215 351 218 q 382 213 375 213 q 394 226 388 213 q 406 250 400 240 q 421 260 411 260 q 411 244 417 247 l 417 243 q 433 249 425 243 q 443 257 440 256 q 454 265 444 258 q 476 272 464 272 l 481 271 q 441 240 474 268 q 406 206 408 211 l 428 204 q 456 214 444 204 q 482 242 468 224 q 517 276 500 268 q 509 252 517 268 q 496 229 501 236 q 540 268 507 235 q 568 293 565 293 q 574 292 569 293 q 593 292 579 292 q 619 293 610 292 q 598 277 619 292 q 571 258 576 263 q 558 271 567 258 l 560 265 q 520 230 560 251 q 476 206 481 208 q 488 204 482 206 q 500 203 493 203 q 521 217 515 203 q 532 211 522 211 q 551 219 539 211 q 569 228 564 228 q 552 208 568 224 q 536 188 536 192 q 542 176 536 179 q 549 174 549 174 q 557 175 553 174 q 564 178 561 176 q 554 146 564 151 q 558 137 556 142 q 564 129 561 132 q 574 134 568 131 q 581 140 581 138 l 586 135 l 581 129 q 589 100 586 128 q 658 140 613 118 q 662 138 660 140 q 664 135 664 136 q 631 107 664 124 q 592 88 599 90 q 597 75 594 78 q 610 77 603 75 q 624 79 617 79 l 603 63 q 599 61 601 63 q 597 58 597 60 l 604 49 q 636 65 618 57 q 660 74 654 74 q 682 69 667 74 q 707 64 697 64 q 607 44 704 58 q 618 36 613 36 q 658 42 646 42 q 683 37 665 42 q 756 31 701 32 l 763 36 q 744 76 747 44 q 737 106 742 96 q 719 115 732 115 q 710 106 711 115 q 708 92 710 97 q 697 86 706 86 q 644 88 646 86 q 673 103 657 94 q 695 115 689 111 q 701 122 701 119 q 710 133 701 128 q 719 158 719 139 q 686 142 696 143 q 696 160 690 149 q 701 186 701 171 q 669 257 701 201 q 647 299 650 290 l 633 336 q 603 431 603 413 l 597 431 l 567 397 q 547 382 551 392 l 558 382 l 558 374 q 428 281 511 335 l 374 263 m 389 804 q 358 788 369 797 q 339 775 346 779 q 294 746 317 764 q 272 710 272 728 l 274 706 q 294 719 276 707 q 321 732 311 732 q 333 744 326 732 q 346 757 339 757 q 356 754 347 757 l 394 793 l 389 804 m 267 642 q 308 677 283 660 q 374 719 333 694 q 428 760 428 751 l 428 765 l 415 765 q 428 782 415 774 l 432 775 q 450 783 440 779 q 465 788 460 786 l 465 782 q 443 758 464 775 q 399 724 422 740 q 363 699 392 719 l 339 678 q 261 619 281 619 q 264 631 261 624 q 267 642 267 638 m 465 721 q 443 728 464 728 q 453 740 443 739 q 470 743 464 742 q 476 754 476 744 q 480 749 478 753 q 482 743 482 746 q 476 731 482 739 q 465 721 469 724 m 467 714 q 472 713 469 714 q 475 710 474 711 q 416 678 457 700 q 353 647 375 657 l 392 690 l 419 708 q 429 699 419 699 q 450 706 436 699 q 467 714 464 714 m 515 667 q 492 644 508 660 q 465 615 476 629 q 454 590 454 601 q 476 604 458 592 q 524 628 494 617 q 518 642 521 629 q 515 667 515 654 m 426 646 q 394 619 415 638 q 363 590 372 600 q 337 572 357 586 q 300 553 317 557 q 324 581 300 558 q 376 624 347 604 q 426 646 406 643 m 436 521 q 442 494 436 507 q 460 475 449 482 q 499 510 463 479 q 526 535 510 521 q 543 551 543 550 q 539 554 543 554 q 526 552 535 554 q 510 546 518 550 q 515 561 510 558 q 538 564 521 564 q 532 601 538 585 q 499 574 521 588 q 465 546 476 560 q 483 549 472 546 q 499 551 493 551 l 499 540 q 482 535 494 536 q 461 533 469 535 q 453 525 453 532 q 456 519 453 524 q 460 513 460 515 q 457 503 460 503 q 447 510 454 503 q 436 521 440 517 m 468 446 q 476 429 468 436 q 485 415 485 422 l 482 404 q 544 429 500 407 q 588 464 588 451 q 579 475 588 475 q 561 465 571 475 q 550 454 551 456 q 504 419 525 426 l 501 424 q 535 458 501 429 q 576 488 568 488 q 565 497 576 496 q 554 499 554 497 q 558 504 554 500 q 567 517 563 508 q 560 533 567 524 q 550 542 554 542 q 508 509 540 542 q 471 464 475 476 q 496 473 479 467 q 521 479 513 479 l 521 474 q 495 460 514 471 q 468 446 476 449 m 311 517 q 315 515 313 517 q 317 513 317 513 q 244 468 258 468 q 274 496 244 475 q 311 517 304 517 m 581 436 q 542 420 574 433 q 490 389 510 407 q 471 349 471 371 q 536 393 510 358 l 543 393 q 564 413 547 393 q 581 436 581 432 m 247 419 q 189 388 219 408 q 158 360 158 368 l 158 354 q 194 374 167 357 q 231 397 221 392 l 247 419 m 136 269 q 155 290 138 271 q 224 360 172 308 l 229 357 q 238 365 233 357 q 247 374 242 374 q 242 358 247 364 q 224 342 236 351 q 212 332 221 339 q 201 315 203 325 q 169 289 183 297 q 203 305 183 293 q 231 328 224 317 q 217 306 231 315 q 178 282 203 296 q 161 272 175 281 q 147 258 147 264 q 140 263 143 258 q 136 269 136 267 m 583 364 q 562 347 581 358 q 538 335 543 335 l 533 336 q 578 364 551 364 l 583 364 m 525 304 q 549 322 532 308 q 569 338 551 325 q 603 354 586 351 q 572 324 601 350 q 536 299 542 299 l 525 299 l 525 304 m 586 315 q 625 328 603 328 q 597 304 610 304 q 586 315 586 304 m 592 244 q 610 272 592 254 q 633 289 628 289 q 641 285 638 288 q 647 282 644 283 q 615 256 643 279 q 581 233 586 233 q 577 235 579 233 q 575 239 575 236 l 586 250 l 592 244 m 197 256 q 215 259 203 257 q 236 271 228 261 l 239 265 q 218 244 239 256 q 188 232 197 233 q 181 235 185 233 q 175 239 178 238 q 167 236 172 239 q 158 233 163 233 q 201 267 176 257 l 197 256 m 636 250 q 608 225 628 239 q 575 211 588 211 l 569 213 q 572 215 569 213 q 575 217 574 217 q 605 234 586 224 q 636 250 624 244 m 651 244 q 641 225 651 235 q 619 207 631 215 q 603 194 607 199 l 592 199 q 590 186 592 189 q 578 183 588 183 q 606 218 578 197 q 651 244 633 239 m 224 228 q 236 222 228 222 q 214 199 236 217 q 181 174 192 181 q 201 197 185 183 q 224 228 221 214 m 647 201 q 569 163 610 171 q 610 187 569 165 q 669 217 650 208 q 674 201 674 213 q 644 174 664 189 q 619 156 625 160 l 618 160 q 626 170 619 163 q 636 185 632 178 q 641 183 638 185 q 647 179 644 181 l 647 201 m 683 174 q 672 158 683 165 q 651 150 661 151 l 651 156 q 664 165 651 157 q 683 174 676 172 m 169 167 q 158 155 167 161 q 144 144 149 149 l 135 146 q 150 159 139 153 q 169 167 161 165 m 188 150 q 178 135 188 150 q 153 99 172 108 q 132 88 133 89 q 128 90 131 88 q 124 94 125 93 q 147 126 124 107 q 188 150 171 146 m 82 33 q 97 59 82 44 q 125 79 113 74 q 112 47 124 68 q 90 25 100 25 q 82 33 82 25 m 203 1075 q 206 1098 203 1083 q 210 1119 210 1113 q 197 1143 210 1143 q 208 1154 197 1147 q 222 1163 218 1161 q 240 1162 231 1163 q 271 1161 250 1161 q 308 1165 294 1161 q 328 1169 321 1169 q 344 1162 338 1169 q 351 1144 351 1154 q 325 1021 351 1021 l 232 1021 q 209 1038 215 1021 q 203 1075 203 1056 m 439 1046 q 435 1086 439 1065 q 433 1106 435 1093 q 431 1131 431 1119 q 447 1158 431 1153 q 513 1163 463 1163 q 568 1154 568 1163 l 568 1114 q 573 1077 571 1099 q 575 1036 575 1056 q 572 1019 575 1028 q 561 1010 568 1010 q 539 1013 553 1010 q 518 1015 525 1015 q 475 1013 503 1015 q 431 1008 453 1008 q 435 1027 431 1015 q 439 1046 439 1039 m 253 1086 q 282 1082 260 1082 q 306 1090 293 1082 q 318 1108 318 1097 l 318 1144 q 301 1138 308 1144 q 274 1110 293 1132 l 253 1086 m 231 1086 q 247 1106 235 1092 q 275 1136 260 1121 l 268 1140 l 231 1140 l 231 1086 m 460 1081 q 472 1076 463 1076 q 488 1092 482 1076 q 493 1122 493 1107 l 492 1131 l 460 1125 l 460 1081 m 514 1097 q 530 1110 521 1099 q 539 1131 539 1121 l 514 1131 l 514 1097 m 536 1081 q 499 1043 511 1075 l 543 1043 q 536 1081 543 1057 m 314 1075 q 283 1066 306 1074 q 257 1053 261 1058 l 257 1047 q 300 1042 257 1042 q 319 1050 319 1042 q 317 1063 319 1057 q 314 1075 315 1069 m 475 1053 q 466 1049 468 1053 q 464 1036 464 1044 l 479 1036 q 478 1046 479 1039 q 475 1053 478 1053 z "},"":{"ha":782,"x_min":10,"x_max":789,"o":"m 28 -3 q 15 2 21 -3 q 10 14 10 7 q 42 89 10 36 q 60 128 60 119 q 124 328 74 188 q 135 360 129 343 q 147 397 140 378 q 157 439 151 411 q 169 486 161 460 q 181 514 175 503 q 285 814 207 576 q 296 842 288 819 q 306 886 304 865 q 338 882 313 883 q 374 881 364 881 q 456 876 426 879 q 489 864 485 874 q 507 783 489 836 q 525 728 525 731 q 566 567 543 626 q 631 431 589 507 q 735 163 672 299 q 757 103 739 142 q 789 22 781 53 q 750 8 782 11 q 650 6 718 6 q 608 9 625 6 q 586 25 592 13 q 549 92 574 50 q 504 178 515 153 q 403 185 460 179 q 344 189 363 189 q 284 182 304 189 q 256 163 264 175 q 239 124 247 150 q 224 79 235 107 q 188 13 207 43 q 158 -18 168 -18 q 28 -3 107 -3 m 325 861 q 315 831 325 847 q 310 817 314 826 q 306 797 306 807 q 363 847 324 808 l 367 843 q 374 847 369 843 q 351 856 363 850 q 325 861 340 861 m 374 263 q 438 305 417 290 q 458 324 458 319 q 453 328 458 325 l 453 343 q 428 332 442 343 q 413 319 415 321 q 398 308 410 318 q 378 299 386 299 l 421 343 q 392 326 417 343 q 371 313 386 322 q 347 304 356 304 q 320 280 340 297 q 290 260 300 263 q 285 263 288 261 q 279 267 282 265 q 306 296 279 271 q 339 321 332 321 q 342 319 340 321 q 344 315 344 317 q 357 333 346 317 q 383 360 368 349 q 360 361 379 361 q 313 339 339 361 q 278 303 286 317 q 272 308 274 308 q 264 299 268 308 q 250 285 260 289 q 245 299 247 290 q 243 310 243 307 q 253 326 243 315 q 267 339 264 336 q 292 367 288 357 l 290 371 l 324 386 l 454 386 l 421 469 q 408 508 422 474 q 389 546 394 543 q 379 527 388 543 q 363 511 371 511 q 351 457 363 486 q 324 407 339 428 q 299 386 308 386 q 290 391 296 388 q 285 397 285 394 q 304 446 285 407 q 324 490 324 479 l 296 479 l 294 483 q 304 495 294 490 q 324 501 314 500 q 341 524 332 510 q 356 546 350 538 q 372 576 360 550 q 392 607 386 604 q 398 602 393 606 q 406 594 403 599 q 413 575 407 593 q 421 557 418 557 l 431 557 q 429 550 431 554 q 428 540 428 546 q 435 533 428 533 l 439 535 q 482 572 449 551 q 503 588 496 582 q 510 601 510 594 l 504 613 q 476 583 503 599 q 435 568 450 568 q 425 575 425 568 q 439 603 425 582 q 454 628 453 624 q 504 671 474 640 q 503 675 503 672 q 504 682 503 678 q 506 690 506 686 q 482 681 496 690 q 460 671 468 671 q 477 687 465 678 q 494 703 489 696 q 500 721 500 710 q 485 776 500 728 q 460 847 469 824 q 456 846 458 846 q 434 850 451 846 q 411 854 417 854 q 389 853 389 854 l 363 825 q 331 794 353 811 q 290 754 301 768 q 351 793 297 754 l 383 814 q 410 831 396 822 q 432 843 425 840 l 443 843 q 422 826 439 835 q 400 810 406 817 l 443 832 q 444 825 444 831 q 439 816 444 818 q 428 810 433 814 q 372 758 429 811 q 313 703 332 719 q 274 683 293 688 l 279 694 l 269 689 q 265 690 267 689 q 263 693 263 692 q 258 678 258 685 q 247 656 250 669 q 243 621 244 643 q 236 574 243 592 q 250 585 239 576 q 272 593 261 593 q 288 606 278 593 q 310 631 299 619 q 335 644 321 642 l 335 632 q 324 625 328 632 q 313 617 319 618 q 315 614 313 615 q 317 613 317 613 q 336 619 328 613 q 350 628 344 625 l 351 622 q 329 607 350 619 q 301 590 308 594 q 285 580 294 585 q 271 572 275 575 q 240 557 247 563 q 218 525 229 549 q 199 479 207 501 q 190 450 192 457 q 210 460 201 450 q 226 481 219 469 q 235 496 232 492 l 229 496 q 219 501 221 496 q 231 513 222 501 q 247 525 240 525 q 251 524 250 525 l 269 546 q 275 544 271 546 q 279 536 279 542 q 271 527 278 533 q 263 518 264 521 q 244 489 256 511 q 231 467 242 485 q 213 440 221 450 q 197 431 204 431 l 186 431 l 169 397 q 210 422 185 397 q 237 444 225 436 q 263 451 249 451 l 240 431 l 281 451 l 281 446 l 292 457 q 299 449 299 450 q 276 424 299 443 q 226 386 253 406 q 183 352 203 368 q 163 332 163 336 l 168 332 q 153 313 168 324 q 136 299 139 303 q 118 255 126 286 q 110 201 110 224 l 147 228 q 175 224 158 224 l 175 211 q 114 197 142 211 q 86 151 86 182 q 117 176 96 156 q 140 197 128 188 q 161 206 151 206 q 176 194 176 206 l 175 189 l 169 194 q 153 188 164 193 q 143 179 143 183 q 144 178 143 179 q 149 178 146 178 q 164 185 157 178 l 164 178 q 107 148 138 168 q 76 110 76 128 q 81 103 78 107 q 86 97 85 99 q 94 108 94 100 l 86 108 q 97 117 90 111 q 106 124 103 124 q 115 108 113 124 l 115 101 q 92 85 111 97 q 61 59 74 74 q 49 31 49 44 q 72 17 49 21 q 124 13 96 13 l 158 14 q 221 140 192 90 l 201 129 l 197 131 q 191 124 194 129 q 185 113 188 118 q 196 142 185 126 q 221 158 207 158 l 229 156 q 257 189 244 181 q 246 194 251 190 q 240 203 240 199 q 272 225 240 207 q 294 238 278 228 q 313 254 311 249 q 336 249 317 249 q 283 218 283 221 q 290 206 283 206 l 340 206 q 335 217 340 213 l 344 218 q 363 215 351 218 q 382 213 375 213 q 394 226 388 213 q 406 250 400 240 q 421 260 411 260 q 411 244 417 247 l 417 243 q 433 249 425 243 q 443 257 440 256 q 454 265 444 258 q 476 272 464 272 l 481 271 q 441 240 474 268 q 406 206 408 211 l 428 204 q 456 214 444 204 q 482 242 468 224 q 517 276 500 268 q 509 252 517 268 q 496 229 501 236 q 540 268 507 235 q 568 293 565 293 q 574 292 569 293 q 593 292 579 292 q 619 293 610 292 q 598 277 619 292 q 571 258 576 263 q 558 271 567 258 l 560 265 q 520 230 560 251 q 476 206 481 208 q 488 204 482 206 q 500 203 493 203 q 521 217 515 203 q 532 211 522 211 q 551 219 539 211 q 569 228 564 228 q 552 208 568 224 q 536 188 536 192 q 542 176 536 179 q 549 174 549 174 q 557 175 553 174 q 564 178 561 176 q 554 146 564 151 q 558 137 556 142 q 564 129 561 132 q 574 134 568 131 q 581 140 581 138 l 586 135 l 581 129 q 589 100 586 128 q 658 140 613 118 q 662 138 660 140 q 664 135 664 136 q 631 107 664 124 q 592 88 599 90 q 597 75 594 78 q 610 77 603 75 q 624 79 617 79 l 603 63 q 599 61 601 63 q 597 58 597 60 l 604 49 q 636 65 618 57 q 660 74 654 74 q 682 69 667 74 q 707 64 697 64 q 607 44 704 58 q 618 36 613 36 q 658 42 646 42 q 683 37 665 42 q 756 31 701 32 l 763 36 q 744 76 747 44 q 737 106 742 96 q 719 115 732 115 q 710 106 711 115 q 708 92 710 97 q 697 86 706 86 q 644 88 646 86 q 673 103 657 94 q 695 115 689 111 q 701 122 701 119 q 710 133 701 128 q 719 158 719 139 q 686 142 696 143 q 696 160 690 149 q 701 186 701 171 q 669 257 701 201 q 647 299 650 290 l 633 336 q 603 431 603 413 l 597 431 l 567 397 q 547 382 551 392 l 558 382 l 558 374 q 428 281 511 335 l 374 263 m 389 804 q 358 788 369 797 q 339 775 346 779 q 294 746 317 764 q 272 710 272 728 l 274 706 q 294 719 276 707 q 321 732 311 732 q 333 744 326 732 q 346 757 339 757 q 356 754 347 757 l 394 793 l 389 804 m 267 642 q 308 677 283 660 q 374 719 333 694 q 428 760 428 751 l 428 765 l 415 765 q 428 782 415 774 l 432 775 q 450 783 440 779 q 465 788 460 786 l 465 782 q 443 758 464 775 q 399 724 422 740 q 363 699 392 719 l 339 678 q 261 619 281 619 q 264 631 261 624 q 267 642 267 638 m 465 721 q 443 728 464 728 q 453 740 443 739 q 470 743 464 742 q 476 754 476 744 q 480 749 478 753 q 482 743 482 746 q 476 731 482 739 q 465 721 469 724 m 467 714 q 472 713 469 714 q 475 710 474 711 q 416 678 457 700 q 353 647 375 657 l 392 690 l 419 708 q 429 699 419 699 q 450 706 436 699 q 467 714 464 714 m 515 667 q 492 644 508 660 q 465 615 476 629 q 454 590 454 601 q 476 604 458 592 q 524 628 494 617 q 518 642 521 629 q 515 667 515 654 m 426 646 q 394 619 415 638 q 363 590 372 600 q 337 572 357 586 q 300 553 317 557 q 324 581 300 558 q 376 624 347 604 q 426 646 406 643 m 436 521 q 442 494 436 507 q 460 475 449 482 q 499 510 463 479 q 526 535 510 521 q 543 551 543 550 q 539 554 543 554 q 526 552 535 554 q 510 546 518 550 q 515 561 510 558 q 538 564 521 564 q 532 601 538 585 q 499 574 521 588 q 465 546 476 560 q 483 549 472 546 q 499 551 493 551 l 499 540 q 482 535 494 536 q 461 533 469 535 q 453 525 453 532 q 456 519 453 524 q 460 513 460 515 q 457 503 460 503 q 447 510 454 503 q 436 521 440 517 m 468 446 q 476 429 468 436 q 485 415 485 422 l 482 404 q 544 429 500 407 q 588 464 588 451 q 579 475 588 475 q 561 465 571 475 q 550 454 551 456 q 504 419 525 426 l 501 424 q 535 458 501 429 q 576 488 568 488 q 565 497 576 496 q 554 499 554 497 q 558 504 554 500 q 567 517 563 508 q 560 533 567 524 q 550 542 554 542 q 508 509 540 542 q 471 464 475 476 q 496 473 479 467 q 521 479 513 479 l 521 474 q 495 460 514 471 q 468 446 476 449 m 311 517 q 315 515 313 517 q 317 513 317 513 q 244 468 258 468 q 274 496 244 475 q 311 517 304 517 m 581 436 q 542 420 574 433 q 490 389 510 407 q 471 349 471 371 q 536 393 510 358 l 543 393 q 564 413 547 393 q 581 436 581 432 m 247 419 q 189 388 219 408 q 158 360 158 368 l 158 354 q 194 374 167 357 q 231 397 221 392 l 247 419 m 136 269 q 155 290 138 271 q 224 360 172 308 l 229 357 q 238 365 233 357 q 247 374 242 374 q 242 358 247 364 q 224 342 236 351 q 212 332 221 339 q 201 315 203 325 q 169 289 183 297 q 203 305 183 293 q 231 328 224 317 q 217 306 231 315 q 178 282 203 296 q 161 272 175 281 q 147 258 147 264 q 140 263 143 258 q 136 269 136 267 m 583 364 q 562 347 581 358 q 538 335 543 335 l 533 336 q 578 364 551 364 l 583 364 m 525 304 q 549 322 532 308 q 569 338 551 325 q 603 354 586 351 q 572 324 601 350 q 536 299 542 299 l 525 299 l 525 304 m 586 315 q 625 328 603 328 q 597 304 610 304 q 586 315 586 304 m 592 244 q 610 272 592 254 q 633 289 628 289 q 641 285 638 288 q 647 282 644 283 q 615 256 643 279 q 581 233 586 233 q 577 235 579 233 q 575 239 575 236 l 586 250 l 592 244 m 197 256 q 215 259 203 257 q 236 271 228 261 l 239 265 q 218 244 239 256 q 188 232 197 233 q 181 235 185 233 q 175 239 178 238 q 167 236 172 239 q 158 233 163 233 q 201 267 176 257 l 197 256 m 636 250 q 608 225 628 239 q 575 211 588 211 l 569 213 q 572 215 569 213 q 575 217 574 217 q 605 234 586 224 q 636 250 624 244 m 651 244 q 641 225 651 235 q 619 207 631 215 q 603 194 607 199 l 592 199 q 590 186 592 189 q 578 183 588 183 q 606 218 578 197 q 651 244 633 239 m 224 228 q 236 222 228 222 q 214 199 236 217 q 181 174 192 181 q 201 197 185 183 q 224 228 221 214 m 647 201 q 569 163 610 171 q 610 187 569 165 q 669 217 650 208 q 674 201 674 213 q 644 174 664 189 q 619 156 625 160 l 618 160 q 626 170 619 163 q 636 185 632 178 q 641 183 638 185 q 647 179 644 181 l 647 201 m 683 174 q 672 158 683 165 q 651 150 661 151 l 651 156 q 664 165 651 157 q 683 174 676 172 m 169 167 q 158 155 167 161 q 144 144 149 149 l 135 146 q 150 159 139 153 q 169 167 161 165 m 188 150 q 178 135 188 150 q 153 99 172 108 q 132 88 133 89 q 128 90 131 88 q 124 94 125 93 q 147 126 124 107 q 188 150 171 146 m 82 33 q 97 59 82 44 q 125 79 113 74 q 112 47 124 68 q 90 25 100 25 q 82 33 82 25 m 276 1192 q 338 1176 310 1192 q 408 1132 367 1161 q 465 1094 450 1101 q 501 1086 475 1089 q 542 1076 528 1083 q 556 1047 556 1068 q 534 1006 556 1043 q 504 968 513 968 q 474 983 497 978 q 401 996 450 989 q 284 1021 325 1007 q 243 1065 243 1035 l 243 1150 q 253 1176 243 1161 q 276 1192 264 1192 m 276 1081 q 304 1110 283 1090 q 333 1138 325 1129 q 324 1147 333 1140 q 310 1156 314 1153 l 276 1081 m 350 1126 q 333 1118 342 1126 q 325 1100 325 1110 q 346 1107 332 1101 q 369 1119 360 1113 q 350 1126 361 1126 m 388 1113 q 380 1099 386 1113 q 369 1065 374 1086 q 392 1078 379 1068 q 411 1094 404 1088 q 398 1106 406 1100 q 388 1113 390 1111 m 339 1083 q 310 1071 324 1083 q 297 1043 297 1058 q 330 1053 314 1043 q 346 1081 346 1063 q 339 1083 346 1083 m 381 1044 q 386 1038 381 1040 q 397 1035 392 1035 q 407 1050 401 1035 q 414 1074 413 1065 q 392 1061 403 1074 q 381 1044 381 1049 m 449 1067 q 431 1052 439 1067 q 422 1026 422 1038 q 455 1038 438 1026 q 472 1058 472 1049 q 461 1065 467 1064 q 449 1067 456 1067 m 467 1018 q 479 1014 472 1015 q 490 1013 486 1013 q 499 1044 499 1013 q 479 1033 489 1044 q 467 1018 469 1021 z "},"":{"ha":782,"x_min":10,"x_max":789,"o":"m 28 -3 q 15 2 21 -3 q 10 14 10 7 q 42 89 10 36 q 60 128 60 119 q 124 328 74 188 q 135 360 129 343 q 147 397 140 378 q 157 439 151 411 q 169 486 161 460 q 181 514 175 503 q 285 814 207 576 q 296 842 288 819 q 306 886 304 865 q 338 882 313 883 q 374 881 364 881 q 456 876 426 879 q 489 864 485 874 q 507 783 489 836 q 525 728 525 731 q 566 567 543 626 q 631 431 589 507 q 735 163 672 299 q 757 103 739 142 q 789 22 781 53 q 750 8 782 11 q 650 6 718 6 q 608 9 625 6 q 586 25 592 13 q 549 92 574 50 q 504 178 515 153 q 403 185 460 179 q 344 189 363 189 q 284 182 304 189 q 256 163 264 175 q 239 124 247 150 q 224 79 235 107 q 188 13 207 43 q 158 -18 168 -18 q 28 -3 107 -3 m 325 861 q 315 831 325 847 q 310 817 314 826 q 306 797 306 807 q 363 847 324 808 l 367 843 q 374 847 369 843 q 351 856 363 850 q 325 861 340 861 m 374 263 q 438 305 417 290 q 458 324 458 319 q 453 328 458 325 l 453 343 q 428 332 442 343 q 413 319 415 321 q 398 308 410 318 q 378 299 386 299 l 421 343 q 392 326 417 343 q 371 313 386 322 q 347 304 356 304 q 320 280 340 297 q 290 260 300 263 q 285 263 288 261 q 279 267 282 265 q 306 296 279 271 q 339 321 332 321 q 342 319 340 321 q 344 315 344 317 q 357 333 346 317 q 383 360 368 349 q 360 361 379 361 q 313 339 339 361 q 278 303 286 317 q 272 308 274 308 q 264 299 268 308 q 250 285 260 289 q 245 299 247 290 q 243 310 243 307 q 253 326 243 315 q 267 339 264 336 q 292 367 288 357 l 290 371 l 324 386 l 454 386 l 421 469 q 408 508 422 474 q 389 546 394 543 q 379 527 388 543 q 363 511 371 511 q 351 457 363 486 q 324 407 339 428 q 299 386 308 386 q 290 391 296 388 q 285 397 285 394 q 304 446 285 407 q 324 490 324 479 l 296 479 l 294 483 q 304 495 294 490 q 324 501 314 500 q 341 524 332 510 q 356 546 350 538 q 372 576 360 550 q 392 607 386 604 q 398 602 393 606 q 406 594 403 599 q 413 575 407 593 q 421 557 418 557 l 431 557 q 429 550 431 554 q 428 540 428 546 q 435 533 428 533 l 439 535 q 482 572 449 551 q 503 588 496 582 q 510 601 510 594 l 504 613 q 476 583 503 599 q 435 568 450 568 q 425 575 425 568 q 439 603 425 582 q 454 628 453 624 q 504 671 474 640 q 503 675 503 672 q 504 682 503 678 q 506 690 506 686 q 482 681 496 690 q 460 671 468 671 q 477 687 465 678 q 494 703 489 696 q 500 721 500 710 q 485 776 500 728 q 460 847 469 824 q 456 846 458 846 q 434 850 451 846 q 411 854 417 854 q 389 853 389 854 l 363 825 q 331 794 353 811 q 290 754 301 768 q 351 793 297 754 l 383 814 q 410 831 396 822 q 432 843 425 840 l 443 843 q 422 826 439 835 q 400 810 406 817 l 443 832 q 444 825 444 831 q 439 816 444 818 q 428 810 433 814 q 372 758 429 811 q 313 703 332 719 q 274 683 293 688 l 279 694 l 269 689 q 265 690 267 689 q 263 693 263 692 q 258 678 258 685 q 247 656 250 669 q 243 621 244 643 q 236 574 243 592 q 250 585 239 576 q 272 593 261 593 q 288 606 278 593 q 310 631 299 619 q 335 644 321 642 l 335 632 q 324 625 328 632 q 313 617 319 618 q 315 614 313 615 q 317 613 317 613 q 336 619 328 613 q 350 628 344 625 l 351 622 q 329 607 350 619 q 301 590 308 594 q 285 580 294 585 q 271 572 275 575 q 240 557 247 563 q 218 525 229 549 q 199 479 207 501 q 190 450 192 457 q 210 460 201 450 q 226 481 219 469 q 235 496 232 492 l 229 496 q 219 501 221 496 q 231 513 222 501 q 247 525 240 525 q 251 524 250 525 l 269 546 q 275 544 271 546 q 279 536 279 542 q 271 527 278 533 q 263 518 264 521 q 244 489 256 511 q 231 467 242 485 q 213 440 221 450 q 197 431 204 431 l 186 431 l 169 397 q 210 422 185 397 q 237 444 225 436 q 263 451 249 451 l 240 431 l 281 451 l 281 446 l 292 457 q 299 449 299 450 q 276 424 299 443 q 226 386 253 406 q 183 352 203 368 q 163 332 163 336 l 168 332 q 153 313 168 324 q 136 299 139 303 q 118 255 126 286 q 110 201 110 224 l 147 228 q 175 224 158 224 l 175 211 q 114 197 142 211 q 86 151 86 182 q 117 176 96 156 q 140 197 128 188 q 161 206 151 206 q 176 194 176 206 l 175 189 l 169 194 q 153 188 164 193 q 143 179 143 183 q 144 178 143 179 q 149 178 146 178 q 164 185 157 178 l 164 178 q 107 148 138 168 q 76 110 76 128 q 81 103 78 107 q 86 97 85 99 q 94 108 94 100 l 86 108 q 97 117 90 111 q 106 124 103 124 q 115 108 113 124 l 115 101 q 92 85 111 97 q 61 59 74 74 q 49 31 49 44 q 72 17 49 21 q 124 13 96 13 l 158 14 q 221 140 192 90 l 201 129 l 197 131 q 191 124 194 129 q 185 113 188 118 q 196 142 185 126 q 221 158 207 158 l 229 156 q 257 189 244 181 q 246 194 251 190 q 240 203 240 199 q 272 225 240 207 q 294 238 278 228 q 313 254 311 249 q 336 249 317 249 q 283 218 283 221 q 290 206 283 206 l 340 206 q 335 217 340 213 l 344 218 q 363 215 351 218 q 382 213 375 213 q 394 226 388 213 q 406 250 400 240 q 421 260 411 260 q 411 244 417 247 l 417 243 q 433 249 425 243 q 443 257 440 256 q 454 265 444 258 q 476 272 464 272 l 481 271 q 441 240 474 268 q 406 206 408 211 l 428 204 q 456 214 444 204 q 482 242 468 224 q 517 276 500 268 q 509 252 517 268 q 496 229 501 236 q 540 268 507 235 q 568 293 565 293 q 574 292 569 293 q 593 292 579 292 q 619 293 610 292 q 598 277 619 292 q 571 258 576 263 q 558 271 567 258 l 560 265 q 520 230 560 251 q 476 206 481 208 q 488 204 482 206 q 500 203 493 203 q 521 217 515 203 q 532 211 522 211 q 551 219 539 211 q 569 228 564 228 q 552 208 568 224 q 536 188 536 192 q 542 176 536 179 q 549 174 549 174 q 557 175 553 174 q 564 178 561 176 q 554 146 564 151 q 558 137 556 142 q 564 129 561 132 q 574 134 568 131 q 581 140 581 138 l 586 135 l 581 129 q 589 100 586 128 q 658 140 613 118 q 662 138 660 140 q 664 135 664 136 q 631 107 664 124 q 592 88 599 90 q 597 75 594 78 q 610 77 603 75 q 624 79 617 79 l 603 63 q 599 61 601 63 q 597 58 597 60 l 604 49 q 636 65 618 57 q 660 74 654 74 q 682 69 667 74 q 707 64 697 64 q 607 44 704 58 q 618 36 613 36 q 658 42 646 42 q 683 37 665 42 q 756 31 701 32 l 763 36 q 744 76 747 44 q 737 106 742 96 q 719 115 732 115 q 710 106 711 115 q 708 92 710 97 q 697 86 706 86 q 644 88 646 86 q 673 103 657 94 q 695 115 689 111 q 701 122 701 119 q 710 133 701 128 q 719 158 719 139 q 686 142 696 143 q 696 160 690 149 q 701 186 701 171 q 669 257 701 201 q 647 299 650 290 l 633 336 q 603 431 603 413 l 597 431 l 567 397 q 547 382 551 392 l 558 382 l 558 374 q 428 281 511 335 l 374 263 m 389 804 q 358 788 369 797 q 339 775 346 779 q 294 746 317 764 q 272 710 272 728 l 274 706 q 294 719 276 707 q 321 732 311 732 q 333 744 326 732 q 346 757 339 757 q 356 754 347 757 l 394 793 l 389 804 m 267 642 q 308 677 283 660 q 374 719 333 694 q 428 760 428 751 l 428 765 l 415 765 q 428 782 415 774 l 432 775 q 450 783 440 779 q 465 788 460 786 l 465 782 q 443 758 464 775 q 399 724 422 740 q 363 699 392 719 l 339 678 q 261 619 281 619 q 264 631 261 624 q 267 642 267 638 m 465 721 q 443 728 464 728 q 453 740 443 739 q 470 743 464 742 q 476 754 476 744 q 480 749 478 753 q 482 743 482 746 q 476 731 482 739 q 465 721 469 724 m 467 714 q 472 713 469 714 q 475 710 474 711 q 416 678 457 700 q 353 647 375 657 l 392 690 l 419 708 q 429 699 419 699 q 450 706 436 699 q 467 714 464 714 m 515 667 q 492 644 508 660 q 465 615 476 629 q 454 590 454 601 q 476 604 458 592 q 524 628 494 617 q 518 642 521 629 q 515 667 515 654 m 426 646 q 394 619 415 638 q 363 590 372 600 q 337 572 357 586 q 300 553 317 557 q 324 581 300 558 q 376 624 347 604 q 426 646 406 643 m 436 521 q 442 494 436 507 q 460 475 449 482 q 499 510 463 479 q 526 535 510 521 q 543 551 543 550 q 539 554 543 554 q 526 552 535 554 q 510 546 518 550 q 515 561 510 558 q 538 564 521 564 q 532 601 538 585 q 499 574 521 588 q 465 546 476 560 q 483 549 472 546 q 499 551 493 551 l 499 540 q 482 535 494 536 q 461 533 469 535 q 453 525 453 532 q 456 519 453 524 q 460 513 460 515 q 457 503 460 503 q 447 510 454 503 q 436 521 440 517 m 468 446 q 476 429 468 436 q 485 415 485 422 l 482 404 q 544 429 500 407 q 588 464 588 451 q 579 475 588 475 q 561 465 571 475 q 550 454 551 456 q 504 419 525 426 l 501 424 q 535 458 501 429 q 576 488 568 488 q 565 497 576 496 q 554 499 554 497 q 558 504 554 500 q 567 517 563 508 q 560 533 567 524 q 550 542 554 542 q 508 509 540 542 q 471 464 475 476 q 496 473 479 467 q 521 479 513 479 l 521 474 q 495 460 514 471 q 468 446 476 449 m 311 517 q 315 515 313 517 q 317 513 317 513 q 244 468 258 468 q 274 496 244 475 q 311 517 304 517 m 581 436 q 542 420 574 433 q 490 389 510 407 q 471 349 471 371 q 536 393 510 358 l 543 393 q 564 413 547 393 q 581 436 581 432 m 247 419 q 189 388 219 408 q 158 360 158 368 l 158 354 q 194 374 167 357 q 231 397 221 392 l 247 419 m 136 269 q 155 290 138 271 q 224 360 172 308 l 229 357 q 238 365 233 357 q 247 374 242 374 q 242 358 247 364 q 224 342 236 351 q 212 332 221 339 q 201 315 203 325 q 169 289 183 297 q 203 305 183 293 q 231 328 224 317 q 217 306 231 315 q 178 282 203 296 q 161 272 175 281 q 147 258 147 264 q 140 263 143 258 q 136 269 136 267 m 583 364 q 562 347 581 358 q 538 335 543 335 l 533 336 q 578 364 551 364 l 583 364 m 525 304 q 549 322 532 308 q 569 338 551 325 q 603 354 586 351 q 572 324 601 350 q 536 299 542 299 l 525 299 l 525 304 m 586 315 q 625 328 603 328 q 597 304 610 304 q 586 315 586 304 m 592 244 q 610 272 592 254 q 633 289 628 289 q 641 285 638 288 q 647 282 644 283 q 615 256 643 279 q 581 233 586 233 q 577 235 579 233 q 575 239 575 236 l 586 250 l 592 244 m 197 256 q 215 259 203 257 q 236 271 228 261 l 239 265 q 218 244 239 256 q 188 232 197 233 q 181 235 185 233 q 175 239 178 238 q 167 236 172 239 q 158 233 163 233 q 201 267 176 257 l 197 256 m 636 250 q 608 225 628 239 q 575 211 588 211 l 569 213 q 572 215 569 213 q 575 217 574 217 q 605 234 586 224 q 636 250 624 244 m 651 244 q 641 225 651 235 q 619 207 631 215 q 603 194 607 199 l 592 199 q 590 186 592 189 q 578 183 588 183 q 606 218 578 197 q 651 244 633 239 m 224 228 q 236 222 228 222 q 214 199 236 217 q 181 174 192 181 q 201 197 185 183 q 224 228 221 214 m 647 201 q 569 163 610 171 q 610 187 569 165 q 669 217 650 208 q 674 201 674 213 q 644 174 664 189 q 619 156 625 160 l 618 160 q 626 170 619 163 q 636 185 632 178 q 641 183 638 185 q 647 179 644 181 l 647 201 m 683 174 q 672 158 683 165 q 651 150 661 151 l 651 156 q 664 165 651 157 q 683 174 676 172 m 169 167 q 158 155 167 161 q 144 144 149 149 l 135 146 q 150 159 139 153 q 169 167 161 165 m 188 150 q 178 135 188 150 q 153 99 172 108 q 132 88 133 89 q 128 90 131 88 q 124 94 125 93 q 147 126 124 107 q 188 150 171 146 m 82 33 q 97 59 82 44 q 125 79 113 74 q 112 47 124 68 q 90 25 100 25 q 82 33 82 25 m 263 1049 q 254 1078 254 1061 q 265 1126 254 1096 q 274 1161 274 1151 q 286 1174 274 1168 q 308 1181 299 1181 q 365 1190 333 1181 q 421 1199 404 1199 q 458 1190 447 1199 q 475 1170 469 1182 q 485 1157 481 1158 q 528 1119 513 1143 q 544 1063 544 1094 q 529 994 544 1015 q 485 966 514 972 q 400 960 456 960 q 322 988 363 960 q 263 1049 282 1017 m 311 1163 q 306 1157 306 1163 q 311 1151 306 1151 q 315 1157 315 1151 q 311 1163 315 1163 m 335 1157 q 353 1149 339 1153 q 376 1146 367 1146 l 382 1151 q 360 1158 374 1158 l 335 1157 m 393 1157 q 403 1149 396 1151 q 414 1139 410 1146 q 432 1143 418 1142 q 449 1151 446 1144 l 442 1157 l 393 1157 m 353 1146 q 349 1139 349 1146 q 353 1133 349 1133 q 357 1139 357 1133 q 353 1146 357 1146 m 479 1146 q 475 1139 475 1146 q 479 1133 475 1133 q 485 1139 485 1133 q 479 1146 485 1146 m 311 1115 q 322 1108 313 1108 q 331 1110 326 1108 q 336 1117 336 1113 q 335 1121 336 1119 l 311 1115 m 442 1121 q 438 1115 438 1121 q 442 1110 438 1110 q 447 1115 447 1110 q 442 1121 447 1121 m 490 1115 l 490 1121 l 472 1121 l 490 1115 m 507 1121 q 503 1115 503 1121 q 507 1110 503 1110 q 513 1115 513 1110 q 507 1121 513 1121 m 358 1081 q 371 1047 358 1060 q 399 1029 383 1035 q 418 1024 414 1024 q 437 1030 431 1024 q 443 1053 443 1036 q 435 1096 443 1076 q 404 1115 426 1115 q 373 1106 388 1115 q 358 1081 358 1096 m 286 1089 q 303 1043 286 1065 q 342 1021 319 1021 l 342 1039 q 339 1064 342 1064 q 332 1060 338 1064 q 319 1056 326 1056 q 308 1059 313 1056 q 303 1068 303 1063 q 322 1085 303 1081 q 310 1096 318 1090 q 294 1101 301 1101 q 286 1089 286 1101 m 458 1097 q 482 1089 460 1089 l 482 1097 l 458 1097 m 518 1061 l 524 1061 l 518 1092 l 518 1061 m 501 1081 q 497 1074 497 1081 q 501 1068 497 1068 q 506 1074 506 1068 q 501 1081 506 1081 m 322 1074 q 318 1067 318 1074 q 322 1061 318 1061 q 326 1067 326 1061 q 322 1074 326 1074 m 504 1051 q 497 1043 497 1044 l 499 1039 l 504 1051 m 485 989 q 494 995 490 989 q 497 1008 497 1001 q 491 1017 497 1015 q 475 1019 485 1019 q 461 1010 472 1018 q 449 1001 450 1001 q 418 998 436 1000 q 389 996 400 996 l 393 989 l 485 989 m 518 1019 q 514 1014 514 1019 q 518 1008 514 1008 q 522 1014 522 1008 q 518 1019 522 1019 m 376 1008 q 371 1001 371 1008 q 376 996 371 996 q 381 1001 381 996 q 376 1008 381 1008 m 353 1001 q 349 994 349 1001 q 353 989 349 989 q 357 994 357 989 q 353 1001 357 1001 m 418 972 q 414 965 414 972 q 418 960 414 960 q 424 965 424 960 q 418 972 424 972 z "},"":{"ha":782,"x_min":10,"x_max":789,"o":"m 28 -3 q 15 2 21 -3 q 10 14 10 7 q 42 89 10 36 q 60 128 60 119 q 124 328 74 188 q 135 360 129 343 q 147 397 140 378 q 157 439 151 411 q 169 486 161 460 q 181 514 175 503 q 285 814 207 576 q 296 842 288 819 q 306 886 304 865 q 338 882 313 883 q 374 881 364 881 q 456 876 426 879 q 489 864 485 874 q 507 783 489 836 q 525 728 525 731 q 566 567 543 626 q 631 431 589 507 q 735 163 672 299 q 757 103 739 142 q 789 22 781 53 q 750 8 782 11 q 650 6 718 6 q 608 9 625 6 q 586 25 592 13 q 549 92 574 50 q 504 178 515 153 q 403 185 460 179 q 344 189 363 189 q 284 182 304 189 q 256 163 264 175 q 239 124 247 150 q 224 79 235 107 q 188 13 207 43 q 158 -18 168 -18 q 28 -3 107 -3 m 325 861 q 315 831 325 847 q 310 817 314 826 q 306 797 306 807 q 363 847 324 808 l 367 843 q 374 847 369 843 q 351 856 363 850 q 325 861 340 861 m 374 263 q 438 305 417 290 q 458 324 458 319 q 453 328 458 325 l 453 343 q 428 332 442 343 q 413 319 415 321 q 398 308 410 318 q 378 299 386 299 l 421 343 q 392 326 417 343 q 371 313 386 322 q 347 304 356 304 q 320 280 340 297 q 290 260 300 263 q 285 263 288 261 q 279 267 282 265 q 306 296 279 271 q 339 321 332 321 q 342 319 340 321 q 344 315 344 317 q 357 333 346 317 q 383 360 368 349 q 360 361 379 361 q 313 339 339 361 q 278 303 286 317 q 272 308 274 308 q 264 299 268 308 q 250 285 260 289 q 245 299 247 290 q 243 310 243 307 q 253 326 243 315 q 267 339 264 336 q 292 367 288 357 l 290 371 l 324 386 l 454 386 l 421 469 q 408 508 422 474 q 389 546 394 543 q 379 527 388 543 q 363 511 371 511 q 351 457 363 486 q 324 407 339 428 q 299 386 308 386 q 290 391 296 388 q 285 397 285 394 q 304 446 285 407 q 324 490 324 479 l 296 479 l 294 483 q 304 495 294 490 q 324 501 314 500 q 341 524 332 510 q 356 546 350 538 q 372 576 360 550 q 392 607 386 604 q 398 602 393 606 q 406 594 403 599 q 413 575 407 593 q 421 557 418 557 l 431 557 q 429 550 431 554 q 428 540 428 546 q 435 533 428 533 l 439 535 q 482 572 449 551 q 503 588 496 582 q 510 601 510 594 l 504 613 q 476 583 503 599 q 435 568 450 568 q 425 575 425 568 q 439 603 425 582 q 454 628 453 624 q 504 671 474 640 q 503 675 503 672 q 504 682 503 678 q 506 690 506 686 q 482 681 496 690 q 460 671 468 671 q 477 687 465 678 q 494 703 489 696 q 500 721 500 710 q 485 776 500 728 q 460 847 469 824 q 456 846 458 846 q 434 850 451 846 q 411 854 417 854 q 389 853 389 854 l 363 825 q 331 794 353 811 q 290 754 301 768 q 351 793 297 754 l 383 814 q 410 831 396 822 q 432 843 425 840 l 443 843 q 422 826 439 835 q 400 810 406 817 l 443 832 q 444 825 444 831 q 439 816 444 818 q 428 810 433 814 q 372 758 429 811 q 313 703 332 719 q 274 683 293 688 l 279 694 l 269 689 q 265 690 267 689 q 263 693 263 692 q 258 678 258 685 q 247 656 250 669 q 243 621 244 643 q 236 574 243 592 q 250 585 239 576 q 272 593 261 593 q 288 606 278 593 q 310 631 299 619 q 335 644 321 642 l 335 632 q 324 625 328 632 q 313 617 319 618 q 315 614 313 615 q 317 613 317 613 q 336 619 328 613 q 350 628 344 625 l 351 622 q 329 607 350 619 q 301 590 308 594 q 285 580 294 585 q 271 572 275 575 q 240 557 247 563 q 218 525 229 549 q 199 479 207 501 q 190 450 192 457 q 210 460 201 450 q 226 481 219 469 q 235 496 232 492 l 229 496 q 219 501 221 496 q 231 513 222 501 q 247 525 240 525 q 251 524 250 525 l 269 546 q 275 544 271 546 q 279 536 279 542 q 271 527 278 533 q 263 518 264 521 q 244 489 256 511 q 231 467 242 485 q 213 440 221 450 q 197 431 204 431 l 186 431 l 169 397 q 210 422 185 397 q 237 444 225 436 q 263 451 249 451 l 240 431 l 281 451 l 281 446 l 292 457 q 299 449 299 450 q 276 424 299 443 q 226 386 253 406 q 183 352 203 368 q 163 332 163 336 l 168 332 q 153 313 168 324 q 136 299 139 303 q 118 255 126 286 q 110 201 110 224 l 147 228 q 175 224 158 224 l 175 211 q 114 197 142 211 q 86 151 86 182 q 117 176 96 156 q 140 197 128 188 q 161 206 151 206 q 176 194 176 206 l 175 189 l 169 194 q 153 188 164 193 q 143 179 143 183 q 144 178 143 179 q 149 178 146 178 q 164 185 157 178 l 164 178 q 107 148 138 168 q 76 110 76 128 q 81 103 78 107 q 86 97 85 99 q 94 108 94 100 l 86 108 q 97 117 90 111 q 106 124 103 124 q 115 108 113 124 l 115 101 q 92 85 111 97 q 61 59 74 74 q 49 31 49 44 q 72 17 49 21 q 124 13 96 13 l 158 14 q 221 140 192 90 l 201 129 l 197 131 q 191 124 194 129 q 185 113 188 118 q 196 142 185 126 q 221 158 207 158 l 229 156 q 257 189 244 181 q 246 194 251 190 q 240 203 240 199 q 272 225 240 207 q 294 238 278 228 q 313 254 311 249 q 336 249 317 249 q 283 218 283 221 q 290 206 283 206 l 340 206 q 335 217 340 213 l 344 218 q 363 215 351 218 q 382 213 375 213 q 394 226 388 213 q 406 250 400 240 q 421 260 411 260 q 411 244 417 247 l 417 243 q 433 249 425 243 q 443 257 440 256 q 454 265 444 258 q 476 272 464 272 l 481 271 q 441 240 474 268 q 406 206 408 211 l 428 204 q 456 214 444 204 q 482 242 468 224 q 517 276 500 268 q 509 252 517 268 q 496 229 501 236 q 540 268 507 235 q 568 293 565 293 q 574 292 569 293 q 593 292 579 292 q 619 293 610 292 q 598 277 619 292 q 571 258 576 263 q 558 271 567 258 l 560 265 q 520 230 560 251 q 476 206 481 208 q 488 204 482 206 q 500 203 493 203 q 521 217 515 203 q 532 211 522 211 q 551 219 539 211 q 569 228 564 228 q 552 208 568 224 q 536 188 536 192 q 542 176 536 179 q 549 174 549 174 q 557 175 553 174 q 564 178 561 176 q 554 146 564 151 q 558 137 556 142 q 564 129 561 132 q 574 134 568 131 q 581 140 581 138 l 586 135 l 581 129 q 589 100 586 128 q 658 140 613 118 q 662 138 660 140 q 664 135 664 136 q 631 107 664 124 q 592 88 599 90 q 597 75 594 78 q 610 77 603 75 q 624 79 617 79 l 603 63 q 599 61 601 63 q 597 58 597 60 l 604 49 q 636 65 618 57 q 660 74 654 74 q 682 69 667 74 q 707 64 697 64 q 607 44 704 58 q 618 36 613 36 q 658 42 646 42 q 683 37 665 42 q 756 31 701 32 l 763 36 q 744 76 747 44 q 737 106 742 96 q 719 115 732 115 q 710 106 711 115 q 708 92 710 97 q 697 86 706 86 q 644 88 646 86 q 673 103 657 94 q 695 115 689 111 q 701 122 701 119 q 710 133 701 128 q 719 158 719 139 q 686 142 696 143 q 696 160 690 149 q 701 186 701 171 q 669 257 701 201 q 647 299 650 290 l 633 336 q 603 431 603 413 l 597 431 l 567 397 q 547 382 551 392 l 558 382 l 558 374 q 428 281 511 335 l 374 263 m 389 804 q 358 788 369 797 q 339 775 346 779 q 294 746 317 764 q 272 710 272 728 l 274 706 q 294 719 276 707 q 321 732 311 732 q 333 744 326 732 q 346 757 339 757 q 356 754 347 757 l 394 793 l 389 804 m 267 642 q 308 677 283 660 q 374 719 333 694 q 428 760 428 751 l 428 765 l 415 765 q 428 782 415 774 l 432 775 q 450 783 440 779 q 465 788 460 786 l 465 782 q 443 758 464 775 q 399 724 422 740 q 363 699 392 719 l 339 678 q 261 619 281 619 q 264 631 261 624 q 267 642 267 638 m 465 721 q 443 728 464 728 q 453 740 443 739 q 470 743 464 742 q 476 754 476 744 q 480 749 478 753 q 482 743 482 746 q 476 731 482 739 q 465 721 469 724 m 467 714 q 472 713 469 714 q 475 710 474 711 q 416 678 457 700 q 353 647 375 657 l 392 690 l 419 708 q 429 699 419 699 q 450 706 436 699 q 467 714 464 714 m 515 667 q 492 644 508 660 q 465 615 476 629 q 454 590 454 601 q 476 604 458 592 q 524 628 494 617 q 518 642 521 629 q 515 667 515 654 m 426 646 q 394 619 415 638 q 363 590 372 600 q 337 572 357 586 q 300 553 317 557 q 324 581 300 558 q 376 624 347 604 q 426 646 406 643 m 436 521 q 442 494 436 507 q 460 475 449 482 q 499 510 463 479 q 526 535 510 521 q 543 551 543 550 q 539 554 543 554 q 526 552 535 554 q 510 546 518 550 q 515 561 510 558 q 538 564 521 564 q 532 601 538 585 q 499 574 521 588 q 465 546 476 560 q 483 549 472 546 q 499 551 493 551 l 499 540 q 482 535 494 536 q 461 533 469 535 q 453 525 453 532 q 456 519 453 524 q 460 513 460 515 q 457 503 460 503 q 447 510 454 503 q 436 521 440 517 m 468 446 q 476 429 468 436 q 485 415 485 422 l 482 404 q 544 429 500 407 q 588 464 588 451 q 579 475 588 475 q 561 465 571 475 q 550 454 551 456 q 504 419 525 426 l 501 424 q 535 458 501 429 q 576 488 568 488 q 565 497 576 496 q 554 499 554 497 q 558 504 554 500 q 567 517 563 508 q 560 533 567 524 q 550 542 554 542 q 508 509 540 542 q 471 464 475 476 q 496 473 479 467 q 521 479 513 479 l 521 474 q 495 460 514 471 q 468 446 476 449 m 311 517 q 315 515 313 517 q 317 513 317 513 q 244 468 258 468 q 274 496 244 475 q 311 517 304 517 m 581 436 q 542 420 574 433 q 490 389 510 407 q 471 349 471 371 q 536 393 510 358 l 543 393 q 564 413 547 393 q 581 436 581 432 m 247 419 q 189 388 219 408 q 158 360 158 368 l 158 354 q 194 374 167 357 q 231 397 221 392 l 247 419 m 136 269 q 155 290 138 271 q 224 360 172 308 l 229 357 q 238 365 233 357 q 247 374 242 374 q 242 358 247 364 q 224 342 236 351 q 212 332 221 339 q 201 315 203 325 q 169 289 183 297 q 203 305 183 293 q 231 328 224 317 q 217 306 231 315 q 178 282 203 296 q 161 272 175 281 q 147 258 147 264 q 140 263 143 258 q 136 269 136 267 m 583 364 q 562 347 581 358 q 538 335 543 335 l 533 336 q 578 364 551 364 l 583 364 m 525 304 q 549 322 532 308 q 569 338 551 325 q 603 354 586 351 q 572 324 601 350 q 536 299 542 299 l 525 299 l 525 304 m 586 315 q 625 328 603 328 q 597 304 610 304 q 586 315 586 304 m 592 244 q 610 272 592 254 q 633 289 628 289 q 641 285 638 288 q 647 282 644 283 q 615 256 643 279 q 581 233 586 233 q 577 235 579 233 q 575 239 575 236 l 586 250 l 592 244 m 197 256 q 215 259 203 257 q 236 271 228 261 l 239 265 q 218 244 239 256 q 188 232 197 233 q 181 235 185 233 q 175 239 178 238 q 167 236 172 239 q 158 233 163 233 q 201 267 176 257 l 197 256 m 636 250 q 608 225 628 239 q 575 211 588 211 l 569 213 q 572 215 569 213 q 575 217 574 217 q 605 234 586 224 q 636 250 624 244 m 651 244 q 641 225 651 235 q 619 207 631 215 q 603 194 607 199 l 592 199 q 590 186 592 189 q 578 183 588 183 q 606 218 578 197 q 651 244 633 239 m 224 228 q 236 222 228 222 q 214 199 236 217 q 181 174 192 181 q 201 197 185 183 q 224 228 221 214 m 647 201 q 569 163 610 171 q 610 187 569 165 q 669 217 650 208 q 674 201 674 213 q 644 174 664 189 q 619 156 625 160 l 618 160 q 626 170 619 163 q 636 185 632 178 q 641 183 638 185 q 647 179 644 181 l 647 201 m 683 174 q 672 158 683 165 q 651 150 661 151 l 651 156 q 664 165 651 157 q 683 174 676 172 m 169 167 q 158 155 167 161 q 144 144 149 149 l 135 146 q 150 159 139 153 q 169 167 161 165 m 188 150 q 178 135 188 150 q 153 99 172 108 q 132 88 133 89 q 128 90 131 88 q 124 94 125 93 q 147 126 124 107 q 188 150 171 146 m 82 33 q 97 59 82 44 q 125 79 113 74 q 112 47 124 68 q 90 25 100 25 q 82 33 82 25 m 322 1050 q 310 1044 313 1049 q 307 1026 308 1039 q 303 1008 307 1014 q 289 1001 300 1001 q 254 1008 272 1003 q 228 1013 246 1010 q 193 1015 210 1015 q 147 1022 169 1015 q 124 1044 125 1028 l 178 1097 q 174 1100 176 1097 q 172 1104 172 1103 q 267 1182 172 1110 l 322 1188 q 399 1150 340 1188 q 457 1121 446 1121 q 526 1144 492 1121 q 564 1169 561 1168 q 624 1154 572 1169 q 675 1131 675 1139 q 656 1099 664 1114 q 611 1039 625 1049 q 581 1017 604 1033 q 537 992 558 1000 q 492 983 515 983 q 445 992 467 983 q 389 1018 424 1000 q 322 1050 347 1043 m 303 1146 q 333 1136 303 1144 q 393 1128 363 1128 l 400 1133 q 371 1153 393 1143 q 322 1163 349 1163 l 322 1169 q 301 1160 310 1168 q 292 1139 292 1151 q 297 1144 293 1142 q 303 1146 300 1146 m 581 1126 q 563 1139 567 1132 l 557 1132 l 569 1114 l 581 1126 m 597 1122 q 612 1115 603 1118 q 626 1110 621 1111 q 635 1121 632 1110 q 639 1133 638 1132 q 597 1122 628 1126 m 274 1128 q 319 1106 283 1117 q 344 1093 344 1096 q 361 1085 344 1085 l 375 1086 l 407 1076 q 489 1054 471 1054 l 489 1061 l 447 1097 l 307 1122 l 274 1128 m 585 1068 q 560 1096 576 1081 q 531 1111 543 1111 q 512 1105 521 1111 q 501 1097 503 1099 l 579 1068 l 585 1068 m 590 1104 q 604 1090 593 1090 q 615 1093 611 1090 q 603 1099 611 1094 q 590 1104 596 1104 m 208 1101 q 228 1087 213 1097 q 250 1076 244 1076 q 258 1081 253 1076 q 263 1090 263 1085 q 208 1101 236 1101 m 271 1068 q 275 1063 272 1064 q 282 1061 278 1061 q 304 1066 292 1061 q 324 1074 317 1071 q 307 1083 324 1078 q 281 1088 290 1088 q 288 1074 281 1079 q 276 1067 286 1067 l 271 1068 m 186 1081 q 176 1076 185 1082 q 165 1068 167 1069 l 214 1068 q 199 1076 208 1071 q 186 1081 189 1081 m 514 1074 q 529 1051 517 1063 q 554 1038 542 1040 q 574 1050 561 1038 q 540 1064 558 1057 q 514 1074 522 1071 m 238 1058 q 190 1053 222 1057 q 154 1044 157 1049 l 275 1039 l 238 1058 m 417 1042 q 450 1025 436 1031 q 483 1019 464 1019 l 507 1021 q 454 1045 500 1033 q 396 1057 408 1057 l 388 1057 l 417 1042 z "},"":{"ha":1079,"x_min":-24,"x_max":1044,"o":"m 1032 72 q 1044 -7 1032 -3 q 917 -24 1026 -24 q 849 -18 896 -24 q 799 -14 819 -14 q 756 -17 793 -14 q 546 -24 718 -19 q 518 -18 538 -21 q 482 -10 510 -17 q 436 8 454 -3 q 440 74 436 43 q 443 135 443 113 l 442 168 l 436 174 l 354 174 l 332 163 l 332 168 q 318 174 328 174 q 296 170 310 174 q 275 167 282 167 l 256 168 q 243 158 247 167 q 237 138 239 149 q 233 124 235 128 q 221 109 228 111 q 211 97 214 107 q 189 35 208 90 q 157 -24 169 -19 q 149 -20 154 -24 q 133 -17 143 -17 q 100 -18 114 -17 q 76 -21 86 -19 q 18 -26 38 -26 q -5 -22 14 -24 q -24 -17 -24 -21 q -10 15 -24 -4 q 3 42 1 32 l 11 42 q 29 101 11 65 q 46 146 40 126 l 53 142 l 64 190 q 72 199 69 194 q 83 204 75 204 q 82 209 83 206 q 81 217 81 213 q 88 227 81 219 q 103 239 96 235 l 96 246 q 118 300 114 272 l 126 300 q 131 324 126 313 q 142 347 136 336 q 157 376 144 351 l 161 393 q 193 450 165 407 q 240 533 224 503 q 256 585 256 564 q 279 629 267 608 q 296 656 292 650 l 294 661 l 349 782 q 351 778 349 781 q 354 776 353 776 q 363 780 358 776 q 367 786 367 783 q 361 790 363 786 q 360 797 360 794 q 375 836 360 814 q 388 865 386 856 q 408 860 397 863 q 424 858 419 858 q 486 865 443 865 l 507 865 l 514 869 l 574 869 q 575 867 574 868 q 579 865 576 865 q 611 871 586 865 q 644 876 633 876 q 662 872 649 876 q 689 868 675 868 q 726 876 713 868 l 819 876 l 831 869 l 974 869 q 981 864 974 865 q 1000 863 988 863 q 1018 858 1013 863 q 1026 813 1022 857 q 1029 743 1029 768 l 1029 717 q 1002 708 1028 711 q 963 706 976 706 l 929 706 l 886 704 q 869 708 876 704 q 858 711 863 711 q 836 709 850 711 q 814 706 822 707 l 814 711 q 777 697 799 700 q 725 693 756 693 l 707 693 q 661 708 661 693 q 701 724 661 710 q 760 767 742 739 l 757 749 q 772 765 763 754 q 788 782 782 776 q 790 784 788 783 q 793 785 792 785 q 789 764 793 776 q 781 750 785 751 q 776 754 779 754 q 768 747 772 754 q 759 733 764 739 q 743 728 754 728 q 747 731 744 729 q 749 739 749 732 l 733 722 l 781 722 q 788 733 788 722 l 807 750 q 817 744 810 746 q 826 743 824 743 q 834 760 826 754 q 853 765 842 765 q 856 764 854 765 q 858 761 858 763 l 864 772 q 860 757 864 761 q 844 751 856 753 q 832 735 832 749 l 850 733 q 864 739 857 733 l 867 733 l 867 754 l 875 743 q 884 760 876 750 q 892 776 892 771 l 875 765 l 875 782 l 881 776 q 886 785 885 779 q 892 793 888 790 q 923 810 901 800 q 953 832 944 819 q 961 838 954 838 l 968 838 q 938 808 963 828 q 910 783 922 796 q 897 764 897 771 l 914 761 q 963 799 935 786 q 933 767 963 767 q 934 758 933 761 q 935 754 935 756 q 929 743 935 750 l 924 750 l 918 739 l 919 733 l 979 733 l 990 739 l 990 733 l 996 733 l 996 804 q 994 808 996 806 q 990 810 992 810 q 981 808 986 810 q 974 804 976 806 q 985 815 974 808 q 996 829 996 822 q 994 838 996 833 q 992 847 992 842 l 892 847 q 863 831 889 846 q 814 815 836 815 q 844 833 826 825 q 869 847 861 842 l 851 847 q 826 854 826 847 q 792 835 811 854 q 781 826 789 832 q 764 819 772 819 l 760 821 q 773 833 763 828 q 788 843 783 839 q 782 853 788 849 q 771 858 776 858 q 742 845 757 858 q 724 831 728 832 q 735 837 726 831 q 749 843 744 843 q 704 810 722 810 q 709 817 707 811 q 711 826 711 822 q 676 815 696 818 q 703 832 683 824 q 726 847 722 840 q 657 836 682 847 q 611 793 632 825 q 597 789 601 789 q 604 796 597 790 q 611 807 611 801 q 617 822 611 817 q 634 835 622 828 q 650 847 646 842 l 642 849 q 624 845 633 849 q 611 838 614 842 l 618 832 q 599 826 613 829 q 579 821 585 824 q 494 771 550 807 q 442 739 467 753 q 444 735 442 738 q 447 733 446 733 q 469 742 454 733 q 492 754 485 751 q 450 718 474 736 q 413 700 426 700 q 406 702 410 700 q 403 706 403 704 q 405 714 403 708 q 410 722 407 719 q 376 700 376 706 l 338 700 q 331 691 332 700 q 321 667 331 682 q 312 646 319 660 q 304 628 304 632 q 326 635 318 635 q 310 620 324 629 q 294 607 296 611 q 283 583 289 597 q 276 563 278 569 q 283 566 279 564 q 292 568 288 568 q 299 563 299 568 l 294 557 l 307 557 q 292 545 303 553 q 276 533 282 538 l 276 542 q 260 519 275 539 q 244 493 244 499 q 261 492 257 493 q 279 514 264 501 q 324 547 294 526 q 365 579 356 569 l 360 585 q 371 601 364 588 l 376 585 q 389 610 378 600 q 415 619 400 619 q 387 580 415 607 q 324 531 358 553 q 276 508 290 508 q 272 490 276 500 q 261 476 267 479 q 256 478 260 478 q 230 460 243 478 q 206 422 217 443 q 196 397 196 401 q 226 426 196 401 q 295 478 257 451 q 360 514 333 504 l 349 519 q 372 537 358 533 q 392 546 385 540 q 427 605 401 563 q 453 650 453 647 q 449 658 453 653 q 446 664 446 663 q 467 672 446 672 q 480 665 475 672 q 485 651 485 658 q 538 681 508 651 q 567 732 567 710 l 563 733 q 551 729 558 729 q 554 738 551 733 q 558 743 557 743 q 567 742 564 743 q 572 740 571 740 q 571 747 572 742 q 568 760 569 753 q 576 769 568 763 q 590 776 585 776 l 600 772 q 587 753 597 764 q 576 732 576 742 l 578 725 q 590 747 576 731 q 618 775 603 763 l 617 768 q 622 754 617 757 q 606 742 611 749 q 595 727 600 736 q 585 711 590 718 q 547 678 572 696 q 522 658 535 668 q 503 635 510 647 l 557 661 q 599 675 572 661 q 625 693 625 689 l 624 704 q 628 713 624 708 q 640 717 632 717 q 647 715 643 717 q 650 710 650 713 q 647 701 649 706 q 644 694 644 696 q 647 661 644 683 q 651 599 651 619 l 651 592 q 649 549 651 565 q 639 524 647 532 q 649 515 644 517 q 661 513 653 513 q 726 519 689 513 q 749 522 738 521 q 771 524 760 524 q 778 522 772 522 l 810 524 l 907 524 q 929 525 914 525 l 935 525 q 946 519 946 525 l 946 376 q 942 371 944 374 q 935 365 939 368 q 806 371 846 371 q 676 339 713 371 l 665 333 q 669 275 665 311 q 672 239 671 258 q 674 201 674 219 l 672 174 l 683 163 q 788 160 713 163 q 946 157 876 157 q 969 160 954 157 q 999 163 983 163 q 1025 153 1025 163 l 1032 124 q 1039 97 1039 99 q 1034 83 1036 90 q 1032 72 1032 76 m 425 788 q 403 779 419 786 q 373 760 388 772 q 358 733 358 749 l 360 722 q 377 748 363 738 q 408 765 392 758 q 432 775 425 772 q 403 746 424 767 q 365 711 382 725 q 403 739 392 724 l 596 843 q 556 849 579 849 l 507 847 q 470 804 493 826 q 442 776 447 782 q 435 784 440 781 q 425 788 429 788 m 397 835 q 387 817 397 833 q 376 765 376 800 q 388 782 381 779 l 475 826 l 492 843 l 461 844 q 419 832 433 844 l 414 843 q 397 835 414 843 m 792 765 q 803 774 796 767 q 813 782 811 782 q 863 813 829 789 q 896 832 888 832 q 901 830 899 832 q 903 826 903 828 q 867 799 885 814 q 849 782 849 785 q 839 788 843 788 q 835 785 835 788 q 842 782 835 782 q 824 767 839 775 q 801 760 810 760 q 792 765 797 760 m 819 793 q 864 826 832 810 q 819 793 839 799 m 574 793 q 592 808 579 803 q 607 815 604 814 q 592 803 603 813 q 574 793 582 793 m 749 815 q 733 803 740 803 l 726 804 q 735 813 732 811 q 749 815 739 815 m 711 793 q 685 781 701 788 q 661 771 668 774 l 667 782 l 711 799 l 711 793 m 631 771 q 618 775 619 771 q 642 792 635 792 q 638 786 642 789 q 633 782 633 783 q 635 776 633 779 q 639 772 638 774 l 631 771 m 563 788 q 536 775 547 775 l 529 776 q 540 784 529 781 q 557 788 551 788 l 563 788 m 618 775 l 618 775 l 618 776 l 618 775 m 676 728 q 669 721 676 721 q 656 728 663 721 q 658 735 656 731 q 661 743 660 740 l 665 739 q 676 755 667 747 q 694 765 686 763 l 704 750 q 738 772 726 772 q 741 769 739 772 q 743 765 743 767 l 718 753 q 683 739 694 742 q 677 735 681 738 q 672 733 674 733 l 676 728 m 635 749 q 651 761 642 761 l 657 760 q 648 751 653 753 q 635 749 643 749 m 492 704 l 546 750 l 547 736 q 543 719 547 722 q 529 715 539 715 q 514 711 519 714 q 506 702 511 708 q 492 696 501 696 l 492 704 m 896 739 l 914 750 l 896 750 l 896 739 m 600 717 q 611 728 603 724 q 626 733 619 733 q 631 731 628 733 q 633 728 633 729 q 617 720 626 724 q 600 717 607 717 m 371 635 q 394 652 375 635 q 414 672 414 669 l 414 678 q 354 650 390 663 q 375 672 356 661 q 417 692 394 683 q 447 706 439 701 l 447 683 l 442 689 q 397 638 439 674 q 338 601 356 603 q 350 617 343 604 q 371 635 357 629 m 535 639 q 499 622 508 633 q 490 582 490 610 q 496 519 490 540 q 504 526 499 522 q 514 531 510 529 q 520 528 517 531 q 524 524 524 525 q 496 492 496 511 q 517 501 503 499 q 535 514 531 504 l 622 553 q 629 601 629 554 q 622 613 629 611 q 593 581 613 606 q 540 535 560 539 l 524 542 q 551 559 532 547 q 580 582 569 571 q 590 607 590 593 q 549 588 581 603 q 503 574 517 574 q 517 602 503 589 q 535 618 532 615 l 540 596 q 629 628 582 628 l 629 667 q 578 629 608 643 q 546 608 556 619 l 544 617 q 566 640 543 625 q 597 661 589 656 q 569 653 592 661 q 535 639 547 646 m 299 578 q 309 589 299 582 q 325 596 319 596 q 332 592 328 596 q 321 580 332 586 q 303 574 310 574 q 299 578 299 574 m 436 546 q 412 525 429 546 q 380 478 394 504 q 365 438 365 453 q 368 433 365 436 q 371 426 371 429 q 359 401 371 418 q 347 376 347 385 l 349 372 q 408 367 368 367 q 433 365 415 367 q 464 361 450 364 q 458 413 464 379 q 451 465 451 440 q 455 481 451 471 q 458 494 458 490 q 456 503 458 499 q 453 513 453 508 l 454 543 q 447 579 454 569 q 440 569 440 578 l 442 556 q 436 546 442 550 m 492 438 q 506 454 493 443 q 524 465 518 465 q 528 463 526 465 q 529 458 529 461 q 546 483 533 472 q 581 507 558 493 q 618 535 604 521 q 601 529 611 535 q 585 521 590 524 q 492 478 525 490 l 492 438 m 288 492 q 308 511 289 501 q 338 521 328 521 l 338 514 q 318 501 333 513 q 294 490 303 490 l 288 492 m 189 382 q 172 352 188 382 q 157 311 157 322 q 210 353 171 328 q 233 369 213 356 q 265 399 253 382 l 267 393 q 250 365 267 379 q 283 372 272 365 q 311 396 294 379 q 338 419 324 411 q 308 404 324 419 q 299 396 307 403 q 279 389 290 389 q 289 405 279 396 q 310 424 299 414 q 332 444 324 433 l 304 447 q 347 468 329 451 q 371 508 365 485 l 367 510 q 333 489 354 510 q 314 473 324 481 q 294 465 304 465 q 271 443 290 465 q 239 419 251 421 l 240 415 q 242 410 240 414 q 244 404 244 407 q 229 394 244 403 q 206 382 214 385 l 189 382 m 656 486 q 635 476 650 482 q 608 464 619 469 q 523 425 556 443 q 490 389 490 407 q 507 358 490 378 q 525 336 524 339 q 511 318 525 326 q 485 304 497 310 l 492 300 q 522 317 500 304 q 563 337 543 329 q 596 344 582 344 q 603 342 600 344 q 607 336 607 340 q 564 301 607 325 q 518 267 521 279 l 607 304 l 626 304 q 607 268 626 285 q 567 240 588 251 q 540 224 547 228 q 519 203 535 221 q 503 185 504 185 q 499 186 501 185 q 496 190 497 188 q 490 171 494 181 q 485 135 485 161 q 535 168 535 168 q 556 188 543 175 q 578 210 568 201 q 600 218 589 218 l 618 239 q 592 227 611 236 q 563 218 574 218 q 591 237 563 222 q 642 261 619 251 l 642 333 l 656 343 q 639 341 649 343 q 622 339 629 339 q 642 364 632 343 q 656 386 649 378 q 675 394 663 394 l 683 388 l 694 410 l 700 404 q 706 411 706 410 l 704 415 q 727 436 710 419 q 761 463 744 453 q 790 474 778 474 l 792 469 q 771 447 792 468 q 744 435 761 447 q 701 399 728 422 q 676 376 690 388 q 706 388 689 376 q 733 399 722 399 q 739 390 735 399 q 760 382 743 382 q 822 414 778 382 q 869 458 867 446 l 864 460 q 841 454 851 460 q 815 438 831 449 q 789 421 800 426 q 765 415 778 415 l 771 426 q 824 453 775 429 q 903 476 872 476 l 896 465 l 842 415 l 849 414 q 881 429 863 414 q 911 443 900 443 q 915 472 911 454 q 918 500 918 490 q 907 508 918 508 q 856 506 889 508 q 803 501 829 501 q 765 506 786 501 q 740 510 744 510 q 689 503 715 510 q 667 471 686 488 q 613 428 649 454 q 551 376 565 394 q 557 365 557 374 q 543 354 557 354 q 535 358 540 354 q 529 365 531 361 q 594 428 543 382 l 656 486 m 615 510 q 557 474 599 507 q 514 426 515 442 q 551 449 522 433 q 592 471 581 465 q 624 489 624 488 q 619 498 624 493 q 615 510 615 503 m 614 390 l 568 365 l 567 372 q 570 378 567 375 q 579 382 574 382 q 629 408 586 385 q 687 438 657 424 q 738 458 717 453 l 749 465 l 743 453 l 700 431 l 700 438 q 683 419 692 419 l 683 431 q 667 416 681 429 q 650 399 654 403 q 646 403 650 401 q 642 406 642 404 l 614 390 m 256 410 l 254 415 q 268 433 254 425 q 294 442 282 440 l 256 410 m 918 411 q 911 432 918 432 q 894 427 901 432 q 879 413 888 422 q 866 400 874 406 q 849 394 858 394 l 857 393 q 878 396 864 393 q 900 399 892 399 q 918 393 913 399 l 918 411 m 233 235 q 268 268 240 249 q 299 294 293 286 l 304 289 q 333 322 308 304 q 376 343 357 340 q 351 347 367 344 q 327 351 336 349 q 318 360 318 354 l 321 365 q 301 355 311 363 q 280 343 290 347 q 256 339 269 339 q 270 346 263 340 q 278 357 278 351 l 276 361 q 251 348 268 354 q 225 342 233 342 q 196 322 213 342 q 161 300 176 303 l 151 304 q 124 276 143 276 q 129 267 124 271 q 125 253 126 263 q 124 238 124 243 q 156 264 129 238 q 210 311 189 294 q 250 328 231 328 q 212 299 246 324 q 178 263 178 274 q 175 260 178 260 q 168 261 171 260 q 131 227 167 256 q 85 196 94 199 l 92 190 l 25 42 q 18 25 24 36 q 13 8 13 14 q 100 71 21 8 q 141 103 114 82 q 172 124 168 124 q 197 153 197 149 q 151 131 188 153 q 107 103 115 108 l 107 110 q 90 94 106 110 q 68 79 74 79 q 65 85 65 79 q 77 105 65 93 q 114 124 89 117 l 107 131 q 132 144 115 138 q 157 150 149 150 q 160 147 160 150 q 151 136 160 142 q 138 129 142 131 q 160 140 146 129 q 183 163 175 151 q 169 158 179 158 q 188 182 169 168 q 222 201 207 196 l 229 190 l 229 214 q 203 203 219 214 q 175 190 188 190 q 182 206 175 200 q 204 217 189 211 q 233 235 225 225 m 507 340 q 491 331 504 340 q 469 315 478 322 l 475 311 q 493 324 479 311 q 507 340 507 338 m 436 207 q 458 199 443 201 q 481 190 474 196 l 503 213 l 507 207 q 533 229 513 210 q 579 257 554 249 l 574 261 q 585 267 578 264 q 597 276 593 271 q 601 290 601 281 q 578 285 589 290 q 550 268 568 281 q 524 251 535 257 q 503 246 514 246 q 509 250 506 247 q 514 257 513 253 l 507 272 q 551 300 535 300 l 590 339 q 563 322 571 336 l 481 283 q 441 258 471 276 q 403 239 411 239 q 392 246 394 239 q 349 213 390 213 q 362 222 349 214 q 381 235 375 229 l 365 235 l 386 254 q 410 278 410 272 l 381 267 q 346 244 371 261 q 325 230 342 242 q 299 218 308 218 q 295 222 297 219 q 293 225 293 224 q 346 265 293 228 q 419 322 411 313 l 414 322 l 332 283 q 365 311 346 297 l 365 318 q 345 308 357 318 q 324 297 333 297 l 324 278 l 315 283 q 310 276 311 282 q 304 267 310 269 l 299 272 q 275 253 292 265 q 249 238 258 242 q 257 228 249 232 q 265 217 265 225 q 281 194 265 194 q 340 198 294 194 q 414 207 385 201 l 414 218 l 447 239 l 453 235 q 474 253 457 247 q 496 272 492 258 l 496 261 l 469 235 q 479 237 474 235 q 492 239 485 239 q 464 224 485 229 q 451 219 461 222 q 436 207 440 215 m 310 311 l 200 228 l 190 224 q 192 233 190 226 q 197 240 193 240 q 231 261 206 240 q 265 294 256 282 q 240 284 260 292 q 210 276 221 276 l 206 278 q 251 308 217 296 q 310 319 286 319 l 310 311 m 425 272 q 444 292 431 281 q 461 306 457 303 q 438 297 456 306 q 419 281 419 288 q 425 272 419 272 m 465 296 q 449 284 458 292 q 436 272 440 276 l 436 267 q 456 277 444 269 q 468 289 468 285 l 465 296 m 622 186 q 606 181 615 186 q 594 174 597 175 q 563 158 576 158 q 574 173 563 167 q 608 188 585 179 q 644 207 644 197 l 644 250 l 639 239 q 613 221 628 232 q 590 201 599 210 l 564 181 q 481 108 482 117 l 485 69 q 513 99 497 88 q 558 129 529 111 q 587 148 563 132 q 629 185 611 164 l 622 186 m 100 160 q 119 188 100 174 q 157 211 139 201 q 179 224 175 221 q 174 210 179 215 q 157 199 169 206 q 140 185 144 192 l 146 179 l 135 168 l 129 174 q 100 160 124 160 m 518 190 q 538 209 525 199 q 557 224 551 219 q 518 190 550 201 m 189 163 q 224 176 224 163 q 218 185 224 179 q 202 178 215 183 q 189 163 189 174 m 686 38 q 711 67 692 44 q 733 86 731 89 l 754 114 q 661 57 704 86 q 590 15 618 26 q 587 17 589 15 q 585 19 585 18 q 618 54 593 32 l 639 75 l 644 69 q 667 96 650 79 q 689 119 682 106 l 644 97 q 643 103 643 97 q 665 124 643 117 l 665 131 q 638 110 653 128 q 626 100 636 108 q 607 92 617 92 q 602 94 604 92 q 600 97 600 96 q 625 115 610 99 q 640 142 640 132 l 639 146 q 626 140 633 144 q 613 136 618 136 q 622 152 613 146 q 638 164 632 158 q 644 179 644 169 q 611 157 611 157 q 601 141 606 154 q 590 124 597 128 l 590 138 q 575 132 581 138 q 563 114 569 126 q 551 97 557 101 l 551 108 q 521 81 546 101 q 492 53 501 64 l 496 47 l 481 38 q 518 26 508 33 q 497 20 508 26 q 485 4 485 14 l 507 15 q 526 12 514 14 q 546 8 539 10 l 661 8 l 686 38 m 1011 4 q 1006 18 1007 8 q 1006 43 1006 28 q 1007 69 1006 65 q 968 42 981 57 q 965 44 967 42 q 963 47 963 46 q 974 64 963 57 q 994 77 986 71 q 1001 94 1001 83 q 1000 103 1001 101 q 978 81 990 94 q 957 58 965 68 q 946 40 951 51 q 933 21 940 28 q 914 14 926 14 l 907 15 q 949 60 919 25 q 985 108 978 94 q 969 102 979 107 q 953 97 960 97 q 969 116 953 110 q 1000 124 985 122 l 1000 136 q 964 131 989 136 q 939 118 939 126 q 940 114 939 115 l 903 69 l 907 64 q 876 40 894 61 q 853 19 863 24 q 847 29 851 21 l 878 61 q 924 108 896 83 l 917 110 q 872 90 914 107 q 826 53 829 74 l 819 58 l 792 31 l 792 53 l 842 103 l 833 104 q 780 76 819 104 q 726 31 740 49 l 722 42 q 849 121 768 81 q 856 116 850 121 q 864 108 861 111 q 851 94 851 99 q 856 89 851 89 q 890 107 865 89 q 924 131 915 125 q 907 129 921 129 q 890 133 899 129 q 844 136 881 136 q 797 135 818 136 q 776 131 776 133 l 776 119 l 749 81 l 743 81 q 722 60 740 78 q 704 31 704 42 l 714 31 q 704 17 714 22 q 689 8 694 13 q 711 4 696 4 q 744 8 736 4 q 758 22 751 13 q 781 42 768 35 l 782 33 q 769 17 782 25 q 757 4 757 10 l 1011 4 m 726 135 q 700 113 715 122 q 665 75 665 86 q 685 85 672 76 q 703 97 697 93 q 749 124 735 124 l 749 135 l 726 135 m 165 76 q 176 93 167 81 q 185 114 185 106 l 183 124 q 121 69 169 106 q 53 31 72 33 l 57 26 q 51 19 51 21 q 54 15 51 15 q 74 25 60 15 q 93 38 89 35 q 142 64 131 64 q 147 60 147 64 q 105 29 147 50 q 36 -1 63 8 q 103 4 74 -1 q 104 1 103 3 q 107 -1 106 -1 q 135 9 125 -1 q 154 42 144 19 q 163 59 156 46 q 179 81 169 72 l 165 76 m 943 93 q 933 81 943 88 q 918 69 922 74 q 943 93 918 93 m 596 81 q 585 68 588 76 q 579 53 583 60 q 557 40 575 47 l 557 47 l 590 81 l 596 81 m 611 75 q 594 63 606 63 q 607 81 594 71 l 611 75 z "},"B":{"ha":815,"x_min":85,"x_max":776,"o":"m 611 474 q 733 400 690 438 q 776 303 776 363 q 767 167 776 214 q 722 84 757 119 q 611 17 688 49 q 497 -6 558 4 q 408 -17 436 -17 q 260 -10 343 -17 q 157 -4 226 -7 q 132 2 150 -4 q 114 17 114 8 l 114 139 l 118 143 q 110 183 114 144 q 107 243 107 222 q 108 249 108 244 q 105 258 108 251 q 101 269 101 264 q 104 286 101 275 q 103 346 104 321 q 100 389 101 371 q 96 489 96 439 q 98 506 96 489 q 103 533 100 522 q 85 776 85 539 q 106 870 85 847 q 174 893 128 893 l 190 893 q 240 888 211 889 q 276 886 268 886 q 306 885 282 886 q 349 882 331 885 q 381 874 368 879 q 399 870 385 871 q 419 869 413 869 q 555 853 494 868 q 644 790 615 839 q 683 714 671 746 q 694 643 694 682 q 674 551 694 590 q 611 474 654 511 m 121 747 q 124 708 121 733 l 125 672 q 124 649 125 657 q 183 688 131 654 l 233 719 q 263 741 242 724 q 289 764 285 758 q 292 759 289 761 q 297 757 296 757 q 301 761 299 757 q 304 769 304 765 l 311 764 q 325 789 318 782 q 343 802 332 796 q 360 813 354 808 l 360 824 q 342 815 353 819 q 325 808 331 810 l 318 810 q 339 827 318 818 q 372 836 360 836 q 360 845 372 840 q 343 851 349 850 q 331 844 338 849 q 315 835 324 839 l 311 840 q 297 826 308 833 q 282 815 286 818 q 294 833 282 819 q 311 851 306 846 l 283 856 l 146 856 q 138 860 142 856 q 135 867 135 864 q 122 829 122 861 l 124 808 l 118 813 l 118 779 q 131 783 131 779 q 128 790 131 786 q 126 797 126 794 l 132 797 l 135 786 q 128 778 135 785 q 118 769 122 772 q 135 764 133 769 q 120 757 129 763 q 107 747 111 751 l 121 747 m 208 846 q 200 840 208 840 q 205 844 203 843 q 208 846 207 844 m 233 844 q 218 833 228 833 l 211 835 l 233 844 m 256 829 q 247 822 253 825 q 239 818 240 819 l 239 829 l 272 844 q 270 831 272 836 q 261 824 268 826 l 256 829 m 283 844 l 294 844 l 283 835 l 283 844 m 165 811 q 160 815 164 811 q 157 824 157 818 q 172 833 161 825 q 186 842 182 842 l 190 840 q 183 821 190 831 q 165 811 175 811 m 385 838 q 373 805 385 822 q 353 786 361 788 q 388 798 364 788 q 419 818 413 808 l 475 818 q 438 782 469 803 q 423 771 432 778 q 410 758 414 764 q 475 786 435 774 q 465 770 475 776 q 435 756 456 764 q 399 736 404 744 q 427 731 410 736 q 449 725 444 725 q 469 740 456 726 q 492 764 483 753 l 496 747 q 503 769 499 763 q 517 781 508 775 q 529 790 525 788 l 529 797 q 519 793 525 793 q 514 797 515 793 l 503 790 l 503 801 q 546 813 528 807 q 385 838 494 838 m 272 808 q 256 796 272 804 q 233 785 240 788 l 229 786 q 251 801 235 793 q 272 818 267 810 l 272 808 m 283 731 q 292 725 285 725 q 347 730 333 725 q 371 751 360 735 q 392 775 382 765 q 424 793 399 782 q 453 808 443 800 q 369 781 424 808 q 283 731 314 753 m 568 808 q 562 796 567 800 q 545 788 557 792 q 529 779 533 785 q 515 767 522 775 q 507 751 508 760 q 536 762 521 754 q 557 779 551 769 l 563 775 l 585 779 q 588 783 586 781 q 593 786 590 786 q 581 794 592 788 q 568 808 571 801 m 190 801 q 174 785 185 792 q 151 779 163 779 q 155 785 151 783 q 169 792 158 788 q 190 801 179 796 m 267 779 q 289 797 276 792 l 289 790 l 267 779 m 351 786 m 211 775 l 222 775 l 211 769 l 211 775 m 622 751 q 618 775 618 756 q 583 751 608 769 q 542 719 557 733 q 592 739 556 719 q 622 751 618 750 m 244 769 q 211 747 226 747 l 229 764 l 229 758 l 244 769 m 486 693 q 502 706 493 694 q 517 718 511 718 q 549 740 524 718 q 574 758 568 757 l 574 764 q 545 758 558 764 q 514 742 532 753 l 489 729 q 484 735 486 729 q 481 740 482 740 q 474 724 481 732 q 458 714 468 717 q 486 693 474 699 m 196 740 q 185 727 196 731 q 166 721 174 724 q 157 708 158 718 l 146 714 q 153 728 147 724 q 172 740 158 733 q 185 758 185 747 q 188 756 186 758 q 190 751 190 754 q 185 736 185 743 l 196 740 m 524 671 q 574 701 536 675 q 613 731 613 728 q 554 713 596 731 q 507 686 513 694 q 517 680 510 683 q 524 671 524 676 m 633 719 q 599 700 629 717 q 542 660 569 683 l 622 697 l 629 697 q 639 703 639 697 q 637 712 639 707 q 633 719 635 717 m 157 643 q 218 667 183 647 q 253 710 253 686 q 228 700 243 710 q 207 682 213 690 l 200 686 l 196 675 l 190 682 q 185 669 189 674 q 169 660 181 665 q 146 638 149 651 l 157 643 m 294 693 q 283 656 290 693 q 276 601 276 619 q 283 590 276 596 q 290 579 290 583 q 287 575 290 578 q 283 571 283 572 q 285 565 283 568 q 289 560 288 561 q 297 573 293 563 q 310 583 300 583 q 346 571 326 583 q 379 560 368 560 q 408 565 389 560 q 438 571 428 571 q 440 569 438 571 q 442 567 442 568 q 467 593 447 579 q 489 615 482 604 q 496 646 496 625 q 450 679 496 654 q 392 704 404 704 q 374 698 386 704 q 356 692 363 692 q 348 694 351 692 q 340 697 344 697 q 333 693 336 697 l 294 693 m 557 638 q 588 654 565 646 q 629 682 618 668 q 584 669 611 682 q 557 638 557 656 m 656 671 q 632 664 644 671 q 611 649 619 657 l 618 643 q 639 647 628 646 q 656 649 650 649 l 656 636 q 622 619 647 636 q 590 599 597 603 q 542 567 550 569 q 553 556 553 567 q 525 535 553 550 q 488 514 497 519 q 403 467 424 482 q 391 454 396 461 q 376 444 386 447 q 391 471 376 454 q 419 489 406 488 l 419 483 q 453 508 431 496 q 481 528 471 519 q 496 550 492 538 l 503 544 l 514 556 q 488 560 500 560 q 456 543 485 560 q 413 526 426 526 q 388 530 404 526 q 363 533 372 533 q 331 524 347 533 q 290 496 315 514 q 271 481 288 493 q 239 463 254 468 q 244 476 239 469 q 256 489 249 483 q 233 481 249 489 q 211 474 217 474 q 226 485 217 482 q 238 490 235 489 q 267 511 258 499 q 262 517 264 511 q 258 533 260 522 q 236 517 254 533 q 213 500 218 500 q 196 489 211 500 q 174 474 181 478 q 162 458 165 468 q 146 440 158 447 l 140 444 l 129 424 q 135 413 129 413 l 135 329 q 176 350 146 329 q 231 396 206 371 q 257 431 257 421 q 239 424 249 431 q 244 433 240 425 q 256 440 247 440 q 267 435 265 440 l 272 444 l 276 440 l 300 463 l 304 456 q 333 479 306 460 q 365 500 360 499 q 376 498 371 500 q 386 496 382 496 q 342 464 386 493 q 288 425 326 453 q 244 390 250 397 q 267 394 257 390 q 285 404 276 399 q 311 418 299 415 q 315 415 313 415 q 333 430 319 415 q 360 444 347 444 q 364 442 363 444 q 367 440 365 440 q 333 419 367 439 q 288 392 300 399 q 296 388 288 390 q 311 385 304 385 q 330 390 318 386 q 349 396 342 394 q 421 393 371 396 q 494 390 471 390 q 507 396 507 390 l 492 396 q 515 413 496 404 q 542 429 533 418 q 540 433 542 431 q 535 435 538 435 q 489 421 517 435 q 442 407 458 407 q 460 426 449 417 q 475 435 471 435 l 486 429 q 517 438 499 431 q 535 454 535 446 q 663 643 663 532 q 656 671 663 664 m 250 664 q 193 619 226 647 q 146 578 160 590 q 169 583 160 578 q 192 597 179 588 q 218 610 207 610 q 241 628 233 610 q 250 664 249 646 m 124 571 q 147 588 128 574 q 183 619 165 603 q 200 643 200 636 l 200 649 q 150 628 188 640 q 124 615 124 618 l 124 571 m 533 626 q 545 631 540 626 q 550 642 550 635 q 549 649 550 646 q 533 626 533 643 m 129 643 l 129 636 q 140 643 139 636 l 129 643 m 599 622 q 584 619 592 622 q 574 610 576 615 l 579 604 q 592 612 585 604 q 599 622 599 619 m 222 599 q 135 556 199 581 q 128 525 128 544 l 129 511 q 149 531 133 515 q 175 549 165 546 q 200 572 178 553 q 222 599 222 590 m 244 593 q 200 558 231 585 q 158 514 169 532 q 246 579 246 546 l 244 593 m 546 582 q 541 589 544 585 q 535 593 538 593 q 512 585 528 592 q 496 574 496 579 q 499 567 496 569 q 507 565 503 565 q 525 572 513 567 q 546 582 538 576 m 621 593 q 631 588 625 592 q 639 582 638 585 q 585 544 621 557 l 585 571 q 590 564 589 567 q 593 561 592 561 q 604 577 596 561 q 621 593 613 593 m 574 560 l 563 560 q 574 568 565 568 l 574 560 m 335 550 q 331 551 333 551 q 311 544 322 551 q 300 531 300 536 q 301 526 300 528 q 322 534 310 526 q 335 550 333 542 m 574 536 q 553 526 563 536 q 535 515 543 515 l 535 521 q 547 531 536 522 q 574 550 557 539 l 574 536 m 128 482 q 131 475 128 481 q 135 467 135 469 q 129 460 131 465 q 128 449 128 456 q 175 482 138 449 q 229 533 213 515 l 222 533 l 168 506 q 142 499 156 506 q 128 482 128 492 m 579 524 q 596 515 596 524 q 587 499 596 506 q 562 484 578 492 q 542 472 546 476 q 540 479 540 474 q 546 490 540 486 q 566 500 551 494 q 585 511 581 506 l 563 511 q 567 522 563 519 q 579 524 571 524 m 553 506 q 514 479 553 496 q 464 463 475 463 q 469 478 468 467 q 472 494 469 489 q 486 500 475 500 q 482 490 483 497 q 481 478 481 482 q 490 484 488 479 q 494 495 493 489 q 496 506 494 501 l 503 500 q 510 513 507 510 q 515 517 514 517 q 509 504 515 513 q 503 493 503 496 l 506 488 l 553 511 l 553 506 m 451 478 q 457 468 451 469 q 403 435 429 435 q 428 457 407 439 q 451 478 449 474 m 496 440 q 508 460 497 450 q 529 474 518 471 q 496 440 529 450 m 146 390 q 169 415 151 396 q 202 449 186 435 q 229 463 218 463 q 213 438 228 453 q 181 410 197 424 q 151 385 164 397 l 146 390 m 600 440 q 585 435 594 440 q 574 429 575 431 q 607 440 600 429 l 600 440 m 214 415 q 233 429 214 429 q 214 415 233 415 m 629 429 q 567 407 615 429 q 518 381 518 385 q 563 363 544 381 q 578 383 567 372 q 601 401 589 393 q 621 415 613 408 q 629 429 629 422 m 667 407 q 660 415 665 410 q 653 419 656 419 q 590 369 632 418 q 628 383 610 374 q 656 407 647 393 l 656 396 l 667 407 m 683 390 q 624 374 668 390 q 574 347 579 358 q 592 331 583 342 q 607 314 600 319 q 651 357 621 335 q 689 390 676 376 l 683 390 m 700 379 q 679 360 693 369 q 660 346 665 350 q 629 325 638 332 q 678 338 640 325 q 717 361 717 351 l 700 379 m 379 132 q 403 126 388 132 q 428 121 419 121 q 544 156 497 121 q 590 258 590 190 q 530 340 569 318 q 424 363 490 363 l 349 361 l 333 363 q 315 349 331 349 l 296 350 q 284 344 286 350 q 282 306 282 338 q 315 150 282 161 q 365 132 321 147 l 379 132 m 179 331 q 142 321 153 331 q 129 286 132 311 l 135 286 q 178 313 136 288 q 219 353 219 338 q 198 342 210 353 q 179 331 186 331 m 151 269 q 165 290 153 282 q 200 308 178 299 q 230 323 219 317 q 240 339 240 329 q 240 343 240 340 q 239 347 240 346 q 193 314 226 331 q 162 294 172 303 q 151 269 151 285 m 619 268 q 656 297 625 274 q 700 336 686 321 q 650 321 689 336 q 611 300 611 306 q 615 285 611 294 q 619 268 619 275 m 738 314 q 735 324 738 315 q 726 336 733 332 q 700 313 714 325 q 678 297 686 301 q 703 306 686 297 q 731 315 721 315 l 738 314 m 239 303 q 219 279 228 292 q 196 254 203 260 q 169 235 183 244 q 146 215 156 226 q 208 235 181 215 q 239 258 235 256 l 239 303 m 715 297 q 651 274 681 297 q 622 225 622 251 q 625 221 622 222 q 633 215 628 219 q 637 217 635 215 q 639 221 639 219 q 654 245 644 236 q 683 267 664 254 q 722 297 711 283 l 715 297 m 140 275 q 133 243 133 275 l 142 243 l 140 232 q 146 225 140 226 q 151 235 147 228 q 163 243 154 243 l 200 281 l 200 293 l 146 264 l 140 275 m 442 11 q 488 17 469 11 q 518 40 507 24 l 492 29 q 514 55 492 36 q 546 74 536 74 l 535 63 l 539 61 q 551 74 546 65 q 563 89 557 83 q 579 94 568 94 l 568 83 l 574 83 q 631 126 579 83 q 672 160 667 157 q 621 140 651 160 q 595 127 608 133 q 568 121 582 121 q 653 182 599 133 l 694 215 q 709 226 700 219 q 722 236 718 232 l 722 244 q 691 233 717 244 q 661 221 665 222 q 686 240 667 224 q 715 258 706 256 l 722 254 q 739 281 739 261 l 738 293 q 650 225 704 268 q 610 176 651 218 q 589 152 604 169 q 574 132 574 135 l 546 113 q 518 94 522 94 q 516 96 518 94 q 514 100 514 97 q 510 92 513 97 q 506 88 507 88 q 496 94 500 88 q 510 106 506 100 q 454 95 478 106 q 410 63 431 85 q 394 39 403 56 q 376 13 388 19 l 442 11 m 683 182 q 717 199 701 189 q 733 215 733 208 q 726 232 733 224 q 704 207 725 221 q 672 193 683 193 l 650 167 l 656 165 q 665 168 661 165 q 672 178 669 171 l 678 171 l 683 182 m 200 221 q 140 199 165 201 l 140 160 l 146 160 l 200 215 l 200 221 m 222 207 q 196 183 222 197 q 163 160 168 168 l 168 160 q 209 180 179 160 q 239 206 239 200 q 237 215 239 210 q 233 221 235 219 q 221 211 221 217 l 222 207 m 256 178 q 215 149 243 164 q 192 133 211 146 q 163 100 174 119 q 267 156 203 113 l 256 178 m 628 61 q 701 111 675 88 q 728 171 728 135 l 726 178 q 688 144 714 161 q 644 128 663 128 l 629 106 l 622 106 q 567 68 611 106 q 522 21 522 31 q 600 44 563 21 l 628 61 m 218 167 q 176 151 213 167 q 140 128 140 135 l 146 117 q 182 140 154 126 q 203 153 193 146 q 218 167 214 160 m 163 26 q 186 19 163 22 q 231 15 210 15 q 349 74 335 15 q 290 41 322 53 q 226 29 258 29 q 233 48 226 40 q 253 66 239 56 q 272 83 267 76 q 294 103 276 89 q 314 121 311 118 l 300 121 q 272 128 279 121 q 231 114 254 128 q 207 83 208 100 l 206 92 q 211 111 206 104 q 204 113 208 113 q 195 106 197 113 q 192 88 193 100 q 190 74 192 76 q 173 59 183 65 q 157 44 163 53 l 163 40 l 218 67 q 239 76 222 67 q 267 89 256 85 q 216 53 258 79 q 163 26 174 26 m 388 106 q 362 113 376 110 q 338 117 347 115 q 291 80 324 107 q 258 50 258 53 q 388 106 310 50 m 349 11 q 366 22 356 11 q 381 44 376 32 q 398 63 383 50 q 415 83 413 75 q 412 92 415 86 q 408 100 408 97 l 399 100 q 402 88 401 94 q 403 81 403 81 q 392 78 403 79 q 371 67 382 78 l 381 67 q 337 26 357 32 q 315 17 317 19 q 349 11 333 11 m 135 44 q 190 94 178 81 l 182 96 q 135 78 165 96 q 140 69 140 76 l 140 64 q 135 44 140 51 m 403 81 m 486 78 q 475 67 486 67 l 486 78 z "},"C":{"ha":788,"x_min":32,"x_max":742,"o":"m 726 169 q 735 82 726 132 q 739 50 736 74 q 742 3 742 26 q 738 -21 742 -15 q 690 -15 715 -15 l 629 -17 q 546 -10 590 -17 q 494 -1 501 -3 l 446 7 q 306 36 354 21 q 231 72 258 51 q 154 143 204 93 q 118 208 147 150 l 103 236 l 43 390 q 35 429 39 401 q 32 479 32 457 q 40 525 32 503 q 199 781 90 675 q 468 888 308 888 q 544 885 494 888 l 611 883 q 692 874 658 883 q 733 829 725 864 q 733 821 733 829 q 732 776 732 813 q 733 746 732 757 l 739 692 q 722 674 739 674 q 701 691 717 674 q 678 714 685 708 q 624 733 653 729 q 550 736 594 736 q 442 719 503 736 q 334 672 382 701 q 274 610 286 643 q 235 485 253 556 q 217 375 217 415 q 228 332 217 363 q 240 285 240 301 q 256 260 240 278 q 272 236 272 242 q 297 204 272 219 q 354 180 322 189 q 400 171 386 171 q 438 172 421 171 q 471 175 456 174 q 581 182 524 182 q 683 210 615 182 q 703 217 692 213 q 718 221 714 221 q 728 214 725 221 q 726 169 726 200 m 421 861 q 401 839 419 851 q 378 822 382 826 l 372 833 q 363 817 369 822 q 342 804 356 811 q 324 794 331 799 q 317 779 318 789 l 328 779 l 449 840 q 458 845 451 843 q 469 850 465 847 q 421 861 456 857 m 492 861 q 486 840 492 849 q 469 822 481 832 l 465 829 q 456 813 463 819 q 435 796 449 806 q 415 779 421 786 q 462 795 429 779 q 504 822 494 811 l 515 811 l 515 832 q 521 831 517 832 q 529 829 525 829 q 537 840 532 829 q 549 850 542 850 q 557 848 551 850 q 563 840 563 846 q 550 834 558 838 q 540 826 542 831 q 538 814 538 822 q 533 816 536 814 q 525 818 529 818 q 516 807 521 814 q 508 796 511 800 l 574 829 q 579 828 575 828 q 606 841 589 828 q 629 856 624 854 q 606 861 624 861 q 575 858 594 861 q 547 856 558 856 q 492 861 513 856 m 667 856 q 656 854 663 856 q 646 850 650 853 l 651 844 q 628 825 644 836 q 610 810 618 818 q 601 796 601 803 l 674 829 q 696 833 690 829 q 681 846 690 839 q 667 856 672 853 m 207 757 l 378 844 l 378 850 q 336 836 369 850 q 289 818 307 824 q 274 805 286 813 q 247 790 261 797 q 207 764 213 774 l 207 757 m 75 382 q 97 325 75 374 q 125 275 119 276 q 135 284 128 276 q 153 292 143 292 l 142 275 q 178 286 151 279 q 204 294 204 293 q 202 315 204 308 q 192 322 200 322 l 192 346 l 176 340 q 168 341 174 340 q 163 346 163 342 q 178 351 168 349 q 192 357 189 354 l 192 407 l 169 407 l 169 419 q 190 428 185 419 q 198 450 196 438 q 201 467 200 463 q 179 446 190 460 q 136 411 165 425 q 144 427 136 419 q 167 446 151 435 q 192 467 181 456 q 119 450 140 467 l 119 461 q 147 471 128 463 q 169 478 153 472 q 199 483 186 483 q 215 511 207 483 q 224 549 224 539 q 192 535 206 544 q 161 510 179 526 q 128 485 142 493 q 97 472 115 476 q 142 504 103 479 q 182 530 168 519 q 196 549 196 540 l 147 522 l 142 521 q 133 523 135 521 q 131 533 131 525 l 201 565 q 211 560 207 560 q 230 573 221 560 q 251 614 239 586 q 274 653 268 647 q 263 647 267 647 l 251 649 l 251 669 q 241 654 242 665 q 238 638 240 643 q 218 631 235 632 q 217 638 217 632 q 226 644 217 643 q 236 653 236 646 l 235 658 l 224 653 q 245 674 225 667 q 297 688 265 682 q 315 691 303 689 q 333 696 328 693 q 376 719 339 701 q 457 750 414 736 q 531 764 500 764 q 552 774 542 764 q 569 790 563 785 q 595 808 572 790 q 618 829 618 825 l 611 832 l 601 829 q 543 801 590 824 q 458 764 496 778 q 456 774 458 772 q 446 775 453 775 q 433 773 438 775 q 426 764 429 771 q 419 768 425 768 q 415 764 415 768 q 393 749 415 757 q 361 735 371 740 q 356 731 358 733 q 351 728 354 729 q 347 731 350 728 q 343 735 344 735 q 368 754 349 743 q 393 774 388 765 l 400 768 q 404 779 404 769 l 404 785 l 438 822 q 424 813 433 819 q 408 806 414 806 q 404 807 406 806 l 296 757 q 289 768 296 765 q 276 746 286 750 q 246 742 267 742 l 246 751 l 289 779 q 294 778 290 778 q 303 785 299 778 q 311 801 308 793 l 224 757 q 190 735 211 757 q 168 697 168 714 q 181 692 175 697 l 257 729 l 261 728 q 274 734 265 728 q 289 740 283 740 q 300 735 300 740 q 262 707 300 731 q 213 681 224 683 q 210 688 213 685 q 206 692 207 690 q 192 682 204 690 q 171 674 179 674 q 164 678 168 675 q 158 686 160 682 q 141 653 153 671 q 117 619 129 636 q 77 559 90 585 q 64 501 64 533 l 65 450 q 63 436 65 444 q 58 422 61 428 l 69 429 l 76 390 l 75 382 m 618 764 q 646 788 626 774 q 674 811 660 797 l 667 813 q 651 801 657 813 q 606 786 629 793 q 572 774 586 781 q 557 764 557 768 l 618 764 m 696 811 q 673 797 689 811 q 657 778 657 782 q 678 785 661 778 q 696 796 694 793 l 696 811 m 504 807 q 486 800 499 803 q 467 794 474 797 q 461 778 461 790 q 504 807 478 778 m 707 722 q 704 757 707 735 q 700 790 700 774 q 678 776 690 788 q 653 764 665 764 q 648 769 651 764 q 643 775 644 775 q 635 757 635 775 q 681 737 658 750 q 707 722 704 724 m 201 650 q 174 642 193 650 q 144 632 157 632 q 169 647 144 639 q 201 656 193 656 l 201 650 m 153 565 q 194 596 171 572 q 217 614 208 608 q 239 619 226 619 q 224 594 239 606 q 190 574 208 583 q 163 560 171 565 l 153 565 m 140 608 q 147 606 143 608 q 154 601 151 604 q 141 593 150 599 q 126 586 132 588 q 132 601 128 594 q 140 608 136 608 m 181 592 q 147 574 175 589 q 114 558 118 558 l 114 565 q 142 582 125 571 q 174 593 160 593 l 181 592 m 119 515 q 98 502 113 510 q 79 494 83 494 q 111 522 103 522 l 119 515 m 110 456 q 93 443 110 443 q 86 456 93 453 l 110 456 m 143 401 q 97 374 143 383 l 97 383 q 121 392 106 383 q 143 401 136 401 m 136 339 q 153 346 146 339 q 142 332 153 339 q 125 325 131 325 l 121 324 q 114 335 114 324 q 138 363 114 342 q 174 385 163 383 l 131 340 l 136 339 m 147 225 q 169 236 154 228 q 196 253 183 244 q 181 231 196 240 q 163 221 165 222 l 171 219 q 202 231 181 219 q 224 247 224 242 q 220 260 224 254 q 210 267 217 267 q 201 264 204 267 l 213 275 q 208 278 211 276 q 201 281 204 281 q 185 275 196 281 l 185 281 q 158 264 181 272 q 131 253 136 256 q 137 237 133 249 q 147 225 140 225 m 229 115 q 261 154 242 126 l 278 176 l 278 183 q 243 169 268 183 q 207 154 222 154 q 203 156 206 154 q 201 160 201 158 q 231 178 208 169 q 245 184 233 179 q 263 199 257 189 q 259 202 263 201 q 254 203 256 203 q 233 196 243 203 q 213 180 224 189 q 196 165 203 171 q 213 190 197 169 q 235 231 235 221 q 191 215 224 228 q 158 196 158 203 q 169 167 158 179 q 201 139 181 154 q 229 115 218 128 m 531 25 q 561 47 532 28 q 596 67 590 67 l 585 50 q 589 48 586 50 q 592 44 592 46 q 624 63 607 49 q 643 78 640 78 q 700 106 657 78 q 704 147 700 129 q 707 188 707 172 q 667 183 689 188 q 646 176 646 178 l 657 176 q 650 161 650 175 q 651 153 650 156 q 651 149 651 150 q 615 121 647 140 q 600 111 611 118 q 585 99 589 104 l 581 110 q 603 126 585 113 q 629 149 621 139 q 585 132 606 144 l 581 143 q 610 153 593 146 q 640 165 628 161 q 635 171 640 165 q 551 151 583 171 q 476 83 519 131 l 486 83 q 474 65 485 74 q 456 56 464 56 q 443 61 447 56 q 481 94 458 82 l 476 99 q 536 149 511 139 q 485 137 507 149 q 438 104 463 125 q 401 79 414 86 q 372 72 389 72 q 443 143 397 101 q 395 133 428 143 q 336 106 363 122 q 306 72 310 89 q 350 58 324 65 q 393 51 376 51 l 393 44 l 404 50 l 411 49 l 469 39 l 481 40 l 481 33 q 489 26 481 31 q 504 22 497 22 q 513 25 508 22 q 522 31 518 28 l 515 22 l 531 25 m 289 171 q 277 154 288 164 q 267 138 267 144 q 318 163 311 150 q 313 168 317 165 q 306 171 310 171 q 294 165 300 165 q 289 171 290 165 m 274 94 q 294 113 294 94 l 293 119 q 301 117 297 119 q 306 115 304 115 q 339 154 324 133 q 278 125 297 136 q 257 114 258 114 q 252 116 254 114 q 246 121 250 118 q 244 115 244 119 q 254 101 244 107 q 274 94 264 94 m 618 76 q 678 138 667 114 l 640 121 q 663 142 647 133 q 692 150 678 150 q 662 105 692 133 q 618 76 632 76 m 394 142 q 353 149 374 149 q 341 142 350 149 q 328 135 332 136 l 343 135 q 306 99 310 117 q 369 129 319 108 l 394 142 m 483 149 q 451 138 469 149 q 433 115 433 128 l 492 149 l 483 149 m 536 106 q 541 122 536 115 q 554 129 546 129 q 536 106 554 117 m 626 10 q 656 28 638 10 q 690 69 674 47 q 706 94 706 92 l 613 44 q 589 33 606 44 q 572 15 572 21 q 591 19 582 15 q 603 25 600 24 q 632 35 618 35 l 646 33 q 626 24 642 28 q 611 17 611 19 q 617 12 611 14 q 626 10 622 10 m 711 11 q 715 13 713 11 q 717 17 717 15 l 711 39 l 711 54 q 706 72 711 63 l 674 29 q 667 11 674 21 l 711 11 m 519 67 q 514 59 518 63 q 504 56 510 56 q 519 67 507 60 m 515 50 q 529 60 515 54 q 553 67 543 65 q 537 55 547 61 q 519 44 526 49 q 517 43 518 43 q 515 43 515 43 l 515 50 m 525 33 q 522 31 525 33 l 525 33 z "},"":{"ha":788,"x_min":32,"x_max":742,"o":"m 726 169 q 735 82 726 132 q 739 50 736 74 q 742 3 742 26 q 738 -21 742 -15 q 690 -15 715 -15 l 629 -17 q 546 -10 590 -17 q 494 -1 501 -3 l 446 7 q 306 36 354 21 q 231 72 258 51 q 154 143 204 93 q 118 208 147 150 l 103 236 l 43 390 q 35 429 39 401 q 32 479 32 457 q 40 525 32 503 q 199 781 90 675 q 468 888 308 888 q 544 885 494 888 l 611 883 q 692 874 658 883 q 733 829 725 864 q 733 821 733 829 q 732 776 732 813 q 733 746 732 757 l 739 692 q 722 674 739 674 q 701 691 717 674 q 678 714 685 708 q 624 733 653 729 q 550 736 594 736 q 442 719 503 736 q 334 672 382 701 q 274 610 286 643 q 235 485 253 556 q 217 375 217 415 q 228 332 217 363 q 240 285 240 301 q 256 260 240 278 q 272 236 272 242 q 297 204 272 219 q 354 180 322 189 q 400 171 386 171 q 438 172 421 171 q 471 175 456 174 q 581 182 524 182 q 683 210 615 182 q 703 217 692 213 q 718 221 714 221 q 728 214 725 221 q 726 169 726 200 m 421 861 q 401 839 419 851 q 378 822 382 826 l 372 833 q 363 817 369 822 q 342 804 356 811 q 324 794 331 799 q 317 779 318 789 l 328 779 l 449 840 q 458 845 451 843 q 469 850 465 847 q 421 861 456 857 m 492 861 q 486 840 492 849 q 469 822 481 832 l 465 829 q 456 813 463 819 q 435 796 449 806 q 415 779 421 786 q 462 795 429 779 q 504 822 494 811 l 515 811 l 515 832 q 521 831 517 832 q 529 829 525 829 q 537 840 532 829 q 549 850 542 850 q 557 848 551 850 q 563 840 563 846 q 550 834 558 838 q 540 826 542 831 q 538 814 538 822 q 533 816 536 814 q 525 818 529 818 q 516 807 521 814 q 508 796 511 800 l 574 829 q 579 828 575 828 q 606 841 589 828 q 629 856 624 854 q 606 861 624 861 q 575 858 594 861 q 547 856 558 856 q 492 861 513 856 m 667 856 q 656 854 663 856 q 646 850 650 853 l 651 844 q 628 825 644 836 q 610 810 618 818 q 601 796 601 803 l 674 829 q 696 833 690 829 q 681 846 690 839 q 667 856 672 853 m 207 757 l 378 844 l 378 850 q 336 836 369 850 q 289 818 307 824 q 274 805 286 813 q 247 790 261 797 q 207 764 213 774 l 207 757 m 75 382 q 97 325 75 374 q 125 275 119 276 q 135 284 128 276 q 153 292 143 292 l 142 275 q 178 286 151 279 q 204 294 204 293 q 202 315 204 308 q 192 322 200 322 l 192 346 l 176 340 q 168 341 174 340 q 163 346 163 342 q 178 351 168 349 q 192 357 189 354 l 192 407 l 169 407 l 169 419 q 190 428 185 419 q 198 450 196 438 q 201 467 200 463 q 179 446 190 460 q 136 411 165 425 q 144 427 136 419 q 167 446 151 435 q 192 467 181 456 q 119 450 140 467 l 119 461 q 147 471 128 463 q 169 478 153 472 q 199 483 186 483 q 215 511 207 483 q 224 549 224 539 q 192 535 206 544 q 161 510 179 526 q 128 485 142 493 q 97 472 115 476 q 142 504 103 479 q 182 530 168 519 q 196 549 196 540 l 147 522 l 142 521 q 133 523 135 521 q 131 533 131 525 l 201 565 q 211 560 207 560 q 230 573 221 560 q 251 614 239 586 q 274 653 268 647 q 263 647 267 647 l 251 649 l 251 669 q 241 654 242 665 q 238 638 240 643 q 218 631 235 632 q 217 638 217 632 q 226 644 217 643 q 236 653 236 646 l 235 658 l 224 653 q 245 674 225 667 q 297 688 265 682 q 315 691 303 689 q 333 696 328 693 q 376 719 339 701 q 457 750 414 736 q 531 764 500 764 q 552 774 542 764 q 569 790 563 785 q 595 808 572 790 q 618 829 618 825 l 611 832 l 601 829 q 543 801 590 824 q 458 764 496 778 q 456 774 458 772 q 446 775 453 775 q 433 773 438 775 q 426 764 429 771 q 419 768 425 768 q 415 764 415 768 q 393 749 415 757 q 361 735 371 740 q 356 731 358 733 q 351 728 354 729 q 347 731 350 728 q 343 735 344 735 q 368 754 349 743 q 393 774 388 765 l 400 768 q 404 779 404 769 l 404 785 l 438 822 q 424 813 433 819 q 408 806 414 806 q 404 807 406 806 l 296 757 q 289 768 296 765 q 276 746 286 750 q 246 742 267 742 l 246 751 l 289 779 q 294 778 290 778 q 303 785 299 778 q 311 801 308 793 l 224 757 q 190 735 211 757 q 168 697 168 714 q 181 692 175 697 l 257 729 l 261 728 q 274 734 265 728 q 289 740 283 740 q 300 735 300 740 q 262 707 300 731 q 213 681 224 683 q 210 688 213 685 q 206 692 207 690 q 192 682 204 690 q 171 674 179 674 q 164 678 168 675 q 158 686 160 682 q 141 653 153 671 q 117 619 129 636 q 77 559 90 585 q 64 501 64 533 l 65 450 q 63 436 65 444 q 58 422 61 428 l 69 429 l 76 390 l 75 382 m 618 764 q 646 788 626 774 q 674 811 660 797 l 667 813 q 651 801 657 813 q 606 786 629 793 q 572 774 586 781 q 557 764 557 768 l 618 764 m 696 811 q 673 797 689 811 q 657 778 657 782 q 678 785 661 778 q 696 796 694 793 l 696 811 m 504 807 q 486 800 499 803 q 467 794 474 797 q 461 778 461 790 q 504 807 478 778 m 707 722 q 704 757 707 735 q 700 790 700 774 q 678 776 690 788 q 653 764 665 764 q 648 769 651 764 q 643 775 644 775 q 635 757 635 775 q 681 737 658 750 q 707 722 704 724 m 201 650 q 174 642 193 650 q 144 632 157 632 q 169 647 144 639 q 201 656 193 656 l 201 650 m 153 565 q 194 596 171 572 q 217 614 208 608 q 239 619 226 619 q 224 594 239 606 q 190 574 208 583 q 163 560 171 565 l 153 565 m 140 608 q 147 606 143 608 q 154 601 151 604 q 141 593 150 599 q 126 586 132 588 q 132 601 128 594 q 140 608 136 608 m 181 592 q 147 574 175 589 q 114 558 118 558 l 114 565 q 142 582 125 571 q 174 593 160 593 l 181 592 m 119 515 q 98 502 113 510 q 79 494 83 494 q 111 522 103 522 l 119 515 m 110 456 q 93 443 110 443 q 86 456 93 453 l 110 456 m 143 401 q 97 374 143 383 l 97 383 q 121 392 106 383 q 143 401 136 401 m 136 339 q 153 346 146 339 q 142 332 153 339 q 125 325 131 325 l 121 324 q 114 335 114 324 q 138 363 114 342 q 174 385 163 383 l 131 340 l 136 339 m 147 225 q 169 236 154 228 q 196 253 183 244 q 181 231 196 240 q 163 221 165 222 l 171 219 q 202 231 181 219 q 224 247 224 242 q 220 260 224 254 q 210 267 217 267 q 201 264 204 267 l 213 275 q 208 278 211 276 q 201 281 204 281 q 185 275 196 281 l 185 281 q 158 264 181 272 q 131 253 136 256 q 137 237 133 249 q 147 225 140 225 m 229 115 q 261 154 242 126 l 278 176 l 278 183 q 243 169 268 183 q 207 154 222 154 q 203 156 206 154 q 201 160 201 158 q 231 178 208 169 q 245 184 233 179 q 263 199 257 189 q 259 202 263 201 q 254 203 256 203 q 233 196 243 203 q 213 180 224 189 q 196 165 203 171 q 213 190 197 169 q 235 231 235 221 q 191 215 224 228 q 158 196 158 203 q 169 167 158 179 q 201 139 181 154 q 229 115 218 128 m 531 25 q 561 47 532 28 q 596 67 590 67 l 585 50 q 589 48 586 50 q 592 44 592 46 q 624 63 607 49 q 643 78 640 78 q 700 106 657 78 q 704 147 700 129 q 707 188 707 172 q 667 183 689 188 q 646 176 646 178 l 657 176 q 650 161 650 175 q 651 153 650 156 q 651 149 651 150 q 615 121 647 140 q 600 111 611 118 q 585 99 589 104 l 581 110 q 603 126 585 113 q 629 149 621 139 q 585 132 606 144 l 581 143 q 610 153 593 146 q 640 165 628 161 q 635 171 640 165 q 551 151 583 171 q 476 83 519 131 l 486 83 q 474 65 485 74 q 456 56 464 56 q 443 61 447 56 q 481 94 458 82 l 476 99 q 536 149 511 139 q 485 137 507 149 q 438 104 463 125 q 401 79 414 86 q 372 72 389 72 q 443 143 397 101 q 395 133 428 143 q 336 106 363 122 q 306 72 310 89 q 350 58 324 65 q 393 51 376 51 l 393 44 l 404 50 l 411 49 l 469 39 l 481 40 l 481 33 q 489 26 481 31 q 504 22 497 22 q 513 25 508 22 q 522 31 518 28 l 515 22 l 531 25 m 289 171 q 277 154 288 164 q 267 138 267 144 q 318 163 311 150 q 313 168 317 165 q 306 171 310 171 q 294 165 300 165 q 289 171 290 165 m 274 94 q 294 113 294 94 l 293 119 q 301 117 297 119 q 306 115 304 115 q 339 154 324 133 q 278 125 297 136 q 257 114 258 114 q 252 116 254 114 q 246 121 250 118 q 244 115 244 119 q 254 101 244 107 q 274 94 264 94 m 618 76 q 678 138 667 114 l 640 121 q 663 142 647 133 q 692 150 678 150 q 662 105 692 133 q 618 76 632 76 m 394 142 q 353 149 374 149 q 341 142 350 149 q 328 135 332 136 l 343 135 q 306 99 310 117 q 369 129 319 108 l 394 142 m 483 149 q 451 138 469 149 q 433 115 433 128 l 492 149 l 483 149 m 536 106 q 541 122 536 115 q 554 129 546 129 q 536 106 554 117 m 626 10 q 656 28 638 10 q 690 69 674 47 q 706 94 706 92 l 613 44 q 589 33 606 44 q 572 15 572 21 q 591 19 582 15 q 603 25 600 24 q 632 35 618 35 l 646 33 q 626 24 642 28 q 611 17 611 19 q 617 12 611 14 q 626 10 622 10 m 711 11 q 715 13 713 11 q 717 17 717 15 l 711 39 l 711 54 q 706 72 711 63 l 674 29 q 667 11 674 21 l 711 11 m 519 67 q 514 59 518 63 q 504 56 510 56 q 519 67 507 60 m 515 50 q 529 60 515 54 q 553 67 543 65 q 537 55 547 61 q 519 44 526 49 q 517 43 518 43 q 515 43 515 43 l 515 50 m 525 33 q 522 31 525 33 l 525 33 m 260 -197 q 278 -169 264 -187 q 297 -143 292 -151 q 334 -94 321 -114 q 347 -62 347 -75 q 340 -43 347 -54 q 366 -47 360 -43 q 372 -60 372 -50 l 371 -75 q 382 -86 371 -86 q 418 -76 393 -86 q 442 -68 419 -68 l 454 -69 q 483 -60 479 -69 l 476 -54 l 461 -56 l 418 -54 q 394 -56 401 -54 q 383 -46 389 -56 q 378 -32 378 -36 l 483 -32 q 501 -28 492 -28 q 515 -31 508 -28 q 522 -40 521 -35 q 518 -56 521 -50 q 506 -67 515 -61 q 458 -129 501 -72 q 401 -186 414 -186 q 392 -206 401 -187 q 375 -225 383 -225 q 316 -215 360 -225 q 260 -197 272 -206 m 361 -106 q 384 -117 361 -114 q 421 -121 407 -121 q 438 -109 431 -121 q 444 -87 444 -97 q 361 -106 393 -106 m 331 -132 q 333 -140 331 -136 q 336 -143 335 -143 q 363 -133 356 -136 q 369 -129 369 -129 q 358 -121 369 -122 q 343 -119 346 -119 q 335 -126 340 -121 q 331 -132 331 -131 m 331 -197 q 372 -186 357 -197 q 401 -147 386 -175 q 371 -151 386 -149 q 344 -156 356 -154 q 340 -154 340 -156 q 322 -164 328 -154 q 312 -182 315 -174 q 308 -192 308 -190 l 331 -197 z "}}}
